G04 (created by PCBNEW (2013-07-07 BZR 4022)-stable) date 5/4/2015 12:54:49 PM*
%MOIN*%
G04 Gerber Fmt 3.4, Leading zero omitted, Abs format*
%FSLAX34Y34*%
G01*
G70*
G90*
G04 APERTURE LIST*
%ADD10C,0.00590551*%
%ADD11C,0.011811*%
%ADD12C,0.00393701*%
%ADD13R,0.075X0.075*%
%ADD14O,0.08X0.06*%
%ADD15C,0.08*%
%ADD16R,0.08X0.06*%
%ADD17C,0.056*%
%ADD18O,0.09X0.062*%
%ADD19R,0.09X0.062*%
%ADD20C,0.07*%
%ADD21C,0.06*%
%ADD22C,0.03*%
%ADD23C,0.035*%
%ADD24C,0.04*%
%ADD25C,0.025*%
G04 APERTURE END LIST*
G54D10*
G54D11*
X42857Y-24278D02*
X42785Y-24302D01*
X42666Y-24302D01*
X42619Y-24278D01*
X42595Y-24254D01*
X42571Y-24207D01*
X42571Y-24159D01*
X42595Y-24111D01*
X42619Y-24088D01*
X42666Y-24064D01*
X42761Y-24040D01*
X42809Y-24016D01*
X42833Y-23992D01*
X42857Y-23945D01*
X42857Y-23897D01*
X42833Y-23850D01*
X42809Y-23826D01*
X42761Y-23802D01*
X42642Y-23802D01*
X42571Y-23826D01*
X42261Y-23802D02*
X42166Y-23802D01*
X42119Y-23826D01*
X42071Y-23873D01*
X42047Y-23969D01*
X42047Y-24135D01*
X42071Y-24230D01*
X42119Y-24278D01*
X42166Y-24302D01*
X42261Y-24302D01*
X42309Y-24278D01*
X42357Y-24230D01*
X42380Y-24135D01*
X42380Y-23969D01*
X42357Y-23873D01*
X42309Y-23826D01*
X42261Y-23802D01*
X41595Y-24302D02*
X41833Y-24302D01*
X41833Y-23802D01*
X41428Y-24302D02*
X41428Y-23802D01*
X41309Y-23802D01*
X41238Y-23826D01*
X41190Y-23873D01*
X41166Y-23921D01*
X41142Y-24016D01*
X41142Y-24088D01*
X41166Y-24183D01*
X41190Y-24230D01*
X41238Y-24278D01*
X41309Y-24302D01*
X41428Y-24302D01*
G54D12*
X27900Y-22900D02*
X27900Y-25900D01*
X27900Y-22900D02*
X30900Y-22900D01*
X43900Y-22900D02*
X40900Y-22900D01*
X43900Y-22900D02*
X43900Y-25900D01*
X27900Y-52900D02*
X30900Y-52900D01*
X27900Y-52900D02*
X27900Y-49900D01*
X43900Y-52900D02*
X43900Y-49900D01*
X43900Y-52900D02*
X40900Y-52900D01*
G54D11*
X59257Y-24178D02*
X59185Y-24202D01*
X59066Y-24202D01*
X59019Y-24178D01*
X58995Y-24154D01*
X58971Y-24107D01*
X58971Y-24059D01*
X58995Y-24011D01*
X59019Y-23988D01*
X59066Y-23964D01*
X59161Y-23940D01*
X59209Y-23916D01*
X59233Y-23892D01*
X59257Y-23845D01*
X59257Y-23797D01*
X59233Y-23750D01*
X59209Y-23726D01*
X59161Y-23702D01*
X59042Y-23702D01*
X58971Y-23726D01*
X58661Y-23702D02*
X58566Y-23702D01*
X58519Y-23726D01*
X58471Y-23773D01*
X58447Y-23869D01*
X58447Y-24035D01*
X58471Y-24130D01*
X58519Y-24178D01*
X58566Y-24202D01*
X58661Y-24202D01*
X58709Y-24178D01*
X58757Y-24130D01*
X58780Y-24035D01*
X58780Y-23869D01*
X58757Y-23773D01*
X58709Y-23726D01*
X58661Y-23702D01*
X57995Y-24202D02*
X58233Y-24202D01*
X58233Y-23702D01*
X57828Y-24202D02*
X57828Y-23702D01*
X57709Y-23702D01*
X57638Y-23726D01*
X57590Y-23773D01*
X57566Y-23821D01*
X57542Y-23916D01*
X57542Y-23988D01*
X57566Y-24083D01*
X57590Y-24130D01*
X57638Y-24178D01*
X57709Y-24202D01*
X57828Y-24202D01*
G54D12*
X44300Y-22800D02*
X44300Y-25800D01*
X44300Y-22800D02*
X47300Y-22800D01*
X60300Y-22800D02*
X57300Y-22800D01*
X60300Y-22800D02*
X60300Y-25800D01*
X44300Y-52800D02*
X47300Y-52800D01*
X44300Y-52800D02*
X44300Y-49800D01*
X60300Y-52800D02*
X60300Y-49800D01*
X60300Y-52800D02*
X57300Y-52800D01*
G54D11*
X75657Y-24178D02*
X75585Y-24202D01*
X75466Y-24202D01*
X75419Y-24178D01*
X75395Y-24154D01*
X75371Y-24107D01*
X75371Y-24059D01*
X75395Y-24011D01*
X75419Y-23988D01*
X75466Y-23964D01*
X75561Y-23940D01*
X75609Y-23916D01*
X75633Y-23892D01*
X75657Y-23845D01*
X75657Y-23797D01*
X75633Y-23750D01*
X75609Y-23726D01*
X75561Y-23702D01*
X75442Y-23702D01*
X75371Y-23726D01*
X75061Y-23702D02*
X74966Y-23702D01*
X74919Y-23726D01*
X74871Y-23773D01*
X74847Y-23869D01*
X74847Y-24035D01*
X74871Y-24130D01*
X74919Y-24178D01*
X74966Y-24202D01*
X75061Y-24202D01*
X75109Y-24178D01*
X75157Y-24130D01*
X75180Y-24035D01*
X75180Y-23869D01*
X75157Y-23773D01*
X75109Y-23726D01*
X75061Y-23702D01*
X74395Y-24202D02*
X74633Y-24202D01*
X74633Y-23702D01*
X74228Y-24202D02*
X74228Y-23702D01*
X74109Y-23702D01*
X74038Y-23726D01*
X73990Y-23773D01*
X73966Y-23821D01*
X73942Y-23916D01*
X73942Y-23988D01*
X73966Y-24083D01*
X73990Y-24130D01*
X74038Y-24178D01*
X74109Y-24202D01*
X74228Y-24202D01*
G54D12*
X60700Y-22800D02*
X60700Y-25800D01*
X60700Y-22800D02*
X63700Y-22800D01*
X76700Y-22800D02*
X73700Y-22800D01*
X76700Y-22800D02*
X76700Y-25800D01*
X60700Y-52800D02*
X63700Y-52800D01*
X60700Y-52800D02*
X60700Y-49800D01*
X76700Y-52800D02*
X76700Y-49800D01*
X76700Y-52800D02*
X73700Y-52800D01*
G54D11*
X91957Y-24078D02*
X91885Y-24102D01*
X91766Y-24102D01*
X91719Y-24078D01*
X91695Y-24054D01*
X91671Y-24007D01*
X91671Y-23959D01*
X91695Y-23911D01*
X91719Y-23888D01*
X91766Y-23864D01*
X91861Y-23840D01*
X91909Y-23816D01*
X91933Y-23792D01*
X91957Y-23745D01*
X91957Y-23697D01*
X91933Y-23650D01*
X91909Y-23626D01*
X91861Y-23602D01*
X91742Y-23602D01*
X91671Y-23626D01*
X91361Y-23602D02*
X91266Y-23602D01*
X91219Y-23626D01*
X91171Y-23673D01*
X91147Y-23769D01*
X91147Y-23935D01*
X91171Y-24030D01*
X91219Y-24078D01*
X91266Y-24102D01*
X91361Y-24102D01*
X91409Y-24078D01*
X91457Y-24030D01*
X91480Y-23935D01*
X91480Y-23769D01*
X91457Y-23673D01*
X91409Y-23626D01*
X91361Y-23602D01*
X90695Y-24102D02*
X90933Y-24102D01*
X90933Y-23602D01*
X90528Y-24102D02*
X90528Y-23602D01*
X90409Y-23602D01*
X90338Y-23626D01*
X90290Y-23673D01*
X90266Y-23721D01*
X90242Y-23816D01*
X90242Y-23888D01*
X90266Y-23983D01*
X90290Y-24030D01*
X90338Y-24078D01*
X90409Y-24102D01*
X90528Y-24102D01*
G54D12*
X77000Y-22700D02*
X77000Y-25700D01*
X77000Y-22700D02*
X80000Y-22700D01*
X93000Y-22700D02*
X90000Y-22700D01*
X93000Y-22700D02*
X93000Y-25700D01*
X77000Y-52700D02*
X80000Y-52700D01*
X77000Y-52700D02*
X77000Y-49700D01*
X93000Y-52700D02*
X93000Y-49700D01*
X93000Y-52700D02*
X90000Y-52700D01*
G54D11*
X26457Y-24378D02*
X26385Y-24402D01*
X26266Y-24402D01*
X26219Y-24378D01*
X26195Y-24354D01*
X26171Y-24307D01*
X26171Y-24259D01*
X26195Y-24211D01*
X26219Y-24188D01*
X26266Y-24164D01*
X26361Y-24140D01*
X26409Y-24116D01*
X26433Y-24092D01*
X26457Y-24045D01*
X26457Y-23997D01*
X26433Y-23950D01*
X26409Y-23926D01*
X26361Y-23902D01*
X26242Y-23902D01*
X26171Y-23926D01*
X25861Y-23902D02*
X25766Y-23902D01*
X25719Y-23926D01*
X25671Y-23973D01*
X25647Y-24069D01*
X25647Y-24235D01*
X25671Y-24330D01*
X25719Y-24378D01*
X25766Y-24402D01*
X25861Y-24402D01*
X25909Y-24378D01*
X25957Y-24330D01*
X25980Y-24235D01*
X25980Y-24069D01*
X25957Y-23973D01*
X25909Y-23926D01*
X25861Y-23902D01*
X25195Y-24402D02*
X25433Y-24402D01*
X25433Y-23902D01*
X25028Y-24402D02*
X25028Y-23902D01*
X24909Y-23902D01*
X24838Y-23926D01*
X24790Y-23973D01*
X24766Y-24021D01*
X24742Y-24116D01*
X24742Y-24188D01*
X24766Y-24283D01*
X24790Y-24330D01*
X24838Y-24378D01*
X24909Y-24402D01*
X25028Y-24402D01*
G54D12*
X11500Y-23000D02*
X11500Y-26000D01*
X11500Y-23000D02*
X14500Y-23000D01*
X27500Y-23000D02*
X24500Y-23000D01*
X27500Y-23000D02*
X27500Y-26000D01*
X11500Y-53000D02*
X14500Y-53000D01*
X11500Y-53000D02*
X11500Y-50000D01*
X27500Y-53000D02*
X27500Y-50000D01*
X27500Y-53000D02*
X24500Y-53000D01*
G54D13*
X28900Y-30400D03*
G54D14*
X28900Y-31400D03*
X28900Y-32400D03*
X28900Y-33400D03*
X28900Y-34400D03*
X28900Y-35400D03*
X28900Y-36400D03*
X28900Y-37400D03*
X28900Y-38400D03*
X28900Y-39400D03*
G54D13*
X28900Y-40400D03*
G54D14*
X28900Y-41400D03*
X28900Y-42400D03*
X28900Y-43400D03*
X28900Y-44400D03*
X28900Y-45400D03*
X28900Y-46400D03*
X28900Y-47400D03*
X28900Y-48400D03*
X28900Y-49400D03*
G54D13*
X42900Y-40400D03*
G54D14*
X42900Y-41400D03*
X42900Y-42400D03*
X42900Y-43400D03*
X42900Y-44400D03*
X42900Y-45400D03*
X42900Y-46400D03*
X42900Y-47400D03*
X42900Y-48400D03*
X42900Y-49400D03*
G54D13*
X42900Y-30400D03*
G54D14*
X42900Y-31400D03*
X42900Y-32400D03*
X42900Y-33400D03*
X42900Y-34400D03*
X42900Y-35400D03*
X42900Y-36400D03*
X42900Y-37400D03*
X42900Y-38400D03*
X42900Y-39400D03*
G54D15*
X28700Y-26496D03*
X31696Y-26500D03*
G54D16*
X32500Y-42150D03*
X32500Y-40850D03*
G54D17*
X39500Y-38500D03*
X39500Y-40500D03*
G54D18*
X37000Y-47000D03*
X37000Y-46000D03*
X37000Y-45000D03*
X37000Y-44000D03*
X37000Y-43000D03*
X37000Y-42000D03*
X37000Y-41000D03*
X37000Y-40000D03*
X37000Y-39000D03*
X37000Y-38000D03*
X37000Y-37000D03*
X37000Y-36000D03*
X37000Y-35000D03*
G54D19*
X37000Y-48000D03*
G54D18*
X34000Y-35000D03*
X34000Y-36000D03*
X34000Y-37000D03*
X34000Y-38000D03*
X34000Y-39000D03*
X34000Y-40000D03*
X34000Y-41000D03*
X34000Y-42000D03*
X34000Y-43000D03*
X34000Y-44000D03*
X34000Y-45000D03*
X34000Y-46000D03*
X34000Y-47000D03*
X34000Y-48000D03*
G54D20*
X34400Y-26600D03*
X34400Y-25600D03*
X35400Y-26600D03*
X35400Y-25600D03*
X36400Y-26600D03*
X36400Y-25600D03*
X37400Y-26600D03*
X37400Y-25600D03*
X38400Y-26600D03*
X38400Y-25600D03*
G54D13*
X45300Y-30300D03*
G54D14*
X45300Y-31300D03*
X45300Y-32300D03*
X45300Y-33300D03*
X45300Y-34300D03*
X45300Y-35300D03*
X45300Y-36300D03*
X45300Y-37300D03*
X45300Y-38300D03*
X45300Y-39300D03*
G54D13*
X45300Y-40300D03*
G54D14*
X45300Y-41300D03*
X45300Y-42300D03*
X45300Y-43300D03*
X45300Y-44300D03*
X45300Y-45300D03*
X45300Y-46300D03*
X45300Y-47300D03*
X45300Y-48300D03*
X45300Y-49300D03*
G54D13*
X59300Y-40300D03*
G54D14*
X59300Y-41300D03*
X59300Y-42300D03*
X59300Y-43300D03*
X59300Y-44300D03*
X59300Y-45300D03*
X59300Y-46300D03*
X59300Y-47300D03*
X59300Y-48300D03*
X59300Y-49300D03*
G54D13*
X59300Y-30300D03*
G54D14*
X59300Y-31300D03*
X59300Y-32300D03*
X59300Y-33300D03*
X59300Y-34300D03*
X59300Y-35300D03*
X59300Y-36300D03*
X59300Y-37300D03*
X59300Y-38300D03*
X59300Y-39300D03*
G54D15*
X45100Y-26396D03*
X48096Y-26400D03*
G54D16*
X48900Y-42050D03*
X48900Y-40750D03*
G54D17*
X55900Y-38400D03*
X55900Y-40400D03*
G54D18*
X53400Y-46900D03*
X53400Y-45900D03*
X53400Y-44900D03*
X53400Y-43900D03*
X53400Y-42900D03*
X53400Y-41900D03*
X53400Y-40900D03*
X53400Y-39900D03*
X53400Y-38900D03*
X53400Y-37900D03*
X53400Y-36900D03*
X53400Y-35900D03*
X53400Y-34900D03*
G54D19*
X53400Y-47900D03*
G54D18*
X50400Y-34900D03*
X50400Y-35900D03*
X50400Y-36900D03*
X50400Y-37900D03*
X50400Y-38900D03*
X50400Y-39900D03*
X50400Y-40900D03*
X50400Y-41900D03*
X50400Y-42900D03*
X50400Y-43900D03*
X50400Y-44900D03*
X50400Y-45900D03*
X50400Y-46900D03*
X50400Y-47900D03*
G54D20*
X50800Y-26500D03*
X50800Y-25500D03*
X51800Y-26500D03*
X51800Y-25500D03*
X52800Y-26500D03*
X52800Y-25500D03*
X53800Y-26500D03*
X53800Y-25500D03*
X54800Y-26500D03*
X54800Y-25500D03*
G54D13*
X61700Y-30300D03*
G54D14*
X61700Y-31300D03*
X61700Y-32300D03*
X61700Y-33300D03*
X61700Y-34300D03*
X61700Y-35300D03*
X61700Y-36300D03*
X61700Y-37300D03*
X61700Y-38300D03*
X61700Y-39300D03*
G54D13*
X61700Y-40300D03*
G54D14*
X61700Y-41300D03*
X61700Y-42300D03*
X61700Y-43300D03*
X61700Y-44300D03*
X61700Y-45300D03*
X61700Y-46300D03*
X61700Y-47300D03*
X61700Y-48300D03*
X61700Y-49300D03*
G54D13*
X75700Y-40300D03*
G54D14*
X75700Y-41300D03*
X75700Y-42300D03*
X75700Y-43300D03*
X75700Y-44300D03*
X75700Y-45300D03*
X75700Y-46300D03*
X75700Y-47300D03*
X75700Y-48300D03*
X75700Y-49300D03*
G54D13*
X75700Y-30300D03*
G54D14*
X75700Y-31300D03*
X75700Y-32300D03*
X75700Y-33300D03*
X75700Y-34300D03*
X75700Y-35300D03*
X75700Y-36300D03*
X75700Y-37300D03*
X75700Y-38300D03*
X75700Y-39300D03*
G54D15*
X61500Y-26396D03*
X64496Y-26400D03*
G54D16*
X65300Y-42050D03*
X65300Y-40750D03*
G54D17*
X72300Y-38400D03*
X72300Y-40400D03*
G54D18*
X69800Y-46900D03*
X69800Y-45900D03*
X69800Y-44900D03*
X69800Y-43900D03*
X69800Y-42900D03*
X69800Y-41900D03*
X69800Y-40900D03*
X69800Y-39900D03*
X69800Y-38900D03*
X69800Y-37900D03*
X69800Y-36900D03*
X69800Y-35900D03*
X69800Y-34900D03*
G54D19*
X69800Y-47900D03*
G54D18*
X66800Y-34900D03*
X66800Y-35900D03*
X66800Y-36900D03*
X66800Y-37900D03*
X66800Y-38900D03*
X66800Y-39900D03*
X66800Y-40900D03*
X66800Y-41900D03*
X66800Y-42900D03*
X66800Y-43900D03*
X66800Y-44900D03*
X66800Y-45900D03*
X66800Y-46900D03*
X66800Y-47900D03*
G54D20*
X67200Y-26500D03*
X67200Y-25500D03*
X68200Y-26500D03*
X68200Y-25500D03*
X69200Y-26500D03*
X69200Y-25500D03*
X70200Y-26500D03*
X70200Y-25500D03*
X71200Y-26500D03*
X71200Y-25500D03*
G54D13*
X78000Y-30200D03*
G54D14*
X78000Y-31200D03*
X78000Y-32200D03*
X78000Y-33200D03*
X78000Y-34200D03*
X78000Y-35200D03*
X78000Y-36200D03*
X78000Y-37200D03*
X78000Y-38200D03*
X78000Y-39200D03*
G54D13*
X78000Y-40200D03*
G54D14*
X78000Y-41200D03*
X78000Y-42200D03*
X78000Y-43200D03*
X78000Y-44200D03*
X78000Y-45200D03*
X78000Y-46200D03*
X78000Y-47200D03*
X78000Y-48200D03*
X78000Y-49200D03*
G54D13*
X92000Y-40200D03*
G54D14*
X92000Y-41200D03*
X92000Y-42200D03*
X92000Y-43200D03*
X92000Y-44200D03*
X92000Y-45200D03*
X92000Y-46200D03*
X92000Y-47200D03*
X92000Y-48200D03*
X92000Y-49200D03*
G54D13*
X92000Y-30200D03*
G54D14*
X92000Y-31200D03*
X92000Y-32200D03*
X92000Y-33200D03*
X92000Y-34200D03*
X92000Y-35200D03*
X92000Y-36200D03*
X92000Y-37200D03*
X92000Y-38200D03*
X92000Y-39200D03*
G54D15*
X77800Y-26296D03*
X80796Y-26300D03*
G54D16*
X81600Y-41950D03*
X81600Y-40650D03*
G54D17*
X88600Y-38300D03*
X88600Y-40300D03*
G54D18*
X86100Y-46800D03*
X86100Y-45800D03*
X86100Y-44800D03*
X86100Y-43800D03*
X86100Y-42800D03*
X86100Y-41800D03*
X86100Y-40800D03*
X86100Y-39800D03*
X86100Y-38800D03*
X86100Y-37800D03*
X86100Y-36800D03*
X86100Y-35800D03*
X86100Y-34800D03*
G54D19*
X86100Y-47800D03*
G54D18*
X83100Y-34800D03*
X83100Y-35800D03*
X83100Y-36800D03*
X83100Y-37800D03*
X83100Y-38800D03*
X83100Y-39800D03*
X83100Y-40800D03*
X83100Y-41800D03*
X83100Y-42800D03*
X83100Y-43800D03*
X83100Y-44800D03*
X83100Y-45800D03*
X83100Y-46800D03*
X83100Y-47800D03*
G54D20*
X83500Y-26400D03*
X83500Y-25400D03*
X84500Y-26400D03*
X84500Y-25400D03*
X85500Y-26400D03*
X85500Y-25400D03*
X86500Y-26400D03*
X86500Y-25400D03*
X87500Y-26400D03*
X87500Y-25400D03*
G54D13*
X12500Y-30500D03*
G54D14*
X12500Y-31500D03*
X12500Y-32500D03*
X12500Y-33500D03*
X12500Y-34500D03*
X12500Y-35500D03*
X12500Y-36500D03*
X12500Y-37500D03*
X12500Y-38500D03*
X12500Y-39500D03*
G54D13*
X12500Y-40500D03*
G54D14*
X12500Y-41500D03*
X12500Y-42500D03*
X12500Y-43500D03*
X12500Y-44500D03*
X12500Y-45500D03*
X12500Y-46500D03*
X12500Y-47500D03*
X12500Y-48500D03*
X12500Y-49500D03*
G54D13*
X26500Y-40500D03*
G54D14*
X26500Y-41500D03*
X26500Y-42500D03*
X26500Y-43500D03*
X26500Y-44500D03*
X26500Y-45500D03*
X26500Y-46500D03*
X26500Y-47500D03*
X26500Y-48500D03*
X26500Y-49500D03*
G54D13*
X26500Y-30500D03*
G54D14*
X26500Y-31500D03*
X26500Y-32500D03*
X26500Y-33500D03*
X26500Y-34500D03*
X26500Y-35500D03*
X26500Y-36500D03*
X26500Y-37500D03*
X26500Y-38500D03*
X26500Y-39500D03*
G54D15*
X12300Y-26596D03*
X15296Y-26600D03*
G54D16*
X16100Y-42250D03*
X16100Y-40950D03*
G54D17*
X23100Y-38600D03*
X23100Y-40600D03*
G54D18*
X20600Y-47100D03*
X20600Y-46100D03*
X20600Y-45100D03*
X20600Y-44100D03*
X20600Y-43100D03*
X20600Y-42100D03*
X20600Y-41100D03*
X20600Y-40100D03*
X20600Y-39100D03*
X20600Y-38100D03*
X20600Y-37100D03*
X20600Y-36100D03*
X20600Y-35100D03*
G54D19*
X20600Y-48100D03*
G54D18*
X17600Y-35100D03*
X17600Y-36100D03*
X17600Y-37100D03*
X17600Y-38100D03*
X17600Y-39100D03*
X17600Y-40100D03*
X17600Y-41100D03*
X17600Y-42100D03*
X17600Y-43100D03*
X17600Y-44100D03*
X17600Y-45100D03*
X17600Y-46100D03*
X17600Y-47100D03*
X17600Y-48100D03*
G54D20*
X18000Y-26700D03*
X18000Y-25700D03*
X19000Y-26700D03*
X19000Y-25700D03*
X20000Y-26700D03*
X20000Y-25700D03*
X21000Y-26700D03*
X21000Y-25700D03*
X22000Y-26700D03*
X22000Y-25700D03*
G54D21*
X37600Y-31300D03*
X36600Y-27900D03*
X39400Y-28500D03*
X54000Y-31200D03*
X53000Y-27800D03*
X55800Y-28400D03*
X70400Y-31200D03*
X69400Y-27800D03*
X72200Y-28400D03*
X86700Y-31100D03*
X85700Y-27700D03*
X88500Y-28300D03*
X21200Y-31400D03*
X20200Y-28000D03*
X23000Y-28600D03*
X35000Y-30500D03*
X51400Y-30400D03*
X67800Y-30400D03*
X84100Y-30300D03*
X18600Y-30600D03*
X34200Y-31000D03*
X50600Y-30900D03*
X67000Y-30900D03*
X83300Y-30800D03*
X17800Y-31100D03*
X32400Y-27500D03*
X48800Y-27400D03*
X65200Y-27400D03*
X81500Y-27300D03*
X16000Y-27600D03*
X29900Y-32100D03*
X46300Y-32000D03*
X62700Y-32000D03*
X79000Y-31900D03*
X13500Y-32200D03*
X33100Y-31200D03*
X49500Y-31100D03*
X65900Y-31100D03*
X82200Y-31000D03*
X16700Y-31300D03*
G54D22*
X38800Y-27900D02*
X36600Y-27900D01*
X39400Y-28500D02*
X38800Y-27900D01*
X33100Y-34400D02*
X33100Y-34300D01*
X33100Y-34300D02*
X34300Y-33100D01*
X42900Y-37400D02*
X42600Y-37400D01*
X42600Y-37400D02*
X38800Y-33600D01*
X38800Y-33600D02*
X38800Y-32500D01*
G54D23*
X33400Y-37000D02*
X34000Y-37000D01*
X33100Y-34400D02*
X33100Y-36700D01*
X33100Y-36700D02*
X33400Y-37000D01*
G54D22*
X37600Y-32000D02*
X37600Y-31300D01*
X36500Y-33100D02*
X37600Y-32000D01*
X34300Y-33100D02*
X36500Y-33100D01*
X38800Y-32500D02*
X37600Y-31300D01*
X55200Y-27800D02*
X53000Y-27800D01*
X55800Y-28400D02*
X55200Y-27800D01*
X49500Y-34300D02*
X49500Y-34200D01*
X49500Y-34200D02*
X50700Y-33000D01*
X59300Y-37300D02*
X59000Y-37300D01*
X59000Y-37300D02*
X55200Y-33500D01*
X55200Y-33500D02*
X55200Y-32400D01*
G54D23*
X49800Y-36900D02*
X50400Y-36900D01*
X49500Y-34300D02*
X49500Y-36600D01*
X49500Y-36600D02*
X49800Y-36900D01*
G54D22*
X54000Y-31900D02*
X54000Y-31200D01*
X52900Y-33000D02*
X54000Y-31900D01*
X50700Y-33000D02*
X52900Y-33000D01*
X55200Y-32400D02*
X54000Y-31200D01*
X71600Y-27800D02*
X69400Y-27800D01*
X72200Y-28400D02*
X71600Y-27800D01*
X65900Y-34300D02*
X65900Y-34200D01*
X65900Y-34200D02*
X67100Y-33000D01*
X75700Y-37300D02*
X75400Y-37300D01*
X75400Y-37300D02*
X71600Y-33500D01*
X71600Y-33500D02*
X71600Y-32400D01*
G54D23*
X66200Y-36900D02*
X66800Y-36900D01*
X65900Y-34300D02*
X65900Y-36600D01*
X65900Y-36600D02*
X66200Y-36900D01*
G54D22*
X70400Y-31900D02*
X70400Y-31200D01*
X69300Y-33000D02*
X70400Y-31900D01*
X67100Y-33000D02*
X69300Y-33000D01*
X71600Y-32400D02*
X70400Y-31200D01*
X87900Y-27700D02*
X85700Y-27700D01*
X88500Y-28300D02*
X87900Y-27700D01*
X82200Y-34200D02*
X82200Y-34100D01*
X82200Y-34100D02*
X83400Y-32900D01*
X92000Y-37200D02*
X91700Y-37200D01*
X91700Y-37200D02*
X87900Y-33400D01*
X87900Y-33400D02*
X87900Y-32300D01*
G54D23*
X82500Y-36800D02*
X83100Y-36800D01*
X82200Y-34200D02*
X82200Y-36500D01*
X82200Y-36500D02*
X82500Y-36800D01*
G54D22*
X86700Y-31800D02*
X86700Y-31100D01*
X85600Y-32900D02*
X86700Y-31800D01*
X83400Y-32900D02*
X85600Y-32900D01*
X87900Y-32300D02*
X86700Y-31100D01*
X22400Y-28000D02*
X20200Y-28000D01*
X23000Y-28600D02*
X22400Y-28000D01*
X16700Y-34500D02*
X16700Y-34400D01*
X16700Y-34400D02*
X17900Y-33200D01*
X26500Y-37500D02*
X26200Y-37500D01*
X26200Y-37500D02*
X22400Y-33700D01*
X22400Y-33700D02*
X22400Y-32600D01*
G54D23*
X17000Y-37100D02*
X17600Y-37100D01*
X16700Y-34500D02*
X16700Y-36800D01*
X16700Y-36800D02*
X17000Y-37100D01*
G54D22*
X21200Y-32100D02*
X21200Y-31400D01*
X20100Y-33200D02*
X21200Y-32100D01*
X17900Y-33200D02*
X20100Y-33200D01*
X22400Y-32600D02*
X21200Y-31400D01*
X32500Y-34800D02*
X32500Y-34200D01*
X35000Y-31700D02*
X35000Y-30500D01*
X32500Y-34200D02*
X35000Y-31700D01*
G54D23*
X32500Y-37100D02*
X33400Y-38000D01*
X32500Y-34800D02*
X32500Y-37100D01*
X33400Y-38000D02*
X34000Y-38000D01*
G54D22*
X39700Y-32100D02*
X39700Y-32000D01*
X38200Y-30500D02*
X35000Y-30500D01*
X39700Y-32000D02*
X38200Y-30500D01*
X42900Y-36400D02*
X42700Y-36400D01*
X39700Y-33400D02*
X39700Y-32100D01*
X39700Y-32100D02*
X39700Y-32000D01*
X42700Y-36400D02*
X39700Y-33400D01*
X48900Y-34700D02*
X48900Y-34100D01*
X51400Y-31600D02*
X51400Y-30400D01*
X48900Y-34100D02*
X51400Y-31600D01*
G54D23*
X48900Y-37000D02*
X49800Y-37900D01*
X48900Y-34700D02*
X48900Y-37000D01*
X49800Y-37900D02*
X50400Y-37900D01*
G54D22*
X56100Y-32000D02*
X56100Y-31900D01*
X54600Y-30400D02*
X51400Y-30400D01*
X56100Y-31900D02*
X54600Y-30400D01*
X59300Y-36300D02*
X59100Y-36300D01*
X56100Y-33300D02*
X56100Y-32000D01*
X56100Y-32000D02*
X56100Y-31900D01*
X59100Y-36300D02*
X56100Y-33300D01*
X65300Y-34700D02*
X65300Y-34100D01*
X67800Y-31600D02*
X67800Y-30400D01*
X65300Y-34100D02*
X67800Y-31600D01*
G54D23*
X65300Y-37000D02*
X66200Y-37900D01*
X65300Y-34700D02*
X65300Y-37000D01*
X66200Y-37900D02*
X66800Y-37900D01*
G54D22*
X72500Y-32000D02*
X72500Y-31900D01*
X71000Y-30400D02*
X67800Y-30400D01*
X72500Y-31900D02*
X71000Y-30400D01*
X75700Y-36300D02*
X75500Y-36300D01*
X72500Y-33300D02*
X72500Y-32000D01*
X72500Y-32000D02*
X72500Y-31900D01*
X75500Y-36300D02*
X72500Y-33300D01*
X81600Y-34600D02*
X81600Y-34000D01*
X84100Y-31500D02*
X84100Y-30300D01*
X81600Y-34000D02*
X84100Y-31500D01*
G54D23*
X81600Y-36900D02*
X82500Y-37800D01*
X81600Y-34600D02*
X81600Y-36900D01*
X82500Y-37800D02*
X83100Y-37800D01*
G54D22*
X88800Y-31900D02*
X88800Y-31800D01*
X87300Y-30300D02*
X84100Y-30300D01*
X88800Y-31800D02*
X87300Y-30300D01*
X92000Y-36200D02*
X91800Y-36200D01*
X88800Y-33200D02*
X88800Y-31900D01*
X88800Y-31900D02*
X88800Y-31800D01*
X91800Y-36200D02*
X88800Y-33200D01*
X16100Y-34900D02*
X16100Y-34300D01*
X18600Y-31800D02*
X18600Y-30600D01*
X16100Y-34300D02*
X18600Y-31800D01*
G54D23*
X16100Y-37200D02*
X17000Y-38100D01*
X16100Y-34900D02*
X16100Y-37200D01*
X17000Y-38100D02*
X17600Y-38100D01*
G54D22*
X23300Y-32200D02*
X23300Y-32100D01*
X21800Y-30600D02*
X18600Y-30600D01*
X23300Y-32100D02*
X21800Y-30600D01*
X26500Y-36500D02*
X26300Y-36500D01*
X23300Y-33500D02*
X23300Y-32200D01*
X23300Y-32200D02*
X23300Y-32100D01*
X26300Y-36500D02*
X23300Y-33500D01*
X34200Y-31000D02*
X34200Y-30000D01*
X34200Y-30000D02*
X34500Y-29700D01*
X31900Y-34400D02*
X31900Y-34000D01*
X34200Y-31700D02*
X34200Y-31000D01*
X31900Y-34000D02*
X34200Y-31700D01*
X42900Y-35400D02*
X42600Y-35400D01*
X42600Y-35400D02*
X40500Y-33300D01*
X40500Y-33300D02*
X40500Y-31800D01*
X40500Y-31800D02*
X38400Y-29700D01*
X38400Y-29700D02*
X34500Y-29700D01*
G54D23*
X31900Y-34400D02*
X31900Y-37800D01*
X31900Y-37800D02*
X33100Y-39000D01*
X33100Y-39000D02*
X34000Y-39000D01*
G54D22*
X50600Y-30900D02*
X50600Y-29900D01*
X50600Y-29900D02*
X50900Y-29600D01*
X48300Y-34300D02*
X48300Y-33900D01*
X50600Y-31600D02*
X50600Y-30900D01*
X48300Y-33900D02*
X50600Y-31600D01*
X59300Y-35300D02*
X59000Y-35300D01*
X59000Y-35300D02*
X56900Y-33200D01*
X56900Y-33200D02*
X56900Y-31700D01*
X56900Y-31700D02*
X54800Y-29600D01*
X54800Y-29600D02*
X50900Y-29600D01*
G54D23*
X48300Y-34300D02*
X48300Y-37700D01*
X48300Y-37700D02*
X49500Y-38900D01*
X49500Y-38900D02*
X50400Y-38900D01*
G54D22*
X67000Y-30900D02*
X67000Y-29900D01*
X67000Y-29900D02*
X67300Y-29600D01*
X64700Y-34300D02*
X64700Y-33900D01*
X67000Y-31600D02*
X67000Y-30900D01*
X64700Y-33900D02*
X67000Y-31600D01*
X75700Y-35300D02*
X75400Y-35300D01*
X75400Y-35300D02*
X73300Y-33200D01*
X73300Y-33200D02*
X73300Y-31700D01*
X73300Y-31700D02*
X71200Y-29600D01*
X71200Y-29600D02*
X67300Y-29600D01*
G54D23*
X64700Y-34300D02*
X64700Y-37700D01*
X64700Y-37700D02*
X65900Y-38900D01*
X65900Y-38900D02*
X66800Y-38900D01*
G54D22*
X83300Y-30800D02*
X83300Y-29800D01*
X83300Y-29800D02*
X83600Y-29500D01*
X81000Y-34200D02*
X81000Y-33800D01*
X83300Y-31500D02*
X83300Y-30800D01*
X81000Y-33800D02*
X83300Y-31500D01*
X92000Y-35200D02*
X91700Y-35200D01*
X91700Y-35200D02*
X89600Y-33100D01*
X89600Y-33100D02*
X89600Y-31600D01*
X89600Y-31600D02*
X87500Y-29500D01*
X87500Y-29500D02*
X83600Y-29500D01*
G54D23*
X81000Y-34200D02*
X81000Y-37600D01*
X81000Y-37600D02*
X82200Y-38800D01*
X82200Y-38800D02*
X83100Y-38800D01*
G54D22*
X17800Y-31100D02*
X17800Y-30100D01*
X17800Y-30100D02*
X18100Y-29800D01*
X15500Y-34500D02*
X15500Y-34100D01*
X17800Y-31800D02*
X17800Y-31100D01*
X15500Y-34100D02*
X17800Y-31800D01*
X26500Y-35500D02*
X26200Y-35500D01*
X26200Y-35500D02*
X24100Y-33400D01*
X24100Y-33400D02*
X24100Y-31900D01*
X24100Y-31900D02*
X22000Y-29800D01*
X22000Y-29800D02*
X18100Y-29800D01*
G54D23*
X15500Y-34500D02*
X15500Y-37900D01*
X15500Y-37900D02*
X16700Y-39100D01*
X16700Y-39100D02*
X17600Y-39100D01*
G54D24*
X42900Y-47400D02*
X41000Y-47400D01*
X38600Y-45000D02*
X37000Y-45000D01*
X41000Y-47400D02*
X38600Y-45000D01*
X59300Y-47300D02*
X57400Y-47300D01*
X55000Y-44900D02*
X53400Y-44900D01*
X57400Y-47300D02*
X55000Y-44900D01*
X75700Y-47300D02*
X73800Y-47300D01*
X71400Y-44900D02*
X69800Y-44900D01*
X73800Y-47300D02*
X71400Y-44900D01*
X92000Y-47200D02*
X90100Y-47200D01*
X87700Y-44800D02*
X86100Y-44800D01*
X90100Y-47200D02*
X87700Y-44800D01*
X26500Y-47500D02*
X24600Y-47500D01*
X22200Y-45100D02*
X20600Y-45100D01*
X24600Y-47500D02*
X22200Y-45100D01*
X42900Y-46400D02*
X41200Y-46400D01*
X38800Y-44000D02*
X37000Y-44000D01*
X41200Y-46400D02*
X38800Y-44000D01*
X59300Y-46300D02*
X57600Y-46300D01*
X55200Y-43900D02*
X53400Y-43900D01*
X57600Y-46300D02*
X55200Y-43900D01*
X75700Y-46300D02*
X74000Y-46300D01*
X71600Y-43900D02*
X69800Y-43900D01*
X74000Y-46300D02*
X71600Y-43900D01*
X92000Y-46200D02*
X90300Y-46200D01*
X87900Y-43800D02*
X86100Y-43800D01*
X90300Y-46200D02*
X87900Y-43800D01*
X26500Y-46500D02*
X24800Y-46500D01*
X22400Y-44100D02*
X20600Y-44100D01*
X24800Y-46500D02*
X22400Y-44100D01*
X42900Y-45400D02*
X41400Y-45400D01*
X39000Y-43000D02*
X37000Y-43000D01*
X41400Y-45400D02*
X39000Y-43000D01*
X59300Y-45300D02*
X57800Y-45300D01*
X55400Y-42900D02*
X53400Y-42900D01*
X57800Y-45300D02*
X55400Y-42900D01*
X75700Y-45300D02*
X74200Y-45300D01*
X71800Y-42900D02*
X69800Y-42900D01*
X74200Y-45300D02*
X71800Y-42900D01*
X92000Y-45200D02*
X90500Y-45200D01*
X88100Y-42800D02*
X86100Y-42800D01*
X90500Y-45200D02*
X88100Y-42800D01*
X26500Y-45500D02*
X25000Y-45500D01*
X22600Y-43100D02*
X20600Y-43100D01*
X25000Y-45500D02*
X22600Y-43100D01*
X42900Y-44400D02*
X41400Y-44400D01*
G54D23*
X37600Y-38000D02*
X37000Y-38000D01*
X38100Y-38500D02*
X37600Y-38000D01*
X38100Y-41900D02*
X38100Y-38500D01*
G54D24*
X38500Y-42300D02*
X38100Y-41900D01*
X39300Y-42300D02*
X38500Y-42300D01*
X41400Y-44400D02*
X39300Y-42300D01*
X59300Y-44300D02*
X57800Y-44300D01*
G54D23*
X54000Y-37900D02*
X53400Y-37900D01*
X54500Y-38400D02*
X54000Y-37900D01*
X54500Y-41800D02*
X54500Y-38400D01*
G54D24*
X54900Y-42200D02*
X54500Y-41800D01*
X55700Y-42200D02*
X54900Y-42200D01*
X57800Y-44300D02*
X55700Y-42200D01*
X75700Y-44300D02*
X74200Y-44300D01*
G54D23*
X70400Y-37900D02*
X69800Y-37900D01*
X70900Y-38400D02*
X70400Y-37900D01*
X70900Y-41800D02*
X70900Y-38400D01*
G54D24*
X71300Y-42200D02*
X70900Y-41800D01*
X72100Y-42200D02*
X71300Y-42200D01*
X74200Y-44300D02*
X72100Y-42200D01*
X92000Y-44200D02*
X90500Y-44200D01*
G54D23*
X86700Y-37800D02*
X86100Y-37800D01*
X87200Y-38300D02*
X86700Y-37800D01*
X87200Y-41700D02*
X87200Y-38300D01*
G54D24*
X87600Y-42100D02*
X87200Y-41700D01*
X88400Y-42100D02*
X87600Y-42100D01*
X90500Y-44200D02*
X88400Y-42100D01*
X26500Y-44500D02*
X25000Y-44500D01*
G54D23*
X21200Y-38100D02*
X20600Y-38100D01*
X21700Y-38600D02*
X21200Y-38100D01*
X21700Y-42000D02*
X21700Y-38600D01*
G54D24*
X22100Y-42400D02*
X21700Y-42000D01*
X22900Y-42400D02*
X22100Y-42400D01*
X25000Y-44500D02*
X22900Y-42400D01*
X42900Y-43400D02*
X41800Y-43400D01*
G54D23*
X38000Y-37000D02*
X37000Y-37000D01*
X38700Y-37700D02*
X38000Y-37000D01*
X38700Y-41300D02*
X38700Y-37700D01*
G54D24*
X39100Y-41700D02*
X38700Y-41300D01*
X40100Y-41700D02*
X39100Y-41700D01*
X41800Y-43400D02*
X40100Y-41700D01*
X59300Y-43300D02*
X58200Y-43300D01*
G54D23*
X54400Y-36900D02*
X53400Y-36900D01*
X55100Y-37600D02*
X54400Y-36900D01*
X55100Y-41200D02*
X55100Y-37600D01*
G54D24*
X55500Y-41600D02*
X55100Y-41200D01*
X56500Y-41600D02*
X55500Y-41600D01*
X58200Y-43300D02*
X56500Y-41600D01*
X75700Y-43300D02*
X74600Y-43300D01*
G54D23*
X70800Y-36900D02*
X69800Y-36900D01*
X71500Y-37600D02*
X70800Y-36900D01*
X71500Y-41200D02*
X71500Y-37600D01*
G54D24*
X71900Y-41600D02*
X71500Y-41200D01*
X72900Y-41600D02*
X71900Y-41600D01*
X74600Y-43300D02*
X72900Y-41600D01*
X92000Y-43200D02*
X90900Y-43200D01*
G54D23*
X87100Y-36800D02*
X86100Y-36800D01*
X87800Y-37500D02*
X87100Y-36800D01*
X87800Y-41100D02*
X87800Y-37500D01*
G54D24*
X88200Y-41500D02*
X87800Y-41100D01*
X89200Y-41500D02*
X88200Y-41500D01*
X90900Y-43200D02*
X89200Y-41500D01*
X26500Y-43500D02*
X25400Y-43500D01*
G54D23*
X21600Y-37100D02*
X20600Y-37100D01*
X22300Y-37800D02*
X21600Y-37100D01*
X22300Y-41400D02*
X22300Y-37800D01*
G54D24*
X22700Y-41800D02*
X22300Y-41400D01*
X23700Y-41800D02*
X22700Y-41800D01*
X25400Y-43500D02*
X23700Y-41800D01*
X42900Y-42400D02*
X42000Y-42400D01*
G54D23*
X38200Y-36000D02*
X37000Y-36000D01*
X40300Y-38100D02*
X38200Y-36000D01*
X40300Y-40700D02*
X40300Y-38100D01*
G54D24*
X42000Y-42400D02*
X40300Y-40700D01*
X59300Y-42300D02*
X58400Y-42300D01*
G54D23*
X54600Y-35900D02*
X53400Y-35900D01*
X56700Y-38000D02*
X54600Y-35900D01*
X56700Y-40600D02*
X56700Y-38000D01*
G54D24*
X58400Y-42300D02*
X56700Y-40600D01*
X75700Y-42300D02*
X74800Y-42300D01*
G54D23*
X71000Y-35900D02*
X69800Y-35900D01*
X73100Y-38000D02*
X71000Y-35900D01*
X73100Y-40600D02*
X73100Y-38000D01*
G54D24*
X74800Y-42300D02*
X73100Y-40600D01*
X92000Y-42200D02*
X91100Y-42200D01*
G54D23*
X87300Y-35800D02*
X86100Y-35800D01*
X89400Y-37900D02*
X87300Y-35800D01*
X89400Y-40500D02*
X89400Y-37900D01*
G54D24*
X91100Y-42200D02*
X89400Y-40500D01*
X26500Y-42500D02*
X25600Y-42500D01*
G54D23*
X21800Y-36100D02*
X20600Y-36100D01*
X23900Y-38200D02*
X21800Y-36100D01*
X23900Y-40800D02*
X23900Y-38200D01*
G54D24*
X25600Y-42500D02*
X23900Y-40800D01*
G54D23*
X42900Y-40400D02*
X41400Y-40400D01*
X38200Y-35000D02*
X37000Y-35000D01*
X40900Y-37700D02*
X38200Y-35000D01*
X40900Y-39900D02*
X40900Y-37700D01*
X41400Y-40400D02*
X40900Y-39900D01*
X59300Y-40300D02*
X57800Y-40300D01*
X54600Y-34900D02*
X53400Y-34900D01*
X57300Y-37600D02*
X54600Y-34900D01*
X57300Y-39800D02*
X57300Y-37600D01*
X57800Y-40300D02*
X57300Y-39800D01*
X75700Y-40300D02*
X74200Y-40300D01*
X71000Y-34900D02*
X69800Y-34900D01*
X73700Y-37600D02*
X71000Y-34900D01*
X73700Y-39800D02*
X73700Y-37600D01*
X74200Y-40300D02*
X73700Y-39800D01*
X92000Y-40200D02*
X90500Y-40200D01*
X87300Y-34800D02*
X86100Y-34800D01*
X90000Y-37500D02*
X87300Y-34800D01*
X90000Y-39700D02*
X90000Y-37500D01*
X90500Y-40200D02*
X90000Y-39700D01*
X26500Y-40500D02*
X25000Y-40500D01*
X21800Y-35100D02*
X20600Y-35100D01*
X24500Y-37800D02*
X21800Y-35100D01*
X24500Y-40000D02*
X24500Y-37800D01*
X25000Y-40500D02*
X24500Y-40000D01*
X42900Y-39400D02*
X41800Y-39400D01*
X34600Y-35000D02*
X34000Y-35000D01*
X35500Y-34100D02*
X34600Y-35000D01*
X38300Y-34100D02*
X35500Y-34100D01*
X41500Y-37300D02*
X38300Y-34100D01*
X41500Y-39100D02*
X41500Y-37300D01*
X41800Y-39400D02*
X41500Y-39100D01*
X59300Y-39300D02*
X58200Y-39300D01*
X51000Y-34900D02*
X50400Y-34900D01*
X51900Y-34000D02*
X51000Y-34900D01*
X54700Y-34000D02*
X51900Y-34000D01*
X57900Y-37200D02*
X54700Y-34000D01*
X57900Y-39000D02*
X57900Y-37200D01*
X58200Y-39300D02*
X57900Y-39000D01*
X75700Y-39300D02*
X74600Y-39300D01*
X67400Y-34900D02*
X66800Y-34900D01*
X68300Y-34000D02*
X67400Y-34900D01*
X71100Y-34000D02*
X68300Y-34000D01*
X74300Y-37200D02*
X71100Y-34000D01*
X74300Y-39000D02*
X74300Y-37200D01*
X74600Y-39300D02*
X74300Y-39000D01*
X92000Y-39200D02*
X90900Y-39200D01*
X83700Y-34800D02*
X83100Y-34800D01*
X84600Y-33900D02*
X83700Y-34800D01*
X87400Y-33900D02*
X84600Y-33900D01*
X90600Y-37100D02*
X87400Y-33900D01*
X90600Y-38900D02*
X90600Y-37100D01*
X90900Y-39200D02*
X90600Y-38900D01*
X26500Y-39500D02*
X25400Y-39500D01*
X18200Y-35100D02*
X17600Y-35100D01*
X19100Y-34200D02*
X18200Y-35100D01*
X21900Y-34200D02*
X19100Y-34200D01*
X25100Y-37400D02*
X21900Y-34200D01*
X25100Y-39200D02*
X25100Y-37400D01*
X25400Y-39500D02*
X25100Y-39200D01*
G54D24*
X34000Y-43000D02*
X31900Y-43000D01*
X30500Y-44400D02*
X28900Y-44400D01*
X31900Y-43000D02*
X30500Y-44400D01*
X50400Y-42900D02*
X48300Y-42900D01*
X46900Y-44300D02*
X45300Y-44300D01*
X48300Y-42900D02*
X46900Y-44300D01*
X66800Y-42900D02*
X64700Y-42900D01*
X63300Y-44300D02*
X61700Y-44300D01*
X64700Y-42900D02*
X63300Y-44300D01*
X83100Y-42800D02*
X81000Y-42800D01*
X79600Y-44200D02*
X78000Y-44200D01*
X81000Y-42800D02*
X79600Y-44200D01*
X17600Y-43100D02*
X15500Y-43100D01*
X14100Y-44500D02*
X12500Y-44500D01*
X15500Y-43100D02*
X14100Y-44500D01*
X34000Y-44000D02*
X31900Y-44000D01*
X30500Y-45400D02*
X28900Y-45400D01*
X31900Y-44000D02*
X30500Y-45400D01*
X50400Y-43900D02*
X48300Y-43900D01*
X46900Y-45300D02*
X45300Y-45300D01*
X48300Y-43900D02*
X46900Y-45300D01*
X66800Y-43900D02*
X64700Y-43900D01*
X63300Y-45300D02*
X61700Y-45300D01*
X64700Y-43900D02*
X63300Y-45300D01*
X83100Y-43800D02*
X81000Y-43800D01*
X79600Y-45200D02*
X78000Y-45200D01*
X81000Y-43800D02*
X79600Y-45200D01*
X17600Y-44100D02*
X15500Y-44100D01*
X14100Y-45500D02*
X12500Y-45500D01*
X15500Y-44100D02*
X14100Y-45500D01*
X34000Y-45000D02*
X32000Y-45000D01*
X30600Y-46400D02*
X28900Y-46400D01*
X32000Y-45000D02*
X30600Y-46400D01*
X50400Y-44900D02*
X48400Y-44900D01*
X47000Y-46300D02*
X45300Y-46300D01*
X48400Y-44900D02*
X47000Y-46300D01*
X66800Y-44900D02*
X64800Y-44900D01*
X63400Y-46300D02*
X61700Y-46300D01*
X64800Y-44900D02*
X63400Y-46300D01*
X83100Y-44800D02*
X81100Y-44800D01*
X79700Y-46200D02*
X78000Y-46200D01*
X81100Y-44800D02*
X79700Y-46200D01*
X17600Y-45100D02*
X15600Y-45100D01*
X14200Y-46500D02*
X12500Y-46500D01*
X15600Y-45100D02*
X14200Y-46500D01*
X34000Y-46000D02*
X31900Y-46000D01*
X30500Y-47400D02*
X28900Y-47400D01*
X31900Y-46000D02*
X30500Y-47400D01*
X50400Y-45900D02*
X48300Y-45900D01*
X46900Y-47300D02*
X45300Y-47300D01*
X48300Y-45900D02*
X46900Y-47300D01*
X66800Y-45900D02*
X64700Y-45900D01*
X63300Y-47300D02*
X61700Y-47300D01*
X64700Y-45900D02*
X63300Y-47300D01*
X83100Y-45800D02*
X81000Y-45800D01*
X79600Y-47200D02*
X78000Y-47200D01*
X81000Y-45800D02*
X79600Y-47200D01*
X17600Y-46100D02*
X15500Y-46100D01*
X14100Y-47500D02*
X12500Y-47500D01*
X15500Y-46100D02*
X14100Y-47500D01*
G54D22*
X30700Y-34500D02*
X30700Y-33600D01*
X32300Y-32000D02*
X32300Y-30600D01*
X30700Y-33600D02*
X32300Y-32000D01*
X42900Y-34400D02*
X42500Y-34400D01*
X42500Y-34400D02*
X41000Y-32900D01*
X41000Y-32900D02*
X41000Y-31400D01*
X41000Y-31400D02*
X38700Y-29100D01*
X38700Y-29100D02*
X33800Y-29100D01*
X33800Y-29100D02*
X32300Y-30600D01*
X32500Y-40850D02*
X31650Y-40850D01*
X31650Y-40850D02*
X30700Y-39900D01*
X30700Y-39900D02*
X30700Y-34500D01*
G54D24*
X34000Y-41000D02*
X32650Y-41000D01*
X32650Y-41000D02*
X32500Y-40850D01*
G54D22*
X47100Y-34400D02*
X47100Y-33500D01*
X48700Y-31900D02*
X48700Y-30500D01*
X47100Y-33500D02*
X48700Y-31900D01*
X59300Y-34300D02*
X58900Y-34300D01*
X58900Y-34300D02*
X57400Y-32800D01*
X57400Y-32800D02*
X57400Y-31300D01*
X57400Y-31300D02*
X55100Y-29000D01*
X55100Y-29000D02*
X50200Y-29000D01*
X50200Y-29000D02*
X48700Y-30500D01*
X48900Y-40750D02*
X48050Y-40750D01*
X48050Y-40750D02*
X47100Y-39800D01*
X47100Y-39800D02*
X47100Y-34400D01*
G54D24*
X50400Y-40900D02*
X49050Y-40900D01*
X49050Y-40900D02*
X48900Y-40750D01*
G54D22*
X63500Y-34400D02*
X63500Y-33500D01*
X65100Y-31900D02*
X65100Y-30500D01*
X63500Y-33500D02*
X65100Y-31900D01*
X75700Y-34300D02*
X75300Y-34300D01*
X75300Y-34300D02*
X73800Y-32800D01*
X73800Y-32800D02*
X73800Y-31300D01*
X73800Y-31300D02*
X71500Y-29000D01*
X71500Y-29000D02*
X66600Y-29000D01*
X66600Y-29000D02*
X65100Y-30500D01*
X65300Y-40750D02*
X64450Y-40750D01*
X64450Y-40750D02*
X63500Y-39800D01*
X63500Y-39800D02*
X63500Y-34400D01*
G54D24*
X66800Y-40900D02*
X65450Y-40900D01*
X65450Y-40900D02*
X65300Y-40750D01*
G54D22*
X79800Y-34300D02*
X79800Y-33400D01*
X81400Y-31800D02*
X81400Y-30400D01*
X79800Y-33400D02*
X81400Y-31800D01*
X92000Y-34200D02*
X91600Y-34200D01*
X91600Y-34200D02*
X90100Y-32700D01*
X90100Y-32700D02*
X90100Y-31200D01*
X90100Y-31200D02*
X87800Y-28900D01*
X87800Y-28900D02*
X82900Y-28900D01*
X82900Y-28900D02*
X81400Y-30400D01*
X81600Y-40650D02*
X80750Y-40650D01*
X80750Y-40650D02*
X79800Y-39700D01*
X79800Y-39700D02*
X79800Y-34300D01*
G54D24*
X83100Y-40800D02*
X81750Y-40800D01*
X81750Y-40800D02*
X81600Y-40650D01*
G54D22*
X14300Y-34600D02*
X14300Y-33700D01*
X15900Y-32100D02*
X15900Y-30700D01*
X14300Y-33700D02*
X15900Y-32100D01*
X26500Y-34500D02*
X26100Y-34500D01*
X26100Y-34500D02*
X24600Y-33000D01*
X24600Y-33000D02*
X24600Y-31500D01*
X24600Y-31500D02*
X22300Y-29200D01*
X22300Y-29200D02*
X17400Y-29200D01*
X17400Y-29200D02*
X15900Y-30700D01*
X16100Y-40950D02*
X15250Y-40950D01*
X15250Y-40950D02*
X14300Y-40000D01*
X14300Y-40000D02*
X14300Y-34600D01*
G54D24*
X17600Y-41100D02*
X16250Y-41100D01*
X16250Y-41100D02*
X16100Y-40950D01*
G54D22*
X36400Y-26600D02*
X36400Y-26900D01*
X33000Y-28100D02*
X32400Y-27500D01*
X35200Y-28100D02*
X33000Y-28100D01*
X36400Y-26900D02*
X35200Y-28100D01*
G54D23*
X28700Y-26496D02*
X28700Y-27500D01*
X28700Y-27500D02*
X29200Y-28000D01*
G54D22*
X30600Y-29400D02*
X30600Y-30400D01*
G54D23*
X30600Y-29400D02*
X29200Y-28000D01*
G54D22*
X29900Y-33000D02*
X29900Y-32900D01*
X29400Y-41400D02*
X29900Y-40900D01*
X29900Y-40900D02*
X29900Y-33000D01*
X28900Y-41400D02*
X29400Y-41400D01*
X30600Y-32200D02*
X30600Y-30400D01*
X30600Y-30400D02*
X30600Y-30100D01*
X29900Y-32900D02*
X30600Y-32200D01*
X52800Y-26500D02*
X52800Y-26800D01*
X49400Y-28000D02*
X48800Y-27400D01*
X51600Y-28000D02*
X49400Y-28000D01*
X52800Y-26800D02*
X51600Y-28000D01*
G54D23*
X45100Y-26396D02*
X45100Y-27400D01*
X45100Y-27400D02*
X45600Y-27900D01*
G54D22*
X47000Y-29300D02*
X47000Y-30300D01*
G54D23*
X47000Y-29300D02*
X45600Y-27900D01*
G54D22*
X46300Y-32900D02*
X46300Y-32800D01*
X45800Y-41300D02*
X46300Y-40800D01*
X46300Y-40800D02*
X46300Y-32900D01*
X45300Y-41300D02*
X45800Y-41300D01*
X47000Y-32100D02*
X47000Y-30300D01*
X47000Y-30300D02*
X47000Y-30000D01*
X46300Y-32800D02*
X47000Y-32100D01*
X69200Y-26500D02*
X69200Y-26800D01*
X65800Y-28000D02*
X65200Y-27400D01*
X68000Y-28000D02*
X65800Y-28000D01*
X69200Y-26800D02*
X68000Y-28000D01*
G54D23*
X61500Y-26396D02*
X61500Y-27400D01*
X61500Y-27400D02*
X62000Y-27900D01*
G54D22*
X63400Y-29300D02*
X63400Y-30300D01*
G54D23*
X63400Y-29300D02*
X62000Y-27900D01*
G54D22*
X62700Y-32900D02*
X62700Y-32800D01*
X62200Y-41300D02*
X62700Y-40800D01*
X62700Y-40800D02*
X62700Y-32900D01*
X61700Y-41300D02*
X62200Y-41300D01*
X63400Y-32100D02*
X63400Y-30300D01*
X63400Y-30300D02*
X63400Y-30000D01*
X62700Y-32800D02*
X63400Y-32100D01*
X85500Y-26400D02*
X85500Y-26700D01*
X82100Y-27900D02*
X81500Y-27300D01*
X84300Y-27900D02*
X82100Y-27900D01*
X85500Y-26700D02*
X84300Y-27900D01*
G54D23*
X77800Y-26296D02*
X77800Y-27300D01*
X77800Y-27300D02*
X78300Y-27800D01*
G54D22*
X79700Y-29200D02*
X79700Y-30200D01*
G54D23*
X79700Y-29200D02*
X78300Y-27800D01*
G54D22*
X79000Y-32800D02*
X79000Y-32700D01*
X78500Y-41200D02*
X79000Y-40700D01*
X79000Y-40700D02*
X79000Y-32800D01*
X78000Y-41200D02*
X78500Y-41200D01*
X79700Y-32000D02*
X79700Y-30200D01*
X79700Y-30200D02*
X79700Y-29900D01*
X79000Y-32700D02*
X79700Y-32000D01*
X20000Y-26700D02*
X20000Y-27000D01*
X16600Y-28200D02*
X16000Y-27600D01*
X18800Y-28200D02*
X16600Y-28200D01*
X20000Y-27000D02*
X18800Y-28200D01*
G54D23*
X12300Y-26596D02*
X12300Y-27600D01*
X12300Y-27600D02*
X12800Y-28100D01*
G54D22*
X14200Y-29500D02*
X14200Y-30500D01*
G54D23*
X14200Y-29500D02*
X12800Y-28100D01*
G54D22*
X13500Y-33100D02*
X13500Y-33000D01*
X13000Y-41500D02*
X13500Y-41000D01*
X13500Y-41000D02*
X13500Y-33100D01*
X12500Y-41500D02*
X13000Y-41500D01*
X14200Y-32300D02*
X14200Y-30500D01*
X14200Y-30500D02*
X14200Y-30200D01*
X13500Y-33000D02*
X14200Y-32300D01*
X29400Y-30400D02*
X28900Y-30400D01*
X30100Y-31100D02*
X29400Y-30400D01*
X30100Y-31900D02*
X30100Y-31100D01*
X29900Y-32100D02*
X30100Y-31900D01*
G54D24*
X42900Y-49400D02*
X40400Y-49400D01*
X38000Y-47000D02*
X37000Y-47000D01*
X40400Y-49400D02*
X38000Y-47000D01*
G54D22*
X45800Y-30300D02*
X45300Y-30300D01*
X46500Y-31000D02*
X45800Y-30300D01*
X46500Y-31800D02*
X46500Y-31000D01*
X46300Y-32000D02*
X46500Y-31800D01*
G54D24*
X59300Y-49300D02*
X56800Y-49300D01*
X54400Y-46900D02*
X53400Y-46900D01*
X56800Y-49300D02*
X54400Y-46900D01*
G54D22*
X62200Y-30300D02*
X61700Y-30300D01*
X62900Y-31000D02*
X62200Y-30300D01*
X62900Y-31800D02*
X62900Y-31000D01*
X62700Y-32000D02*
X62900Y-31800D01*
G54D24*
X75700Y-49300D02*
X73200Y-49300D01*
X70800Y-46900D02*
X69800Y-46900D01*
X73200Y-49300D02*
X70800Y-46900D01*
G54D22*
X78500Y-30200D02*
X78000Y-30200D01*
X79200Y-30900D02*
X78500Y-30200D01*
X79200Y-31700D02*
X79200Y-30900D01*
X79000Y-31900D02*
X79200Y-31700D01*
G54D24*
X92000Y-49200D02*
X89500Y-49200D01*
X87100Y-46800D02*
X86100Y-46800D01*
X89500Y-49200D02*
X87100Y-46800D01*
G54D22*
X13000Y-30500D02*
X12500Y-30500D01*
X13700Y-31200D02*
X13000Y-30500D01*
X13700Y-32000D02*
X13700Y-31200D01*
X13500Y-32200D02*
X13700Y-32000D01*
G54D24*
X26500Y-49500D02*
X24000Y-49500D01*
X21600Y-47100D02*
X20600Y-47100D01*
X24000Y-49500D02*
X21600Y-47100D01*
X34000Y-48000D02*
X31900Y-48000D01*
X30500Y-49400D02*
X28900Y-49400D01*
X31900Y-48000D02*
X30500Y-49400D01*
X50400Y-47900D02*
X48300Y-47900D01*
X46900Y-49300D02*
X45300Y-49300D01*
X48300Y-47900D02*
X46900Y-49300D01*
X66800Y-47900D02*
X64700Y-47900D01*
X63300Y-49300D02*
X61700Y-49300D01*
X64700Y-47900D02*
X63300Y-49300D01*
X83100Y-47800D02*
X81000Y-47800D01*
X79600Y-49200D02*
X78000Y-49200D01*
X81000Y-47800D02*
X79600Y-49200D01*
X17600Y-48100D02*
X15500Y-48100D01*
X14100Y-49500D02*
X12500Y-49500D01*
X15500Y-48100D02*
X14100Y-49500D01*
X34000Y-47000D02*
X31900Y-47000D01*
X30500Y-48400D02*
X28900Y-48400D01*
X31900Y-47000D02*
X30500Y-48400D01*
X50400Y-46900D02*
X48300Y-46900D01*
X46900Y-48300D02*
X45300Y-48300D01*
X48300Y-46900D02*
X46900Y-48300D01*
X66800Y-46900D02*
X64700Y-46900D01*
X63300Y-48300D02*
X61700Y-48300D01*
X64700Y-46900D02*
X63300Y-48300D01*
X83100Y-46800D02*
X81000Y-46800D01*
X79600Y-48200D02*
X78000Y-48200D01*
X81000Y-46800D02*
X79600Y-48200D01*
X17600Y-47100D02*
X15500Y-47100D01*
X14100Y-48500D02*
X12500Y-48500D01*
X15500Y-47100D02*
X14100Y-48500D01*
X42900Y-48400D02*
X40600Y-48400D01*
X38200Y-46000D02*
X37000Y-46000D01*
X40600Y-48400D02*
X38200Y-46000D01*
X59300Y-48300D02*
X57000Y-48300D01*
X54600Y-45900D02*
X53400Y-45900D01*
X57000Y-48300D02*
X54600Y-45900D01*
X75700Y-48300D02*
X73400Y-48300D01*
X71000Y-45900D02*
X69800Y-45900D01*
X73400Y-48300D02*
X71000Y-45900D01*
X92000Y-48200D02*
X89700Y-48200D01*
X87300Y-45800D02*
X86100Y-45800D01*
X89700Y-48200D02*
X87300Y-45800D01*
X26500Y-48500D02*
X24200Y-48500D01*
X21800Y-46100D02*
X20600Y-46100D01*
X24200Y-48500D02*
X21800Y-46100D01*
G54D22*
X31300Y-33900D02*
X31300Y-38800D01*
X33200Y-40000D02*
X32800Y-39600D01*
X32800Y-39600D02*
X32100Y-39600D01*
X32100Y-39600D02*
X31300Y-38800D01*
X34000Y-40000D02*
X33200Y-40000D01*
X31300Y-33900D02*
X33100Y-32100D01*
X33100Y-32100D02*
X33100Y-31200D01*
X47700Y-33800D02*
X47700Y-38700D01*
X49600Y-39900D02*
X49200Y-39500D01*
X49200Y-39500D02*
X48500Y-39500D01*
X48500Y-39500D02*
X47700Y-38700D01*
X50400Y-39900D02*
X49600Y-39900D01*
X47700Y-33800D02*
X49500Y-32000D01*
X49500Y-32000D02*
X49500Y-31100D01*
X64100Y-33800D02*
X64100Y-38700D01*
X66000Y-39900D02*
X65600Y-39500D01*
X65600Y-39500D02*
X64900Y-39500D01*
X64900Y-39500D02*
X64100Y-38700D01*
X66800Y-39900D02*
X66000Y-39900D01*
X64100Y-33800D02*
X65900Y-32000D01*
X65900Y-32000D02*
X65900Y-31100D01*
X80400Y-33700D02*
X80400Y-38600D01*
X82300Y-39800D02*
X81900Y-39400D01*
X81900Y-39400D02*
X81200Y-39400D01*
X81200Y-39400D02*
X80400Y-38600D01*
X83100Y-39800D02*
X82300Y-39800D01*
X80400Y-33700D02*
X82200Y-31900D01*
X82200Y-31900D02*
X82200Y-31000D01*
X14900Y-34000D02*
X14900Y-38900D01*
X16800Y-40100D02*
X16400Y-39700D01*
X16400Y-39700D02*
X15700Y-39700D01*
X15700Y-39700D02*
X14900Y-38900D01*
X17600Y-40100D02*
X16800Y-40100D01*
X14900Y-34000D02*
X16700Y-32200D01*
X16700Y-32200D02*
X16700Y-31300D01*
G54D23*
X35400Y-25600D02*
X35400Y-24900D01*
X31696Y-25604D02*
X31696Y-26500D01*
X32800Y-24500D02*
X31696Y-25604D01*
X35000Y-24500D02*
X32800Y-24500D01*
X35400Y-24900D02*
X35000Y-24500D01*
X36400Y-25600D02*
X35400Y-25600D01*
X37400Y-25600D02*
X36400Y-25600D01*
X38400Y-25600D02*
X37400Y-25600D01*
X31650Y-29300D02*
X31650Y-26546D01*
X31650Y-26546D02*
X31696Y-26500D01*
G54D25*
X30300Y-39600D02*
X30300Y-33200D01*
X31800Y-42150D02*
X30300Y-40650D01*
X30300Y-40650D02*
X30300Y-39600D01*
X32500Y-42150D02*
X31800Y-42150D01*
G54D23*
X31650Y-31850D02*
X31650Y-29300D01*
G54D25*
X30300Y-33200D02*
X31650Y-31850D01*
G54D24*
X34000Y-42000D02*
X32650Y-42000D01*
X32650Y-42000D02*
X32500Y-42150D01*
X34000Y-42000D02*
X34900Y-42000D01*
X35900Y-41000D02*
X37000Y-41000D01*
X34900Y-42000D02*
X35900Y-41000D01*
G54D23*
X51800Y-25500D02*
X51800Y-24800D01*
X48096Y-25504D02*
X48096Y-26400D01*
X49200Y-24400D02*
X48096Y-25504D01*
X51400Y-24400D02*
X49200Y-24400D01*
X51800Y-24800D02*
X51400Y-24400D01*
X52800Y-25500D02*
X51800Y-25500D01*
X53800Y-25500D02*
X52800Y-25500D01*
X54800Y-25500D02*
X53800Y-25500D01*
X48050Y-29200D02*
X48050Y-26446D01*
X48050Y-26446D02*
X48096Y-26400D01*
G54D25*
X46700Y-39500D02*
X46700Y-33100D01*
X48200Y-42050D02*
X46700Y-40550D01*
X46700Y-40550D02*
X46700Y-39500D01*
X48900Y-42050D02*
X48200Y-42050D01*
G54D23*
X48050Y-31750D02*
X48050Y-29200D01*
G54D25*
X46700Y-33100D02*
X48050Y-31750D01*
G54D24*
X50400Y-41900D02*
X49050Y-41900D01*
X49050Y-41900D02*
X48900Y-42050D01*
X50400Y-41900D02*
X51300Y-41900D01*
X52300Y-40900D02*
X53400Y-40900D01*
X51300Y-41900D02*
X52300Y-40900D01*
G54D23*
X68200Y-25500D02*
X68200Y-24800D01*
X64496Y-25504D02*
X64496Y-26400D01*
X65600Y-24400D02*
X64496Y-25504D01*
X67800Y-24400D02*
X65600Y-24400D01*
X68200Y-24800D02*
X67800Y-24400D01*
X69200Y-25500D02*
X68200Y-25500D01*
X70200Y-25500D02*
X69200Y-25500D01*
X71200Y-25500D02*
X70200Y-25500D01*
X64450Y-29200D02*
X64450Y-26446D01*
X64450Y-26446D02*
X64496Y-26400D01*
G54D25*
X63100Y-39500D02*
X63100Y-33100D01*
X64600Y-42050D02*
X63100Y-40550D01*
X63100Y-40550D02*
X63100Y-39500D01*
X65300Y-42050D02*
X64600Y-42050D01*
G54D23*
X64450Y-31750D02*
X64450Y-29200D01*
G54D25*
X63100Y-33100D02*
X64450Y-31750D01*
G54D24*
X66800Y-41900D02*
X65450Y-41900D01*
X65450Y-41900D02*
X65300Y-42050D01*
X66800Y-41900D02*
X67700Y-41900D01*
X68700Y-40900D02*
X69800Y-40900D01*
X67700Y-41900D02*
X68700Y-40900D01*
G54D23*
X84500Y-25400D02*
X84500Y-24700D01*
X80796Y-25404D02*
X80796Y-26300D01*
X81900Y-24300D02*
X80796Y-25404D01*
X84100Y-24300D02*
X81900Y-24300D01*
X84500Y-24700D02*
X84100Y-24300D01*
X85500Y-25400D02*
X84500Y-25400D01*
X86500Y-25400D02*
X85500Y-25400D01*
X87500Y-25400D02*
X86500Y-25400D01*
X80750Y-29100D02*
X80750Y-26346D01*
X80750Y-26346D02*
X80796Y-26300D01*
G54D25*
X79400Y-39400D02*
X79400Y-33000D01*
X80900Y-41950D02*
X79400Y-40450D01*
X79400Y-40450D02*
X79400Y-39400D01*
X81600Y-41950D02*
X80900Y-41950D01*
G54D23*
X80750Y-31650D02*
X80750Y-29100D01*
G54D25*
X79400Y-33000D02*
X80750Y-31650D01*
G54D24*
X83100Y-41800D02*
X81750Y-41800D01*
X81750Y-41800D02*
X81600Y-41950D01*
X83100Y-41800D02*
X84000Y-41800D01*
X85000Y-40800D02*
X86100Y-40800D01*
X84000Y-41800D02*
X85000Y-40800D01*
G54D23*
X19000Y-25700D02*
X19000Y-25000D01*
X15296Y-25704D02*
X15296Y-26600D01*
X16400Y-24600D02*
X15296Y-25704D01*
X18600Y-24600D02*
X16400Y-24600D01*
X19000Y-25000D02*
X18600Y-24600D01*
X20000Y-25700D02*
X19000Y-25700D01*
X21000Y-25700D02*
X20000Y-25700D01*
X22000Y-25700D02*
X21000Y-25700D01*
X15250Y-29400D02*
X15250Y-26646D01*
X15250Y-26646D02*
X15296Y-26600D01*
G54D25*
X13900Y-39700D02*
X13900Y-33300D01*
X15400Y-42250D02*
X13900Y-40750D01*
X13900Y-40750D02*
X13900Y-39700D01*
X16100Y-42250D02*
X15400Y-42250D01*
G54D23*
X15250Y-31950D02*
X15250Y-29400D01*
G54D25*
X13900Y-33300D02*
X15250Y-31950D01*
G54D24*
X17600Y-42100D02*
X16250Y-42100D01*
X16250Y-42100D02*
X16100Y-42250D01*
X17600Y-42100D02*
X18500Y-42100D01*
X19500Y-41100D02*
X20600Y-41100D01*
X18500Y-42100D02*
X19500Y-41100D01*
M02*
