G04 (created by PCBNEW (2013-07-07 BZR 4022)-stable) date 5/4/2015 12:54:49 PM*
%MOIN*%
G04 Gerber Fmt 3.4, Leading zero omitted, Abs format*
%FSLAX34Y34*%
G01*
G70*
G90*
G04 APERTURE LIST*
%ADD10C,0.00590551*%
%ADD11C,0.011811*%
%ADD12C,0.01*%
%ADD13C,0.00393701*%
%ADD14C,0.012*%
%ADD15C,0.005*%
%ADD16C,0.0125*%
%ADD17C,0.015*%
%ADD18C,0.016*%
%ADD19C,0.008*%
%ADD20C,0.0035*%
G04 APERTURE END LIST*
G54D10*
G54D11*
X29735Y-43639D02*
X29735Y-43048D01*
X30073Y-43639D01*
X30073Y-43048D01*
X30692Y-43582D02*
X30664Y-43610D01*
X30579Y-43639D01*
X30523Y-43639D01*
X30439Y-43610D01*
X30382Y-43554D01*
X30354Y-43498D01*
X30326Y-43385D01*
X30326Y-43301D01*
X30354Y-43189D01*
X30382Y-43132D01*
X30439Y-43076D01*
X30523Y-43048D01*
X30579Y-43048D01*
X30664Y-43076D01*
X30692Y-43104D01*
X29735Y-42639D02*
X29735Y-42048D01*
X30073Y-42639D01*
X30073Y-42048D01*
X30692Y-42582D02*
X30664Y-42610D01*
X30579Y-42639D01*
X30523Y-42639D01*
X30439Y-42610D01*
X30382Y-42554D01*
X30354Y-42498D01*
X30326Y-42385D01*
X30326Y-42301D01*
X30354Y-42189D01*
X30382Y-42132D01*
X30439Y-42076D01*
X30523Y-42048D01*
X30579Y-42048D01*
X30664Y-42076D01*
X30692Y-42104D01*
X29735Y-40639D02*
X29735Y-40048D01*
X30073Y-40639D01*
X30073Y-40048D01*
X30692Y-40582D02*
X30664Y-40610D01*
X30579Y-40639D01*
X30523Y-40639D01*
X30439Y-40610D01*
X30382Y-40554D01*
X30354Y-40498D01*
X30326Y-40385D01*
X30326Y-40301D01*
X30354Y-40189D01*
X30382Y-40132D01*
X30439Y-40076D01*
X30523Y-40048D01*
X30579Y-40048D01*
X30664Y-40076D01*
X30692Y-40104D01*
X29735Y-39639D02*
X29735Y-39048D01*
X30073Y-39639D01*
X30073Y-39048D01*
X30692Y-39582D02*
X30664Y-39610D01*
X30579Y-39639D01*
X30523Y-39639D01*
X30439Y-39610D01*
X30382Y-39554D01*
X30354Y-39498D01*
X30326Y-39385D01*
X30326Y-39301D01*
X30354Y-39189D01*
X30382Y-39132D01*
X30439Y-39076D01*
X30523Y-39048D01*
X30579Y-39048D01*
X30664Y-39076D01*
X30692Y-39104D01*
X29735Y-38739D02*
X29735Y-38148D01*
X30073Y-38739D01*
X30073Y-38148D01*
X30692Y-38682D02*
X30664Y-38710D01*
X30579Y-38739D01*
X30523Y-38739D01*
X30439Y-38710D01*
X30382Y-38654D01*
X30354Y-38598D01*
X30326Y-38485D01*
X30326Y-38401D01*
X30354Y-38289D01*
X30382Y-38232D01*
X30439Y-38176D01*
X30523Y-38148D01*
X30579Y-38148D01*
X30664Y-38176D01*
X30692Y-38204D01*
X29735Y-37639D02*
X29735Y-37048D01*
X30073Y-37639D01*
X30073Y-37048D01*
X30692Y-37582D02*
X30664Y-37610D01*
X30579Y-37639D01*
X30523Y-37639D01*
X30439Y-37610D01*
X30382Y-37554D01*
X30354Y-37498D01*
X30326Y-37385D01*
X30326Y-37301D01*
X30354Y-37189D01*
X30382Y-37132D01*
X30439Y-37076D01*
X30523Y-37048D01*
X30579Y-37048D01*
X30664Y-37076D01*
X30692Y-37104D01*
X29735Y-36639D02*
X29735Y-36048D01*
X30073Y-36639D01*
X30073Y-36048D01*
X30692Y-36582D02*
X30664Y-36610D01*
X30579Y-36639D01*
X30523Y-36639D01*
X30439Y-36610D01*
X30382Y-36554D01*
X30354Y-36498D01*
X30326Y-36385D01*
X30326Y-36301D01*
X30354Y-36189D01*
X30382Y-36132D01*
X30439Y-36076D01*
X30523Y-36048D01*
X30579Y-36048D01*
X30664Y-36076D01*
X30692Y-36104D01*
X29735Y-35639D02*
X29735Y-35048D01*
X30073Y-35639D01*
X30073Y-35048D01*
X30692Y-35582D02*
X30664Y-35610D01*
X30579Y-35639D01*
X30523Y-35639D01*
X30439Y-35610D01*
X30382Y-35554D01*
X30354Y-35498D01*
X30326Y-35385D01*
X30326Y-35301D01*
X30354Y-35189D01*
X30382Y-35132D01*
X30439Y-35076D01*
X30523Y-35048D01*
X30579Y-35048D01*
X30664Y-35076D01*
X30692Y-35104D01*
X29735Y-34639D02*
X29735Y-34048D01*
X30073Y-34639D01*
X30073Y-34048D01*
X30692Y-34582D02*
X30664Y-34610D01*
X30579Y-34639D01*
X30523Y-34639D01*
X30439Y-34610D01*
X30382Y-34554D01*
X30354Y-34498D01*
X30326Y-34385D01*
X30326Y-34301D01*
X30354Y-34189D01*
X30382Y-34132D01*
X30439Y-34076D01*
X30523Y-34048D01*
X30579Y-34048D01*
X30664Y-34076D01*
X30692Y-34104D01*
X29735Y-33639D02*
X29735Y-33048D01*
X30073Y-33639D01*
X30073Y-33048D01*
X30692Y-33582D02*
X30664Y-33610D01*
X30579Y-33639D01*
X30523Y-33639D01*
X30439Y-33610D01*
X30382Y-33554D01*
X30354Y-33498D01*
X30326Y-33385D01*
X30326Y-33301D01*
X30354Y-33189D01*
X30382Y-33132D01*
X30439Y-33076D01*
X30523Y-33048D01*
X30579Y-33048D01*
X30664Y-33076D01*
X30692Y-33104D01*
X29735Y-32639D02*
X29735Y-32048D01*
X30073Y-32639D01*
X30073Y-32048D01*
X30692Y-32582D02*
X30664Y-32610D01*
X30579Y-32639D01*
X30523Y-32639D01*
X30439Y-32610D01*
X30382Y-32554D01*
X30354Y-32498D01*
X30326Y-32385D01*
X30326Y-32301D01*
X30354Y-32189D01*
X30382Y-32132D01*
X30439Y-32076D01*
X30523Y-32048D01*
X30579Y-32048D01*
X30664Y-32076D01*
X30692Y-32104D01*
X41235Y-41639D02*
X41235Y-41048D01*
X41573Y-41639D01*
X41573Y-41048D01*
X42192Y-41582D02*
X42164Y-41610D01*
X42079Y-41639D01*
X42023Y-41639D01*
X41939Y-41610D01*
X41882Y-41554D01*
X41854Y-41498D01*
X41826Y-41385D01*
X41826Y-41301D01*
X41854Y-41189D01*
X41882Y-41132D01*
X41939Y-41076D01*
X42023Y-41048D01*
X42079Y-41048D01*
X42164Y-41076D01*
X42192Y-41104D01*
X29750Y-31148D02*
X30087Y-31148D01*
X29918Y-31739D02*
X29918Y-31148D01*
X30228Y-31148D02*
X30621Y-31739D01*
X30621Y-31148D02*
X30228Y-31739D01*
X30101Y-30639D02*
X29904Y-30357D01*
X29764Y-30639D02*
X29764Y-30048D01*
X29989Y-30048D01*
X30045Y-30076D01*
X30073Y-30104D01*
X30101Y-30160D01*
X30101Y-30245D01*
X30073Y-30301D01*
X30045Y-30329D01*
X29989Y-30357D01*
X29764Y-30357D01*
X30298Y-30048D02*
X30692Y-30639D01*
X30692Y-30048D02*
X30298Y-30639D01*
X29873Y-41602D02*
X29707Y-41364D01*
X29588Y-41602D02*
X29588Y-41102D01*
X29778Y-41102D01*
X29826Y-41126D01*
X29850Y-41150D01*
X29873Y-41197D01*
X29873Y-41269D01*
X29850Y-41316D01*
X29826Y-41340D01*
X29778Y-41364D01*
X29588Y-41364D01*
X30088Y-41340D02*
X30254Y-41340D01*
X30326Y-41602D02*
X30088Y-41602D01*
X30088Y-41102D01*
X30326Y-41102D01*
X30516Y-41578D02*
X30588Y-41602D01*
X30707Y-41602D01*
X30754Y-41578D01*
X30778Y-41554D01*
X30802Y-41507D01*
X30802Y-41459D01*
X30778Y-41411D01*
X30754Y-41388D01*
X30707Y-41364D01*
X30611Y-41340D01*
X30564Y-41316D01*
X30540Y-41292D01*
X30516Y-41245D01*
X30516Y-41197D01*
X30540Y-41150D01*
X30564Y-41126D01*
X30611Y-41102D01*
X30730Y-41102D01*
X30802Y-41126D01*
X31016Y-41340D02*
X31183Y-41340D01*
X31254Y-41602D02*
X31016Y-41602D01*
X31016Y-41102D01*
X31254Y-41102D01*
X31397Y-41102D02*
X31683Y-41102D01*
X31540Y-41602D02*
X31540Y-41102D01*
X29678Y-49470D02*
X29959Y-49470D01*
X29621Y-49639D02*
X29818Y-49048D01*
X30015Y-49639D01*
X30465Y-49048D02*
X30353Y-49048D01*
X30296Y-49076D01*
X30268Y-49104D01*
X30212Y-49189D01*
X30184Y-49301D01*
X30184Y-49526D01*
X30212Y-49582D01*
X30240Y-49610D01*
X30296Y-49639D01*
X30409Y-49639D01*
X30465Y-49610D01*
X30493Y-49582D01*
X30521Y-49526D01*
X30521Y-49385D01*
X30493Y-49329D01*
X30465Y-49301D01*
X30409Y-49273D01*
X30296Y-49273D01*
X30240Y-49301D01*
X30212Y-49329D01*
X30184Y-49385D01*
X29678Y-48470D02*
X29959Y-48470D01*
X29621Y-48639D02*
X29818Y-48048D01*
X30015Y-48639D01*
X30493Y-48048D02*
X30212Y-48048D01*
X30184Y-48329D01*
X30212Y-48301D01*
X30268Y-48273D01*
X30409Y-48273D01*
X30465Y-48301D01*
X30493Y-48329D01*
X30521Y-48385D01*
X30521Y-48526D01*
X30493Y-48582D01*
X30465Y-48610D01*
X30409Y-48639D01*
X30268Y-48639D01*
X30212Y-48610D01*
X30184Y-48582D01*
X29678Y-47570D02*
X29959Y-47570D01*
X29621Y-47739D02*
X29818Y-47148D01*
X30015Y-47739D01*
X30465Y-47345D02*
X30465Y-47739D01*
X30324Y-47120D02*
X30184Y-47542D01*
X30549Y-47542D01*
X29678Y-46470D02*
X29959Y-46470D01*
X29621Y-46639D02*
X29818Y-46048D01*
X30015Y-46639D01*
X30156Y-46048D02*
X30521Y-46048D01*
X30324Y-46273D01*
X30409Y-46273D01*
X30465Y-46301D01*
X30493Y-46329D01*
X30521Y-46385D01*
X30521Y-46526D01*
X30493Y-46582D01*
X30465Y-46610D01*
X30409Y-46639D01*
X30240Y-46639D01*
X30184Y-46610D01*
X30156Y-46582D01*
X29678Y-45570D02*
X29959Y-45570D01*
X29621Y-45739D02*
X29818Y-45148D01*
X30015Y-45739D01*
X30521Y-45739D02*
X30184Y-45739D01*
X30353Y-45739D02*
X30353Y-45148D01*
X30296Y-45232D01*
X30240Y-45289D01*
X30184Y-45317D01*
X29678Y-44570D02*
X29959Y-44570D01*
X29621Y-44739D02*
X29818Y-44148D01*
X30015Y-44739D01*
X30324Y-44148D02*
X30381Y-44148D01*
X30437Y-44176D01*
X30465Y-44204D01*
X30493Y-44260D01*
X30521Y-44373D01*
X30521Y-44514D01*
X30493Y-44626D01*
X30465Y-44682D01*
X30437Y-44710D01*
X30381Y-44739D01*
X30324Y-44739D01*
X30268Y-44710D01*
X30240Y-44682D01*
X30212Y-44626D01*
X30184Y-44514D01*
X30184Y-44373D01*
X30212Y-44260D01*
X30240Y-44204D01*
X30268Y-44176D01*
X30324Y-44148D01*
X40612Y-30048D02*
X40809Y-30639D01*
X41006Y-30048D01*
X41540Y-30582D02*
X41512Y-30610D01*
X41428Y-30639D01*
X41371Y-30639D01*
X41287Y-30610D01*
X41231Y-30554D01*
X41203Y-30498D01*
X41175Y-30385D01*
X41175Y-30301D01*
X41203Y-30189D01*
X41231Y-30132D01*
X41287Y-30076D01*
X41371Y-30048D01*
X41428Y-30048D01*
X41512Y-30076D01*
X41540Y-30104D01*
X42131Y-30582D02*
X42103Y-30610D01*
X42018Y-30639D01*
X41962Y-30639D01*
X41878Y-30610D01*
X41821Y-30554D01*
X41793Y-30498D01*
X41765Y-30385D01*
X41765Y-30301D01*
X41793Y-30189D01*
X41821Y-30132D01*
X41878Y-30076D01*
X41962Y-30048D01*
X42018Y-30048D01*
X42103Y-30076D01*
X42131Y-30104D01*
X40950Y-31176D02*
X40893Y-31148D01*
X40809Y-31148D01*
X40725Y-31176D01*
X40668Y-31232D01*
X40640Y-31289D01*
X40612Y-31401D01*
X40612Y-31485D01*
X40640Y-31598D01*
X40668Y-31654D01*
X40725Y-31710D01*
X40809Y-31739D01*
X40865Y-31739D01*
X40950Y-31710D01*
X40978Y-31682D01*
X40978Y-31485D01*
X40865Y-31485D01*
X41231Y-31739D02*
X41231Y-31148D01*
X41568Y-31739D01*
X41568Y-31148D01*
X41849Y-31739D02*
X41849Y-31148D01*
X41990Y-31148D01*
X42074Y-31176D01*
X42131Y-31232D01*
X42159Y-31289D01*
X42187Y-31401D01*
X42187Y-31485D01*
X42159Y-31598D01*
X42131Y-31654D01*
X42074Y-31710D01*
X41990Y-31739D01*
X41849Y-31739D01*
X40904Y-32678D02*
X40976Y-32702D01*
X41095Y-32702D01*
X41142Y-32678D01*
X41166Y-32654D01*
X41190Y-32607D01*
X41190Y-32559D01*
X41166Y-32511D01*
X41142Y-32488D01*
X41095Y-32464D01*
X41000Y-32440D01*
X40952Y-32416D01*
X40928Y-32392D01*
X40904Y-32345D01*
X40904Y-32297D01*
X40928Y-32250D01*
X40952Y-32226D01*
X41000Y-32202D01*
X41119Y-32202D01*
X41190Y-32226D01*
X41690Y-32654D02*
X41666Y-32678D01*
X41595Y-32702D01*
X41547Y-32702D01*
X41476Y-32678D01*
X41428Y-32630D01*
X41404Y-32583D01*
X41380Y-32488D01*
X41380Y-32416D01*
X41404Y-32321D01*
X41428Y-32273D01*
X41476Y-32226D01*
X41547Y-32202D01*
X41595Y-32202D01*
X41666Y-32226D01*
X41690Y-32250D01*
X42142Y-32702D02*
X41904Y-32702D01*
X41904Y-32202D01*
X40892Y-33778D02*
X40964Y-33802D01*
X41083Y-33802D01*
X41130Y-33778D01*
X41154Y-33754D01*
X41178Y-33707D01*
X41178Y-33659D01*
X41154Y-33611D01*
X41130Y-33588D01*
X41083Y-33564D01*
X40988Y-33540D01*
X40940Y-33516D01*
X40916Y-33492D01*
X40892Y-33445D01*
X40892Y-33397D01*
X40916Y-33350D01*
X40940Y-33326D01*
X40988Y-33302D01*
X41107Y-33302D01*
X41178Y-33326D01*
X41392Y-33802D02*
X41392Y-33302D01*
X41511Y-33302D01*
X41583Y-33326D01*
X41630Y-33373D01*
X41654Y-33421D01*
X41678Y-33516D01*
X41678Y-33588D01*
X41654Y-33683D01*
X41630Y-33730D01*
X41583Y-33778D01*
X41511Y-33802D01*
X41392Y-33802D01*
X41869Y-33659D02*
X42107Y-33659D01*
X41821Y-33802D02*
X41988Y-33302D01*
X42154Y-33802D01*
X40490Y-34559D02*
X40728Y-34559D01*
X40442Y-34702D02*
X40609Y-34202D01*
X40776Y-34702D01*
X41228Y-34702D02*
X41061Y-34464D01*
X40942Y-34702D02*
X40942Y-34202D01*
X41133Y-34202D01*
X41180Y-34226D01*
X41204Y-34250D01*
X41228Y-34297D01*
X41228Y-34369D01*
X41204Y-34416D01*
X41180Y-34440D01*
X41133Y-34464D01*
X40942Y-34464D01*
X41442Y-34440D02*
X41609Y-34440D01*
X41680Y-34702D02*
X41442Y-34702D01*
X41442Y-34202D01*
X41680Y-34202D01*
X42061Y-34440D02*
X41895Y-34440D01*
X41895Y-34702D02*
X41895Y-34202D01*
X42133Y-34202D01*
X41587Y-35639D02*
X41250Y-35639D01*
X41418Y-35639D02*
X41418Y-35048D01*
X41362Y-35132D01*
X41306Y-35189D01*
X41250Y-35217D01*
X41784Y-35048D02*
X42149Y-35048D01*
X41953Y-35273D01*
X42037Y-35273D01*
X42093Y-35301D01*
X42121Y-35329D01*
X42149Y-35385D01*
X42149Y-35526D01*
X42121Y-35582D01*
X42093Y-35610D01*
X42037Y-35639D01*
X41868Y-35639D01*
X41812Y-35610D01*
X41784Y-35582D01*
X41587Y-36639D02*
X41250Y-36639D01*
X41418Y-36639D02*
X41418Y-36048D01*
X41362Y-36132D01*
X41306Y-36189D01*
X41250Y-36217D01*
X41812Y-36104D02*
X41840Y-36076D01*
X41896Y-36048D01*
X42037Y-36048D01*
X42093Y-36076D01*
X42121Y-36104D01*
X42149Y-36160D01*
X42149Y-36217D01*
X42121Y-36301D01*
X41784Y-36639D01*
X42149Y-36639D01*
X41587Y-37639D02*
X41250Y-37639D01*
X41418Y-37639D02*
X41418Y-37048D01*
X41362Y-37132D01*
X41306Y-37189D01*
X41250Y-37217D01*
X42149Y-37639D02*
X41812Y-37639D01*
X41981Y-37639D02*
X41981Y-37048D01*
X41924Y-37132D01*
X41868Y-37189D01*
X41812Y-37217D01*
X41587Y-38639D02*
X41250Y-38639D01*
X41418Y-38639D02*
X41418Y-38048D01*
X41362Y-38132D01*
X41306Y-38189D01*
X41250Y-38217D01*
X41953Y-38048D02*
X42009Y-38048D01*
X42065Y-38076D01*
X42093Y-38104D01*
X42121Y-38160D01*
X42149Y-38273D01*
X42149Y-38414D01*
X42121Y-38526D01*
X42093Y-38582D01*
X42065Y-38610D01*
X42009Y-38639D01*
X41953Y-38639D01*
X41896Y-38610D01*
X41868Y-38582D01*
X41840Y-38526D01*
X41812Y-38414D01*
X41812Y-38273D01*
X41840Y-38160D01*
X41868Y-38104D01*
X41896Y-38076D01*
X41953Y-38048D01*
X41787Y-39639D02*
X41900Y-39639D01*
X41956Y-39610D01*
X41984Y-39582D01*
X42040Y-39498D01*
X42068Y-39385D01*
X42068Y-39160D01*
X42040Y-39104D01*
X42012Y-39076D01*
X41956Y-39048D01*
X41843Y-39048D01*
X41787Y-39076D01*
X41759Y-39104D01*
X41731Y-39160D01*
X41731Y-39301D01*
X41759Y-39357D01*
X41787Y-39385D01*
X41843Y-39414D01*
X41956Y-39414D01*
X42012Y-39385D01*
X42040Y-39357D01*
X42068Y-39301D01*
X41843Y-40301D02*
X41787Y-40273D01*
X41759Y-40245D01*
X41731Y-40189D01*
X41731Y-40160D01*
X41759Y-40104D01*
X41787Y-40076D01*
X41843Y-40048D01*
X41956Y-40048D01*
X42012Y-40076D01*
X42040Y-40104D01*
X42068Y-40160D01*
X42068Y-40189D01*
X42040Y-40245D01*
X42012Y-40273D01*
X41956Y-40301D01*
X41843Y-40301D01*
X41787Y-40329D01*
X41759Y-40357D01*
X41731Y-40414D01*
X41731Y-40526D01*
X41759Y-40582D01*
X41787Y-40610D01*
X41843Y-40639D01*
X41956Y-40639D01*
X42012Y-40610D01*
X42040Y-40582D01*
X42068Y-40526D01*
X42068Y-40414D01*
X42040Y-40357D01*
X42012Y-40329D01*
X41956Y-40301D01*
X41703Y-42048D02*
X42096Y-42048D01*
X41843Y-42639D01*
X42012Y-43048D02*
X41900Y-43048D01*
X41843Y-43076D01*
X41815Y-43104D01*
X41759Y-43189D01*
X41731Y-43301D01*
X41731Y-43526D01*
X41759Y-43582D01*
X41787Y-43610D01*
X41843Y-43639D01*
X41956Y-43639D01*
X42012Y-43610D01*
X42040Y-43582D01*
X42068Y-43526D01*
X42068Y-43385D01*
X42040Y-43329D01*
X42012Y-43301D01*
X41956Y-43273D01*
X41843Y-43273D01*
X41787Y-43301D01*
X41759Y-43329D01*
X41731Y-43385D01*
X42040Y-44148D02*
X41759Y-44148D01*
X41731Y-44429D01*
X41759Y-44401D01*
X41815Y-44373D01*
X41956Y-44373D01*
X42012Y-44401D01*
X42040Y-44429D01*
X42068Y-44485D01*
X42068Y-44626D01*
X42040Y-44682D01*
X42012Y-44710D01*
X41956Y-44739D01*
X41815Y-44739D01*
X41759Y-44710D01*
X41731Y-44682D01*
X42012Y-45345D02*
X42012Y-45739D01*
X41871Y-45120D02*
X41731Y-45542D01*
X42096Y-45542D01*
X41803Y-46048D02*
X42168Y-46048D01*
X41971Y-46273D01*
X42056Y-46273D01*
X42112Y-46301D01*
X42140Y-46329D01*
X42168Y-46385D01*
X42168Y-46526D01*
X42140Y-46582D01*
X42112Y-46610D01*
X42056Y-46639D01*
X41887Y-46639D01*
X41831Y-46610D01*
X41803Y-46582D01*
X41831Y-47104D02*
X41859Y-47076D01*
X41915Y-47048D01*
X42056Y-47048D01*
X42112Y-47076D01*
X42140Y-47104D01*
X42168Y-47160D01*
X42168Y-47217D01*
X42140Y-47301D01*
X41803Y-47639D01*
X42168Y-47639D01*
G54D12*
X39761Y-48202D02*
X40047Y-48202D01*
X39904Y-48702D02*
X39904Y-48202D01*
X40166Y-48202D02*
X40500Y-48702D01*
X40500Y-48202D02*
X40166Y-48702D01*
X40690Y-48511D02*
X41071Y-48511D01*
X41309Y-48369D02*
X41690Y-48511D01*
X41309Y-48654D01*
X42190Y-48702D02*
X41904Y-48702D01*
X42047Y-48702D02*
X42047Y-48202D01*
X42000Y-48273D01*
X41952Y-48321D01*
X41904Y-48345D01*
X40059Y-49702D02*
X39892Y-49464D01*
X39773Y-49702D02*
X39773Y-49202D01*
X39964Y-49202D01*
X40011Y-49226D01*
X40035Y-49250D01*
X40059Y-49297D01*
X40059Y-49369D01*
X40035Y-49416D01*
X40011Y-49440D01*
X39964Y-49464D01*
X39773Y-49464D01*
X40226Y-49202D02*
X40559Y-49702D01*
X40559Y-49202D02*
X40226Y-49702D01*
X41130Y-49369D02*
X40750Y-49511D01*
X41130Y-49654D01*
X41369Y-49511D02*
X41750Y-49511D01*
X42083Y-49202D02*
X42130Y-49202D01*
X42178Y-49226D01*
X42202Y-49250D01*
X42226Y-49297D01*
X42250Y-49392D01*
X42250Y-49511D01*
X42226Y-49607D01*
X42202Y-49654D01*
X42178Y-49678D01*
X42130Y-49702D01*
X42083Y-49702D01*
X42035Y-49678D01*
X42011Y-49654D01*
X41988Y-49607D01*
X41964Y-49511D01*
X41964Y-49392D01*
X41988Y-49297D01*
X42011Y-49250D01*
X42035Y-49226D01*
X42083Y-49202D01*
G54D11*
X30842Y-51828D02*
X31042Y-51828D01*
X31128Y-52142D02*
X30842Y-52142D01*
X30842Y-51542D01*
X31128Y-51542D01*
X31328Y-52142D02*
X31642Y-51742D01*
X31328Y-51742D02*
X31642Y-52142D01*
X31871Y-51742D02*
X31871Y-52342D01*
X31871Y-51771D02*
X31928Y-51742D01*
X32042Y-51742D01*
X32100Y-51771D01*
X32128Y-51800D01*
X32157Y-51857D01*
X32157Y-52028D01*
X32128Y-52085D01*
X32100Y-52114D01*
X32042Y-52142D01*
X31928Y-52142D01*
X31871Y-52114D01*
X32499Y-52142D02*
X32442Y-52114D01*
X32414Y-52057D01*
X32414Y-51542D01*
X32814Y-52142D02*
X32757Y-52114D01*
X32728Y-52085D01*
X32700Y-52028D01*
X32700Y-51857D01*
X32728Y-51800D01*
X32757Y-51771D01*
X32814Y-51742D01*
X32900Y-51742D01*
X32957Y-51771D01*
X32985Y-51800D01*
X33014Y-51857D01*
X33014Y-52028D01*
X32985Y-52085D01*
X32957Y-52114D01*
X32900Y-52142D01*
X32814Y-52142D01*
X33271Y-52142D02*
X33271Y-51742D01*
X33271Y-51857D02*
X33300Y-51800D01*
X33328Y-51771D01*
X33385Y-51742D01*
X33442Y-51742D01*
X33871Y-52114D02*
X33814Y-52142D01*
X33700Y-52142D01*
X33642Y-52114D01*
X33614Y-52057D01*
X33614Y-51828D01*
X33642Y-51771D01*
X33700Y-51742D01*
X33814Y-51742D01*
X33871Y-51771D01*
X33900Y-51828D01*
X33900Y-51885D01*
X33614Y-51942D01*
X34157Y-51828D02*
X34357Y-51828D01*
X34442Y-52142D02*
X34157Y-52142D01*
X34157Y-51542D01*
X34442Y-51542D01*
X34700Y-52142D02*
X34700Y-51742D01*
X34700Y-51800D02*
X34728Y-51771D01*
X34785Y-51742D01*
X34871Y-51742D01*
X34928Y-51771D01*
X34957Y-51828D01*
X34957Y-52142D01*
X34957Y-51828D02*
X34985Y-51771D01*
X35042Y-51742D01*
X35128Y-51742D01*
X35185Y-51771D01*
X35214Y-51828D01*
X35214Y-52142D01*
X35500Y-52142D02*
X35500Y-51542D01*
X35500Y-51771D02*
X35557Y-51742D01*
X35671Y-51742D01*
X35728Y-51771D01*
X35757Y-51800D01*
X35785Y-51857D01*
X35785Y-52028D01*
X35757Y-52085D01*
X35728Y-52114D01*
X35671Y-52142D01*
X35557Y-52142D01*
X35500Y-52114D01*
X36271Y-52114D02*
X36214Y-52142D01*
X36100Y-52142D01*
X36042Y-52114D01*
X36014Y-52057D01*
X36014Y-51828D01*
X36042Y-51771D01*
X36100Y-51742D01*
X36214Y-51742D01*
X36271Y-51771D01*
X36300Y-51828D01*
X36300Y-51885D01*
X36014Y-51942D01*
X36814Y-52142D02*
X36814Y-51542D01*
X36814Y-52114D02*
X36757Y-52142D01*
X36642Y-52142D01*
X36585Y-52114D01*
X36557Y-52085D01*
X36528Y-52028D01*
X36528Y-51857D01*
X36557Y-51800D01*
X36585Y-51771D01*
X36642Y-51742D01*
X36757Y-51742D01*
X36814Y-51771D01*
X37357Y-52142D02*
X37357Y-51542D01*
X37357Y-52114D02*
X37300Y-52142D01*
X37185Y-52142D01*
X37128Y-52114D01*
X37100Y-52085D01*
X37071Y-52028D01*
X37071Y-51857D01*
X37100Y-51800D01*
X37128Y-51771D01*
X37185Y-51742D01*
X37300Y-51742D01*
X37357Y-51771D01*
X37871Y-52114D02*
X37814Y-52142D01*
X37700Y-52142D01*
X37642Y-52114D01*
X37614Y-52057D01*
X37614Y-51828D01*
X37642Y-51771D01*
X37700Y-51742D01*
X37814Y-51742D01*
X37871Y-51771D01*
X37900Y-51828D01*
X37900Y-51885D01*
X37614Y-51942D01*
X38414Y-52142D02*
X38414Y-51542D01*
X38414Y-52114D02*
X38357Y-52142D01*
X38242Y-52142D01*
X38185Y-52114D01*
X38157Y-52085D01*
X38128Y-52028D01*
X38128Y-51857D01*
X38157Y-51800D01*
X38185Y-51771D01*
X38242Y-51742D01*
X38357Y-51742D01*
X38414Y-51771D01*
X38700Y-52085D02*
X38728Y-52114D01*
X38700Y-52142D01*
X38671Y-52114D01*
X38700Y-52085D01*
X38700Y-52142D01*
X39242Y-52114D02*
X39185Y-52142D01*
X39071Y-52142D01*
X39014Y-52114D01*
X38985Y-52085D01*
X38957Y-52028D01*
X38957Y-51857D01*
X38985Y-51800D01*
X39014Y-51771D01*
X39071Y-51742D01*
X39185Y-51742D01*
X39242Y-51771D01*
X39585Y-52142D02*
X39528Y-52114D01*
X39500Y-52085D01*
X39471Y-52028D01*
X39471Y-51857D01*
X39500Y-51800D01*
X39528Y-51771D01*
X39585Y-51742D01*
X39671Y-51742D01*
X39728Y-51771D01*
X39757Y-51800D01*
X39785Y-51857D01*
X39785Y-52028D01*
X39757Y-52085D01*
X39728Y-52114D01*
X39671Y-52142D01*
X39585Y-52142D01*
X40042Y-52142D02*
X40042Y-51742D01*
X40042Y-51800D02*
X40071Y-51771D01*
X40128Y-51742D01*
X40214Y-51742D01*
X40271Y-51771D01*
X40300Y-51828D01*
X40300Y-52142D01*
X40300Y-51828D02*
X40328Y-51771D01*
X40385Y-51742D01*
X40471Y-51742D01*
X40528Y-51771D01*
X40557Y-51828D01*
X40557Y-52142D01*
G54D12*
X38925Y-50882D02*
X38775Y-50667D01*
X38667Y-50882D02*
X38667Y-50432D01*
X38839Y-50432D01*
X38882Y-50453D01*
X38903Y-50475D01*
X38925Y-50517D01*
X38925Y-50582D01*
X38903Y-50625D01*
X38882Y-50646D01*
X38839Y-50667D01*
X38667Y-50667D01*
X39075Y-50432D02*
X39375Y-50882D01*
X39375Y-50432D02*
X39075Y-50882D01*
X35357Y-50432D02*
X35614Y-50432D01*
X35485Y-50882D02*
X35485Y-50432D01*
X35721Y-50432D02*
X36021Y-50882D01*
X36021Y-50432D02*
X35721Y-50882D01*
G54D11*
X28300Y-24370D02*
X28581Y-24370D01*
X28243Y-24539D02*
X28440Y-23948D01*
X28637Y-24539D01*
X29171Y-24539D02*
X28975Y-24257D01*
X28834Y-24539D02*
X28834Y-23948D01*
X29059Y-23948D01*
X29115Y-23976D01*
X29143Y-24004D01*
X29171Y-24060D01*
X29171Y-24145D01*
X29143Y-24201D01*
X29115Y-24229D01*
X29059Y-24257D01*
X28834Y-24257D01*
X29425Y-24539D02*
X29425Y-23948D01*
X29565Y-23948D01*
X29650Y-23976D01*
X29706Y-24032D01*
X29734Y-24089D01*
X29762Y-24201D01*
X29762Y-24285D01*
X29734Y-24398D01*
X29706Y-24454D01*
X29650Y-24510D01*
X29565Y-24539D01*
X29425Y-24539D01*
X30015Y-23948D02*
X30015Y-24426D01*
X30043Y-24482D01*
X30071Y-24510D01*
X30128Y-24539D01*
X30240Y-24539D01*
X30296Y-24510D01*
X30324Y-24482D01*
X30353Y-24426D01*
X30353Y-23948D01*
X30634Y-24539D02*
X30634Y-23948D01*
X30915Y-24539D02*
X30915Y-23948D01*
X31252Y-24539D01*
X31252Y-23948D01*
X31646Y-23948D02*
X31759Y-23948D01*
X31815Y-23976D01*
X31871Y-24032D01*
X31899Y-24145D01*
X31899Y-24342D01*
X31871Y-24454D01*
X31815Y-24510D01*
X31759Y-24539D01*
X31646Y-24539D01*
X31590Y-24510D01*
X31534Y-24454D01*
X31506Y-24342D01*
X31506Y-24145D01*
X31534Y-24032D01*
X31590Y-23976D01*
X31646Y-23948D01*
G54D13*
X27900Y-22900D02*
X27900Y-25900D01*
X27900Y-22900D02*
X30900Y-22900D01*
X43900Y-22900D02*
X40900Y-22900D01*
X43900Y-22900D02*
X43900Y-25900D01*
X27900Y-52900D02*
X30900Y-52900D01*
X27900Y-52900D02*
X27900Y-49900D01*
X43900Y-52900D02*
X43900Y-49900D01*
X43900Y-52900D02*
X40900Y-52900D01*
G54D11*
X46135Y-43539D02*
X46135Y-42948D01*
X46473Y-43539D01*
X46473Y-42948D01*
X47092Y-43482D02*
X47064Y-43510D01*
X46979Y-43539D01*
X46923Y-43539D01*
X46839Y-43510D01*
X46782Y-43454D01*
X46754Y-43398D01*
X46726Y-43285D01*
X46726Y-43201D01*
X46754Y-43089D01*
X46782Y-43032D01*
X46839Y-42976D01*
X46923Y-42948D01*
X46979Y-42948D01*
X47064Y-42976D01*
X47092Y-43004D01*
X46135Y-42539D02*
X46135Y-41948D01*
X46473Y-42539D01*
X46473Y-41948D01*
X47092Y-42482D02*
X47064Y-42510D01*
X46979Y-42539D01*
X46923Y-42539D01*
X46839Y-42510D01*
X46782Y-42454D01*
X46754Y-42398D01*
X46726Y-42285D01*
X46726Y-42201D01*
X46754Y-42089D01*
X46782Y-42032D01*
X46839Y-41976D01*
X46923Y-41948D01*
X46979Y-41948D01*
X47064Y-41976D01*
X47092Y-42004D01*
X46135Y-40539D02*
X46135Y-39948D01*
X46473Y-40539D01*
X46473Y-39948D01*
X47092Y-40482D02*
X47064Y-40510D01*
X46979Y-40539D01*
X46923Y-40539D01*
X46839Y-40510D01*
X46782Y-40454D01*
X46754Y-40398D01*
X46726Y-40285D01*
X46726Y-40201D01*
X46754Y-40089D01*
X46782Y-40032D01*
X46839Y-39976D01*
X46923Y-39948D01*
X46979Y-39948D01*
X47064Y-39976D01*
X47092Y-40004D01*
X46135Y-39539D02*
X46135Y-38948D01*
X46473Y-39539D01*
X46473Y-38948D01*
X47092Y-39482D02*
X47064Y-39510D01*
X46979Y-39539D01*
X46923Y-39539D01*
X46839Y-39510D01*
X46782Y-39454D01*
X46754Y-39398D01*
X46726Y-39285D01*
X46726Y-39201D01*
X46754Y-39089D01*
X46782Y-39032D01*
X46839Y-38976D01*
X46923Y-38948D01*
X46979Y-38948D01*
X47064Y-38976D01*
X47092Y-39004D01*
X46135Y-38639D02*
X46135Y-38048D01*
X46473Y-38639D01*
X46473Y-38048D01*
X47092Y-38582D02*
X47064Y-38610D01*
X46979Y-38639D01*
X46923Y-38639D01*
X46839Y-38610D01*
X46782Y-38554D01*
X46754Y-38498D01*
X46726Y-38385D01*
X46726Y-38301D01*
X46754Y-38189D01*
X46782Y-38132D01*
X46839Y-38076D01*
X46923Y-38048D01*
X46979Y-38048D01*
X47064Y-38076D01*
X47092Y-38104D01*
X46135Y-37539D02*
X46135Y-36948D01*
X46473Y-37539D01*
X46473Y-36948D01*
X47092Y-37482D02*
X47064Y-37510D01*
X46979Y-37539D01*
X46923Y-37539D01*
X46839Y-37510D01*
X46782Y-37454D01*
X46754Y-37398D01*
X46726Y-37285D01*
X46726Y-37201D01*
X46754Y-37089D01*
X46782Y-37032D01*
X46839Y-36976D01*
X46923Y-36948D01*
X46979Y-36948D01*
X47064Y-36976D01*
X47092Y-37004D01*
X46135Y-36539D02*
X46135Y-35948D01*
X46473Y-36539D01*
X46473Y-35948D01*
X47092Y-36482D02*
X47064Y-36510D01*
X46979Y-36539D01*
X46923Y-36539D01*
X46839Y-36510D01*
X46782Y-36454D01*
X46754Y-36398D01*
X46726Y-36285D01*
X46726Y-36201D01*
X46754Y-36089D01*
X46782Y-36032D01*
X46839Y-35976D01*
X46923Y-35948D01*
X46979Y-35948D01*
X47064Y-35976D01*
X47092Y-36004D01*
X46135Y-35539D02*
X46135Y-34948D01*
X46473Y-35539D01*
X46473Y-34948D01*
X47092Y-35482D02*
X47064Y-35510D01*
X46979Y-35539D01*
X46923Y-35539D01*
X46839Y-35510D01*
X46782Y-35454D01*
X46754Y-35398D01*
X46726Y-35285D01*
X46726Y-35201D01*
X46754Y-35089D01*
X46782Y-35032D01*
X46839Y-34976D01*
X46923Y-34948D01*
X46979Y-34948D01*
X47064Y-34976D01*
X47092Y-35004D01*
X46135Y-34539D02*
X46135Y-33948D01*
X46473Y-34539D01*
X46473Y-33948D01*
X47092Y-34482D02*
X47064Y-34510D01*
X46979Y-34539D01*
X46923Y-34539D01*
X46839Y-34510D01*
X46782Y-34454D01*
X46754Y-34398D01*
X46726Y-34285D01*
X46726Y-34201D01*
X46754Y-34089D01*
X46782Y-34032D01*
X46839Y-33976D01*
X46923Y-33948D01*
X46979Y-33948D01*
X47064Y-33976D01*
X47092Y-34004D01*
X46135Y-33539D02*
X46135Y-32948D01*
X46473Y-33539D01*
X46473Y-32948D01*
X47092Y-33482D02*
X47064Y-33510D01*
X46979Y-33539D01*
X46923Y-33539D01*
X46839Y-33510D01*
X46782Y-33454D01*
X46754Y-33398D01*
X46726Y-33285D01*
X46726Y-33201D01*
X46754Y-33089D01*
X46782Y-33032D01*
X46839Y-32976D01*
X46923Y-32948D01*
X46979Y-32948D01*
X47064Y-32976D01*
X47092Y-33004D01*
X46135Y-32539D02*
X46135Y-31948D01*
X46473Y-32539D01*
X46473Y-31948D01*
X47092Y-32482D02*
X47064Y-32510D01*
X46979Y-32539D01*
X46923Y-32539D01*
X46839Y-32510D01*
X46782Y-32454D01*
X46754Y-32398D01*
X46726Y-32285D01*
X46726Y-32201D01*
X46754Y-32089D01*
X46782Y-32032D01*
X46839Y-31976D01*
X46923Y-31948D01*
X46979Y-31948D01*
X47064Y-31976D01*
X47092Y-32004D01*
X57635Y-41539D02*
X57635Y-40948D01*
X57973Y-41539D01*
X57973Y-40948D01*
X58592Y-41482D02*
X58564Y-41510D01*
X58479Y-41539D01*
X58423Y-41539D01*
X58339Y-41510D01*
X58282Y-41454D01*
X58254Y-41398D01*
X58226Y-41285D01*
X58226Y-41201D01*
X58254Y-41089D01*
X58282Y-41032D01*
X58339Y-40976D01*
X58423Y-40948D01*
X58479Y-40948D01*
X58564Y-40976D01*
X58592Y-41004D01*
X46150Y-31048D02*
X46487Y-31048D01*
X46318Y-31639D02*
X46318Y-31048D01*
X46628Y-31048D02*
X47021Y-31639D01*
X47021Y-31048D02*
X46628Y-31639D01*
X46501Y-30539D02*
X46304Y-30257D01*
X46164Y-30539D02*
X46164Y-29948D01*
X46389Y-29948D01*
X46445Y-29976D01*
X46473Y-30004D01*
X46501Y-30060D01*
X46501Y-30145D01*
X46473Y-30201D01*
X46445Y-30229D01*
X46389Y-30257D01*
X46164Y-30257D01*
X46698Y-29948D02*
X47092Y-30539D01*
X47092Y-29948D02*
X46698Y-30539D01*
X46273Y-41502D02*
X46107Y-41264D01*
X45988Y-41502D02*
X45988Y-41002D01*
X46178Y-41002D01*
X46226Y-41026D01*
X46250Y-41050D01*
X46273Y-41097D01*
X46273Y-41169D01*
X46250Y-41216D01*
X46226Y-41240D01*
X46178Y-41264D01*
X45988Y-41264D01*
X46488Y-41240D02*
X46654Y-41240D01*
X46726Y-41502D02*
X46488Y-41502D01*
X46488Y-41002D01*
X46726Y-41002D01*
X46916Y-41478D02*
X46988Y-41502D01*
X47107Y-41502D01*
X47154Y-41478D01*
X47178Y-41454D01*
X47202Y-41407D01*
X47202Y-41359D01*
X47178Y-41311D01*
X47154Y-41288D01*
X47107Y-41264D01*
X47011Y-41240D01*
X46964Y-41216D01*
X46940Y-41192D01*
X46916Y-41145D01*
X46916Y-41097D01*
X46940Y-41050D01*
X46964Y-41026D01*
X47011Y-41002D01*
X47130Y-41002D01*
X47202Y-41026D01*
X47416Y-41240D02*
X47583Y-41240D01*
X47654Y-41502D02*
X47416Y-41502D01*
X47416Y-41002D01*
X47654Y-41002D01*
X47797Y-41002D02*
X48083Y-41002D01*
X47940Y-41502D02*
X47940Y-41002D01*
X46078Y-49370D02*
X46359Y-49370D01*
X46021Y-49539D02*
X46218Y-48948D01*
X46415Y-49539D01*
X46865Y-48948D02*
X46753Y-48948D01*
X46696Y-48976D01*
X46668Y-49004D01*
X46612Y-49089D01*
X46584Y-49201D01*
X46584Y-49426D01*
X46612Y-49482D01*
X46640Y-49510D01*
X46696Y-49539D01*
X46809Y-49539D01*
X46865Y-49510D01*
X46893Y-49482D01*
X46921Y-49426D01*
X46921Y-49285D01*
X46893Y-49229D01*
X46865Y-49201D01*
X46809Y-49173D01*
X46696Y-49173D01*
X46640Y-49201D01*
X46612Y-49229D01*
X46584Y-49285D01*
X46078Y-48370D02*
X46359Y-48370D01*
X46021Y-48539D02*
X46218Y-47948D01*
X46415Y-48539D01*
X46893Y-47948D02*
X46612Y-47948D01*
X46584Y-48229D01*
X46612Y-48201D01*
X46668Y-48173D01*
X46809Y-48173D01*
X46865Y-48201D01*
X46893Y-48229D01*
X46921Y-48285D01*
X46921Y-48426D01*
X46893Y-48482D01*
X46865Y-48510D01*
X46809Y-48539D01*
X46668Y-48539D01*
X46612Y-48510D01*
X46584Y-48482D01*
X46078Y-47470D02*
X46359Y-47470D01*
X46021Y-47639D02*
X46218Y-47048D01*
X46415Y-47639D01*
X46865Y-47245D02*
X46865Y-47639D01*
X46724Y-47020D02*
X46584Y-47442D01*
X46949Y-47442D01*
X46078Y-46370D02*
X46359Y-46370D01*
X46021Y-46539D02*
X46218Y-45948D01*
X46415Y-46539D01*
X46556Y-45948D02*
X46921Y-45948D01*
X46724Y-46173D01*
X46809Y-46173D01*
X46865Y-46201D01*
X46893Y-46229D01*
X46921Y-46285D01*
X46921Y-46426D01*
X46893Y-46482D01*
X46865Y-46510D01*
X46809Y-46539D01*
X46640Y-46539D01*
X46584Y-46510D01*
X46556Y-46482D01*
X46078Y-45470D02*
X46359Y-45470D01*
X46021Y-45639D02*
X46218Y-45048D01*
X46415Y-45639D01*
X46921Y-45639D02*
X46584Y-45639D01*
X46753Y-45639D02*
X46753Y-45048D01*
X46696Y-45132D01*
X46640Y-45189D01*
X46584Y-45217D01*
X46078Y-44470D02*
X46359Y-44470D01*
X46021Y-44639D02*
X46218Y-44048D01*
X46415Y-44639D01*
X46724Y-44048D02*
X46781Y-44048D01*
X46837Y-44076D01*
X46865Y-44104D01*
X46893Y-44160D01*
X46921Y-44273D01*
X46921Y-44414D01*
X46893Y-44526D01*
X46865Y-44582D01*
X46837Y-44610D01*
X46781Y-44639D01*
X46724Y-44639D01*
X46668Y-44610D01*
X46640Y-44582D01*
X46612Y-44526D01*
X46584Y-44414D01*
X46584Y-44273D01*
X46612Y-44160D01*
X46640Y-44104D01*
X46668Y-44076D01*
X46724Y-44048D01*
X57012Y-29948D02*
X57209Y-30539D01*
X57406Y-29948D01*
X57940Y-30482D02*
X57912Y-30510D01*
X57828Y-30539D01*
X57771Y-30539D01*
X57687Y-30510D01*
X57631Y-30454D01*
X57603Y-30398D01*
X57575Y-30285D01*
X57575Y-30201D01*
X57603Y-30089D01*
X57631Y-30032D01*
X57687Y-29976D01*
X57771Y-29948D01*
X57828Y-29948D01*
X57912Y-29976D01*
X57940Y-30004D01*
X58531Y-30482D02*
X58503Y-30510D01*
X58418Y-30539D01*
X58362Y-30539D01*
X58278Y-30510D01*
X58221Y-30454D01*
X58193Y-30398D01*
X58165Y-30285D01*
X58165Y-30201D01*
X58193Y-30089D01*
X58221Y-30032D01*
X58278Y-29976D01*
X58362Y-29948D01*
X58418Y-29948D01*
X58503Y-29976D01*
X58531Y-30004D01*
X57350Y-31076D02*
X57293Y-31048D01*
X57209Y-31048D01*
X57125Y-31076D01*
X57068Y-31132D01*
X57040Y-31189D01*
X57012Y-31301D01*
X57012Y-31385D01*
X57040Y-31498D01*
X57068Y-31554D01*
X57125Y-31610D01*
X57209Y-31639D01*
X57265Y-31639D01*
X57350Y-31610D01*
X57378Y-31582D01*
X57378Y-31385D01*
X57265Y-31385D01*
X57631Y-31639D02*
X57631Y-31048D01*
X57968Y-31639D01*
X57968Y-31048D01*
X58249Y-31639D02*
X58249Y-31048D01*
X58390Y-31048D01*
X58474Y-31076D01*
X58531Y-31132D01*
X58559Y-31189D01*
X58587Y-31301D01*
X58587Y-31385D01*
X58559Y-31498D01*
X58531Y-31554D01*
X58474Y-31610D01*
X58390Y-31639D01*
X58249Y-31639D01*
X57304Y-32578D02*
X57376Y-32602D01*
X57495Y-32602D01*
X57542Y-32578D01*
X57566Y-32554D01*
X57590Y-32507D01*
X57590Y-32459D01*
X57566Y-32411D01*
X57542Y-32388D01*
X57495Y-32364D01*
X57400Y-32340D01*
X57352Y-32316D01*
X57328Y-32292D01*
X57304Y-32245D01*
X57304Y-32197D01*
X57328Y-32150D01*
X57352Y-32126D01*
X57400Y-32102D01*
X57519Y-32102D01*
X57590Y-32126D01*
X58090Y-32554D02*
X58066Y-32578D01*
X57995Y-32602D01*
X57947Y-32602D01*
X57876Y-32578D01*
X57828Y-32530D01*
X57804Y-32483D01*
X57780Y-32388D01*
X57780Y-32316D01*
X57804Y-32221D01*
X57828Y-32173D01*
X57876Y-32126D01*
X57947Y-32102D01*
X57995Y-32102D01*
X58066Y-32126D01*
X58090Y-32150D01*
X58542Y-32602D02*
X58304Y-32602D01*
X58304Y-32102D01*
X57292Y-33678D02*
X57364Y-33702D01*
X57483Y-33702D01*
X57530Y-33678D01*
X57554Y-33654D01*
X57578Y-33607D01*
X57578Y-33559D01*
X57554Y-33511D01*
X57530Y-33488D01*
X57483Y-33464D01*
X57388Y-33440D01*
X57340Y-33416D01*
X57316Y-33392D01*
X57292Y-33345D01*
X57292Y-33297D01*
X57316Y-33250D01*
X57340Y-33226D01*
X57388Y-33202D01*
X57507Y-33202D01*
X57578Y-33226D01*
X57792Y-33702D02*
X57792Y-33202D01*
X57911Y-33202D01*
X57983Y-33226D01*
X58030Y-33273D01*
X58054Y-33321D01*
X58078Y-33416D01*
X58078Y-33488D01*
X58054Y-33583D01*
X58030Y-33630D01*
X57983Y-33678D01*
X57911Y-33702D01*
X57792Y-33702D01*
X58269Y-33559D02*
X58507Y-33559D01*
X58221Y-33702D02*
X58388Y-33202D01*
X58554Y-33702D01*
X56890Y-34459D02*
X57128Y-34459D01*
X56842Y-34602D02*
X57009Y-34102D01*
X57176Y-34602D01*
X57628Y-34602D02*
X57461Y-34364D01*
X57342Y-34602D02*
X57342Y-34102D01*
X57533Y-34102D01*
X57580Y-34126D01*
X57604Y-34150D01*
X57628Y-34197D01*
X57628Y-34269D01*
X57604Y-34316D01*
X57580Y-34340D01*
X57533Y-34364D01*
X57342Y-34364D01*
X57842Y-34340D02*
X58009Y-34340D01*
X58080Y-34602D02*
X57842Y-34602D01*
X57842Y-34102D01*
X58080Y-34102D01*
X58461Y-34340D02*
X58295Y-34340D01*
X58295Y-34602D02*
X58295Y-34102D01*
X58533Y-34102D01*
X57987Y-35539D02*
X57650Y-35539D01*
X57818Y-35539D02*
X57818Y-34948D01*
X57762Y-35032D01*
X57706Y-35089D01*
X57650Y-35117D01*
X58184Y-34948D02*
X58549Y-34948D01*
X58353Y-35173D01*
X58437Y-35173D01*
X58493Y-35201D01*
X58521Y-35229D01*
X58549Y-35285D01*
X58549Y-35426D01*
X58521Y-35482D01*
X58493Y-35510D01*
X58437Y-35539D01*
X58268Y-35539D01*
X58212Y-35510D01*
X58184Y-35482D01*
X57987Y-36539D02*
X57650Y-36539D01*
X57818Y-36539D02*
X57818Y-35948D01*
X57762Y-36032D01*
X57706Y-36089D01*
X57650Y-36117D01*
X58212Y-36004D02*
X58240Y-35976D01*
X58296Y-35948D01*
X58437Y-35948D01*
X58493Y-35976D01*
X58521Y-36004D01*
X58549Y-36060D01*
X58549Y-36117D01*
X58521Y-36201D01*
X58184Y-36539D01*
X58549Y-36539D01*
X57987Y-37539D02*
X57650Y-37539D01*
X57818Y-37539D02*
X57818Y-36948D01*
X57762Y-37032D01*
X57706Y-37089D01*
X57650Y-37117D01*
X58549Y-37539D02*
X58212Y-37539D01*
X58381Y-37539D02*
X58381Y-36948D01*
X58324Y-37032D01*
X58268Y-37089D01*
X58212Y-37117D01*
X57987Y-38539D02*
X57650Y-38539D01*
X57818Y-38539D02*
X57818Y-37948D01*
X57762Y-38032D01*
X57706Y-38089D01*
X57650Y-38117D01*
X58353Y-37948D02*
X58409Y-37948D01*
X58465Y-37976D01*
X58493Y-38004D01*
X58521Y-38060D01*
X58549Y-38173D01*
X58549Y-38314D01*
X58521Y-38426D01*
X58493Y-38482D01*
X58465Y-38510D01*
X58409Y-38539D01*
X58353Y-38539D01*
X58296Y-38510D01*
X58268Y-38482D01*
X58240Y-38426D01*
X58212Y-38314D01*
X58212Y-38173D01*
X58240Y-38060D01*
X58268Y-38004D01*
X58296Y-37976D01*
X58353Y-37948D01*
X58187Y-39539D02*
X58300Y-39539D01*
X58356Y-39510D01*
X58384Y-39482D01*
X58440Y-39398D01*
X58468Y-39285D01*
X58468Y-39060D01*
X58440Y-39004D01*
X58412Y-38976D01*
X58356Y-38948D01*
X58243Y-38948D01*
X58187Y-38976D01*
X58159Y-39004D01*
X58131Y-39060D01*
X58131Y-39201D01*
X58159Y-39257D01*
X58187Y-39285D01*
X58243Y-39314D01*
X58356Y-39314D01*
X58412Y-39285D01*
X58440Y-39257D01*
X58468Y-39201D01*
X58243Y-40201D02*
X58187Y-40173D01*
X58159Y-40145D01*
X58131Y-40089D01*
X58131Y-40060D01*
X58159Y-40004D01*
X58187Y-39976D01*
X58243Y-39948D01*
X58356Y-39948D01*
X58412Y-39976D01*
X58440Y-40004D01*
X58468Y-40060D01*
X58468Y-40089D01*
X58440Y-40145D01*
X58412Y-40173D01*
X58356Y-40201D01*
X58243Y-40201D01*
X58187Y-40229D01*
X58159Y-40257D01*
X58131Y-40314D01*
X58131Y-40426D01*
X58159Y-40482D01*
X58187Y-40510D01*
X58243Y-40539D01*
X58356Y-40539D01*
X58412Y-40510D01*
X58440Y-40482D01*
X58468Y-40426D01*
X58468Y-40314D01*
X58440Y-40257D01*
X58412Y-40229D01*
X58356Y-40201D01*
X58103Y-41948D02*
X58496Y-41948D01*
X58243Y-42539D01*
X58412Y-42948D02*
X58300Y-42948D01*
X58243Y-42976D01*
X58215Y-43004D01*
X58159Y-43089D01*
X58131Y-43201D01*
X58131Y-43426D01*
X58159Y-43482D01*
X58187Y-43510D01*
X58243Y-43539D01*
X58356Y-43539D01*
X58412Y-43510D01*
X58440Y-43482D01*
X58468Y-43426D01*
X58468Y-43285D01*
X58440Y-43229D01*
X58412Y-43201D01*
X58356Y-43173D01*
X58243Y-43173D01*
X58187Y-43201D01*
X58159Y-43229D01*
X58131Y-43285D01*
X58440Y-44048D02*
X58159Y-44048D01*
X58131Y-44329D01*
X58159Y-44301D01*
X58215Y-44273D01*
X58356Y-44273D01*
X58412Y-44301D01*
X58440Y-44329D01*
X58468Y-44385D01*
X58468Y-44526D01*
X58440Y-44582D01*
X58412Y-44610D01*
X58356Y-44639D01*
X58215Y-44639D01*
X58159Y-44610D01*
X58131Y-44582D01*
X58412Y-45245D02*
X58412Y-45639D01*
X58271Y-45020D02*
X58131Y-45442D01*
X58496Y-45442D01*
X58203Y-45948D02*
X58568Y-45948D01*
X58371Y-46173D01*
X58456Y-46173D01*
X58512Y-46201D01*
X58540Y-46229D01*
X58568Y-46285D01*
X58568Y-46426D01*
X58540Y-46482D01*
X58512Y-46510D01*
X58456Y-46539D01*
X58287Y-46539D01*
X58231Y-46510D01*
X58203Y-46482D01*
X58231Y-47004D02*
X58259Y-46976D01*
X58315Y-46948D01*
X58456Y-46948D01*
X58512Y-46976D01*
X58540Y-47004D01*
X58568Y-47060D01*
X58568Y-47117D01*
X58540Y-47201D01*
X58203Y-47539D01*
X58568Y-47539D01*
G54D12*
X56161Y-48102D02*
X56447Y-48102D01*
X56304Y-48602D02*
X56304Y-48102D01*
X56566Y-48102D02*
X56900Y-48602D01*
X56900Y-48102D02*
X56566Y-48602D01*
X57090Y-48411D02*
X57471Y-48411D01*
X57709Y-48269D02*
X58090Y-48411D01*
X57709Y-48554D01*
X58590Y-48602D02*
X58304Y-48602D01*
X58447Y-48602D02*
X58447Y-48102D01*
X58400Y-48173D01*
X58352Y-48221D01*
X58304Y-48245D01*
X56459Y-49602D02*
X56292Y-49364D01*
X56173Y-49602D02*
X56173Y-49102D01*
X56364Y-49102D01*
X56411Y-49126D01*
X56435Y-49150D01*
X56459Y-49197D01*
X56459Y-49269D01*
X56435Y-49316D01*
X56411Y-49340D01*
X56364Y-49364D01*
X56173Y-49364D01*
X56626Y-49102D02*
X56959Y-49602D01*
X56959Y-49102D02*
X56626Y-49602D01*
X57530Y-49269D02*
X57150Y-49411D01*
X57530Y-49554D01*
X57769Y-49411D02*
X58150Y-49411D01*
X58483Y-49102D02*
X58530Y-49102D01*
X58578Y-49126D01*
X58602Y-49150D01*
X58626Y-49197D01*
X58650Y-49292D01*
X58650Y-49411D01*
X58626Y-49507D01*
X58602Y-49554D01*
X58578Y-49578D01*
X58530Y-49602D01*
X58483Y-49602D01*
X58435Y-49578D01*
X58411Y-49554D01*
X58388Y-49507D01*
X58364Y-49411D01*
X58364Y-49292D01*
X58388Y-49197D01*
X58411Y-49150D01*
X58435Y-49126D01*
X58483Y-49102D01*
G54D11*
X47242Y-51728D02*
X47442Y-51728D01*
X47528Y-52042D02*
X47242Y-52042D01*
X47242Y-51442D01*
X47528Y-51442D01*
X47728Y-52042D02*
X48042Y-51642D01*
X47728Y-51642D02*
X48042Y-52042D01*
X48271Y-51642D02*
X48271Y-52242D01*
X48271Y-51671D02*
X48328Y-51642D01*
X48442Y-51642D01*
X48500Y-51671D01*
X48528Y-51700D01*
X48557Y-51757D01*
X48557Y-51928D01*
X48528Y-51985D01*
X48500Y-52014D01*
X48442Y-52042D01*
X48328Y-52042D01*
X48271Y-52014D01*
X48899Y-52042D02*
X48842Y-52014D01*
X48814Y-51957D01*
X48814Y-51442D01*
X49214Y-52042D02*
X49157Y-52014D01*
X49128Y-51985D01*
X49100Y-51928D01*
X49100Y-51757D01*
X49128Y-51700D01*
X49157Y-51671D01*
X49214Y-51642D01*
X49300Y-51642D01*
X49357Y-51671D01*
X49385Y-51700D01*
X49414Y-51757D01*
X49414Y-51928D01*
X49385Y-51985D01*
X49357Y-52014D01*
X49300Y-52042D01*
X49214Y-52042D01*
X49671Y-52042D02*
X49671Y-51642D01*
X49671Y-51757D02*
X49700Y-51700D01*
X49728Y-51671D01*
X49785Y-51642D01*
X49842Y-51642D01*
X50271Y-52014D02*
X50214Y-52042D01*
X50100Y-52042D01*
X50042Y-52014D01*
X50014Y-51957D01*
X50014Y-51728D01*
X50042Y-51671D01*
X50100Y-51642D01*
X50214Y-51642D01*
X50271Y-51671D01*
X50300Y-51728D01*
X50300Y-51785D01*
X50014Y-51842D01*
X50557Y-51728D02*
X50757Y-51728D01*
X50842Y-52042D02*
X50557Y-52042D01*
X50557Y-51442D01*
X50842Y-51442D01*
X51100Y-52042D02*
X51100Y-51642D01*
X51100Y-51700D02*
X51128Y-51671D01*
X51185Y-51642D01*
X51271Y-51642D01*
X51328Y-51671D01*
X51357Y-51728D01*
X51357Y-52042D01*
X51357Y-51728D02*
X51385Y-51671D01*
X51442Y-51642D01*
X51528Y-51642D01*
X51585Y-51671D01*
X51614Y-51728D01*
X51614Y-52042D01*
X51900Y-52042D02*
X51900Y-51442D01*
X51900Y-51671D02*
X51957Y-51642D01*
X52071Y-51642D01*
X52128Y-51671D01*
X52157Y-51700D01*
X52185Y-51757D01*
X52185Y-51928D01*
X52157Y-51985D01*
X52128Y-52014D01*
X52071Y-52042D01*
X51957Y-52042D01*
X51900Y-52014D01*
X52671Y-52014D02*
X52614Y-52042D01*
X52500Y-52042D01*
X52442Y-52014D01*
X52414Y-51957D01*
X52414Y-51728D01*
X52442Y-51671D01*
X52500Y-51642D01*
X52614Y-51642D01*
X52671Y-51671D01*
X52700Y-51728D01*
X52700Y-51785D01*
X52414Y-51842D01*
X53214Y-52042D02*
X53214Y-51442D01*
X53214Y-52014D02*
X53157Y-52042D01*
X53042Y-52042D01*
X52985Y-52014D01*
X52957Y-51985D01*
X52928Y-51928D01*
X52928Y-51757D01*
X52957Y-51700D01*
X52985Y-51671D01*
X53042Y-51642D01*
X53157Y-51642D01*
X53214Y-51671D01*
X53757Y-52042D02*
X53757Y-51442D01*
X53757Y-52014D02*
X53700Y-52042D01*
X53585Y-52042D01*
X53528Y-52014D01*
X53500Y-51985D01*
X53471Y-51928D01*
X53471Y-51757D01*
X53500Y-51700D01*
X53528Y-51671D01*
X53585Y-51642D01*
X53700Y-51642D01*
X53757Y-51671D01*
X54271Y-52014D02*
X54214Y-52042D01*
X54100Y-52042D01*
X54042Y-52014D01*
X54014Y-51957D01*
X54014Y-51728D01*
X54042Y-51671D01*
X54100Y-51642D01*
X54214Y-51642D01*
X54271Y-51671D01*
X54300Y-51728D01*
X54300Y-51785D01*
X54014Y-51842D01*
X54814Y-52042D02*
X54814Y-51442D01*
X54814Y-52014D02*
X54757Y-52042D01*
X54642Y-52042D01*
X54585Y-52014D01*
X54557Y-51985D01*
X54528Y-51928D01*
X54528Y-51757D01*
X54557Y-51700D01*
X54585Y-51671D01*
X54642Y-51642D01*
X54757Y-51642D01*
X54814Y-51671D01*
X55100Y-51985D02*
X55128Y-52014D01*
X55100Y-52042D01*
X55071Y-52014D01*
X55100Y-51985D01*
X55100Y-52042D01*
X55642Y-52014D02*
X55585Y-52042D01*
X55471Y-52042D01*
X55414Y-52014D01*
X55385Y-51985D01*
X55357Y-51928D01*
X55357Y-51757D01*
X55385Y-51700D01*
X55414Y-51671D01*
X55471Y-51642D01*
X55585Y-51642D01*
X55642Y-51671D01*
X55985Y-52042D02*
X55928Y-52014D01*
X55900Y-51985D01*
X55871Y-51928D01*
X55871Y-51757D01*
X55900Y-51700D01*
X55928Y-51671D01*
X55985Y-51642D01*
X56071Y-51642D01*
X56128Y-51671D01*
X56157Y-51700D01*
X56185Y-51757D01*
X56185Y-51928D01*
X56157Y-51985D01*
X56128Y-52014D01*
X56071Y-52042D01*
X55985Y-52042D01*
X56442Y-52042D02*
X56442Y-51642D01*
X56442Y-51700D02*
X56471Y-51671D01*
X56528Y-51642D01*
X56614Y-51642D01*
X56671Y-51671D01*
X56700Y-51728D01*
X56700Y-52042D01*
X56700Y-51728D02*
X56728Y-51671D01*
X56785Y-51642D01*
X56871Y-51642D01*
X56928Y-51671D01*
X56957Y-51728D01*
X56957Y-52042D01*
G54D12*
X55325Y-50782D02*
X55175Y-50567D01*
X55067Y-50782D02*
X55067Y-50332D01*
X55239Y-50332D01*
X55282Y-50353D01*
X55303Y-50375D01*
X55325Y-50417D01*
X55325Y-50482D01*
X55303Y-50525D01*
X55282Y-50546D01*
X55239Y-50567D01*
X55067Y-50567D01*
X55475Y-50332D02*
X55775Y-50782D01*
X55775Y-50332D02*
X55475Y-50782D01*
X51757Y-50332D02*
X52014Y-50332D01*
X51885Y-50782D02*
X51885Y-50332D01*
X52121Y-50332D02*
X52421Y-50782D01*
X52421Y-50332D02*
X52121Y-50782D01*
G54D11*
X44700Y-24270D02*
X44981Y-24270D01*
X44643Y-24439D02*
X44840Y-23848D01*
X45037Y-24439D01*
X45571Y-24439D02*
X45375Y-24157D01*
X45234Y-24439D02*
X45234Y-23848D01*
X45459Y-23848D01*
X45515Y-23876D01*
X45543Y-23904D01*
X45571Y-23960D01*
X45571Y-24045D01*
X45543Y-24101D01*
X45515Y-24129D01*
X45459Y-24157D01*
X45234Y-24157D01*
X45825Y-24439D02*
X45825Y-23848D01*
X45965Y-23848D01*
X46050Y-23876D01*
X46106Y-23932D01*
X46134Y-23989D01*
X46162Y-24101D01*
X46162Y-24185D01*
X46134Y-24298D01*
X46106Y-24354D01*
X46050Y-24410D01*
X45965Y-24439D01*
X45825Y-24439D01*
X46415Y-23848D02*
X46415Y-24326D01*
X46443Y-24382D01*
X46471Y-24410D01*
X46528Y-24439D01*
X46640Y-24439D01*
X46696Y-24410D01*
X46724Y-24382D01*
X46753Y-24326D01*
X46753Y-23848D01*
X47034Y-24439D02*
X47034Y-23848D01*
X47315Y-24439D02*
X47315Y-23848D01*
X47652Y-24439D01*
X47652Y-23848D01*
X48046Y-23848D02*
X48159Y-23848D01*
X48215Y-23876D01*
X48271Y-23932D01*
X48299Y-24045D01*
X48299Y-24242D01*
X48271Y-24354D01*
X48215Y-24410D01*
X48159Y-24439D01*
X48046Y-24439D01*
X47990Y-24410D01*
X47934Y-24354D01*
X47906Y-24242D01*
X47906Y-24045D01*
X47934Y-23932D01*
X47990Y-23876D01*
X48046Y-23848D01*
G54D13*
X44300Y-22800D02*
X44300Y-25800D01*
X44300Y-22800D02*
X47300Y-22800D01*
X60300Y-22800D02*
X57300Y-22800D01*
X60300Y-22800D02*
X60300Y-25800D01*
X44300Y-52800D02*
X47300Y-52800D01*
X44300Y-52800D02*
X44300Y-49800D01*
X60300Y-52800D02*
X60300Y-49800D01*
X60300Y-52800D02*
X57300Y-52800D01*
G54D11*
X62535Y-43539D02*
X62535Y-42948D01*
X62873Y-43539D01*
X62873Y-42948D01*
X63492Y-43482D02*
X63464Y-43510D01*
X63379Y-43539D01*
X63323Y-43539D01*
X63239Y-43510D01*
X63182Y-43454D01*
X63154Y-43398D01*
X63126Y-43285D01*
X63126Y-43201D01*
X63154Y-43089D01*
X63182Y-43032D01*
X63239Y-42976D01*
X63323Y-42948D01*
X63379Y-42948D01*
X63464Y-42976D01*
X63492Y-43004D01*
X62535Y-42539D02*
X62535Y-41948D01*
X62873Y-42539D01*
X62873Y-41948D01*
X63492Y-42482D02*
X63464Y-42510D01*
X63379Y-42539D01*
X63323Y-42539D01*
X63239Y-42510D01*
X63182Y-42454D01*
X63154Y-42398D01*
X63126Y-42285D01*
X63126Y-42201D01*
X63154Y-42089D01*
X63182Y-42032D01*
X63239Y-41976D01*
X63323Y-41948D01*
X63379Y-41948D01*
X63464Y-41976D01*
X63492Y-42004D01*
X62535Y-40539D02*
X62535Y-39948D01*
X62873Y-40539D01*
X62873Y-39948D01*
X63492Y-40482D02*
X63464Y-40510D01*
X63379Y-40539D01*
X63323Y-40539D01*
X63239Y-40510D01*
X63182Y-40454D01*
X63154Y-40398D01*
X63126Y-40285D01*
X63126Y-40201D01*
X63154Y-40089D01*
X63182Y-40032D01*
X63239Y-39976D01*
X63323Y-39948D01*
X63379Y-39948D01*
X63464Y-39976D01*
X63492Y-40004D01*
X62535Y-39539D02*
X62535Y-38948D01*
X62873Y-39539D01*
X62873Y-38948D01*
X63492Y-39482D02*
X63464Y-39510D01*
X63379Y-39539D01*
X63323Y-39539D01*
X63239Y-39510D01*
X63182Y-39454D01*
X63154Y-39398D01*
X63126Y-39285D01*
X63126Y-39201D01*
X63154Y-39089D01*
X63182Y-39032D01*
X63239Y-38976D01*
X63323Y-38948D01*
X63379Y-38948D01*
X63464Y-38976D01*
X63492Y-39004D01*
X62535Y-38639D02*
X62535Y-38048D01*
X62873Y-38639D01*
X62873Y-38048D01*
X63492Y-38582D02*
X63464Y-38610D01*
X63379Y-38639D01*
X63323Y-38639D01*
X63239Y-38610D01*
X63182Y-38554D01*
X63154Y-38498D01*
X63126Y-38385D01*
X63126Y-38301D01*
X63154Y-38189D01*
X63182Y-38132D01*
X63239Y-38076D01*
X63323Y-38048D01*
X63379Y-38048D01*
X63464Y-38076D01*
X63492Y-38104D01*
X62535Y-37539D02*
X62535Y-36948D01*
X62873Y-37539D01*
X62873Y-36948D01*
X63492Y-37482D02*
X63464Y-37510D01*
X63379Y-37539D01*
X63323Y-37539D01*
X63239Y-37510D01*
X63182Y-37454D01*
X63154Y-37398D01*
X63126Y-37285D01*
X63126Y-37201D01*
X63154Y-37089D01*
X63182Y-37032D01*
X63239Y-36976D01*
X63323Y-36948D01*
X63379Y-36948D01*
X63464Y-36976D01*
X63492Y-37004D01*
X62535Y-36539D02*
X62535Y-35948D01*
X62873Y-36539D01*
X62873Y-35948D01*
X63492Y-36482D02*
X63464Y-36510D01*
X63379Y-36539D01*
X63323Y-36539D01*
X63239Y-36510D01*
X63182Y-36454D01*
X63154Y-36398D01*
X63126Y-36285D01*
X63126Y-36201D01*
X63154Y-36089D01*
X63182Y-36032D01*
X63239Y-35976D01*
X63323Y-35948D01*
X63379Y-35948D01*
X63464Y-35976D01*
X63492Y-36004D01*
X62535Y-35539D02*
X62535Y-34948D01*
X62873Y-35539D01*
X62873Y-34948D01*
X63492Y-35482D02*
X63464Y-35510D01*
X63379Y-35539D01*
X63323Y-35539D01*
X63239Y-35510D01*
X63182Y-35454D01*
X63154Y-35398D01*
X63126Y-35285D01*
X63126Y-35201D01*
X63154Y-35089D01*
X63182Y-35032D01*
X63239Y-34976D01*
X63323Y-34948D01*
X63379Y-34948D01*
X63464Y-34976D01*
X63492Y-35004D01*
X62535Y-34539D02*
X62535Y-33948D01*
X62873Y-34539D01*
X62873Y-33948D01*
X63492Y-34482D02*
X63464Y-34510D01*
X63379Y-34539D01*
X63323Y-34539D01*
X63239Y-34510D01*
X63182Y-34454D01*
X63154Y-34398D01*
X63126Y-34285D01*
X63126Y-34201D01*
X63154Y-34089D01*
X63182Y-34032D01*
X63239Y-33976D01*
X63323Y-33948D01*
X63379Y-33948D01*
X63464Y-33976D01*
X63492Y-34004D01*
X62535Y-33539D02*
X62535Y-32948D01*
X62873Y-33539D01*
X62873Y-32948D01*
X63492Y-33482D02*
X63464Y-33510D01*
X63379Y-33539D01*
X63323Y-33539D01*
X63239Y-33510D01*
X63182Y-33454D01*
X63154Y-33398D01*
X63126Y-33285D01*
X63126Y-33201D01*
X63154Y-33089D01*
X63182Y-33032D01*
X63239Y-32976D01*
X63323Y-32948D01*
X63379Y-32948D01*
X63464Y-32976D01*
X63492Y-33004D01*
X62535Y-32539D02*
X62535Y-31948D01*
X62873Y-32539D01*
X62873Y-31948D01*
X63492Y-32482D02*
X63464Y-32510D01*
X63379Y-32539D01*
X63323Y-32539D01*
X63239Y-32510D01*
X63182Y-32454D01*
X63154Y-32398D01*
X63126Y-32285D01*
X63126Y-32201D01*
X63154Y-32089D01*
X63182Y-32032D01*
X63239Y-31976D01*
X63323Y-31948D01*
X63379Y-31948D01*
X63464Y-31976D01*
X63492Y-32004D01*
X74035Y-41539D02*
X74035Y-40948D01*
X74373Y-41539D01*
X74373Y-40948D01*
X74992Y-41482D02*
X74964Y-41510D01*
X74879Y-41539D01*
X74823Y-41539D01*
X74739Y-41510D01*
X74682Y-41454D01*
X74654Y-41398D01*
X74626Y-41285D01*
X74626Y-41201D01*
X74654Y-41089D01*
X74682Y-41032D01*
X74739Y-40976D01*
X74823Y-40948D01*
X74879Y-40948D01*
X74964Y-40976D01*
X74992Y-41004D01*
X62550Y-31048D02*
X62887Y-31048D01*
X62718Y-31639D02*
X62718Y-31048D01*
X63028Y-31048D02*
X63421Y-31639D01*
X63421Y-31048D02*
X63028Y-31639D01*
X62901Y-30539D02*
X62704Y-30257D01*
X62564Y-30539D02*
X62564Y-29948D01*
X62789Y-29948D01*
X62845Y-29976D01*
X62873Y-30004D01*
X62901Y-30060D01*
X62901Y-30145D01*
X62873Y-30201D01*
X62845Y-30229D01*
X62789Y-30257D01*
X62564Y-30257D01*
X63098Y-29948D02*
X63492Y-30539D01*
X63492Y-29948D02*
X63098Y-30539D01*
X62673Y-41502D02*
X62507Y-41264D01*
X62388Y-41502D02*
X62388Y-41002D01*
X62578Y-41002D01*
X62626Y-41026D01*
X62650Y-41050D01*
X62673Y-41097D01*
X62673Y-41169D01*
X62650Y-41216D01*
X62626Y-41240D01*
X62578Y-41264D01*
X62388Y-41264D01*
X62888Y-41240D02*
X63054Y-41240D01*
X63126Y-41502D02*
X62888Y-41502D01*
X62888Y-41002D01*
X63126Y-41002D01*
X63316Y-41478D02*
X63388Y-41502D01*
X63507Y-41502D01*
X63554Y-41478D01*
X63578Y-41454D01*
X63602Y-41407D01*
X63602Y-41359D01*
X63578Y-41311D01*
X63554Y-41288D01*
X63507Y-41264D01*
X63411Y-41240D01*
X63364Y-41216D01*
X63340Y-41192D01*
X63316Y-41145D01*
X63316Y-41097D01*
X63340Y-41050D01*
X63364Y-41026D01*
X63411Y-41002D01*
X63530Y-41002D01*
X63602Y-41026D01*
X63816Y-41240D02*
X63983Y-41240D01*
X64054Y-41502D02*
X63816Y-41502D01*
X63816Y-41002D01*
X64054Y-41002D01*
X64197Y-41002D02*
X64483Y-41002D01*
X64340Y-41502D02*
X64340Y-41002D01*
X62478Y-49370D02*
X62759Y-49370D01*
X62421Y-49539D02*
X62618Y-48948D01*
X62815Y-49539D01*
X63265Y-48948D02*
X63153Y-48948D01*
X63096Y-48976D01*
X63068Y-49004D01*
X63012Y-49089D01*
X62984Y-49201D01*
X62984Y-49426D01*
X63012Y-49482D01*
X63040Y-49510D01*
X63096Y-49539D01*
X63209Y-49539D01*
X63265Y-49510D01*
X63293Y-49482D01*
X63321Y-49426D01*
X63321Y-49285D01*
X63293Y-49229D01*
X63265Y-49201D01*
X63209Y-49173D01*
X63096Y-49173D01*
X63040Y-49201D01*
X63012Y-49229D01*
X62984Y-49285D01*
X62478Y-48370D02*
X62759Y-48370D01*
X62421Y-48539D02*
X62618Y-47948D01*
X62815Y-48539D01*
X63293Y-47948D02*
X63012Y-47948D01*
X62984Y-48229D01*
X63012Y-48201D01*
X63068Y-48173D01*
X63209Y-48173D01*
X63265Y-48201D01*
X63293Y-48229D01*
X63321Y-48285D01*
X63321Y-48426D01*
X63293Y-48482D01*
X63265Y-48510D01*
X63209Y-48539D01*
X63068Y-48539D01*
X63012Y-48510D01*
X62984Y-48482D01*
X62478Y-47470D02*
X62759Y-47470D01*
X62421Y-47639D02*
X62618Y-47048D01*
X62815Y-47639D01*
X63265Y-47245D02*
X63265Y-47639D01*
X63124Y-47020D02*
X62984Y-47442D01*
X63349Y-47442D01*
X62478Y-46370D02*
X62759Y-46370D01*
X62421Y-46539D02*
X62618Y-45948D01*
X62815Y-46539D01*
X62956Y-45948D02*
X63321Y-45948D01*
X63124Y-46173D01*
X63209Y-46173D01*
X63265Y-46201D01*
X63293Y-46229D01*
X63321Y-46285D01*
X63321Y-46426D01*
X63293Y-46482D01*
X63265Y-46510D01*
X63209Y-46539D01*
X63040Y-46539D01*
X62984Y-46510D01*
X62956Y-46482D01*
X62478Y-45470D02*
X62759Y-45470D01*
X62421Y-45639D02*
X62618Y-45048D01*
X62815Y-45639D01*
X63321Y-45639D02*
X62984Y-45639D01*
X63153Y-45639D02*
X63153Y-45048D01*
X63096Y-45132D01*
X63040Y-45189D01*
X62984Y-45217D01*
X62478Y-44470D02*
X62759Y-44470D01*
X62421Y-44639D02*
X62618Y-44048D01*
X62815Y-44639D01*
X63124Y-44048D02*
X63181Y-44048D01*
X63237Y-44076D01*
X63265Y-44104D01*
X63293Y-44160D01*
X63321Y-44273D01*
X63321Y-44414D01*
X63293Y-44526D01*
X63265Y-44582D01*
X63237Y-44610D01*
X63181Y-44639D01*
X63124Y-44639D01*
X63068Y-44610D01*
X63040Y-44582D01*
X63012Y-44526D01*
X62984Y-44414D01*
X62984Y-44273D01*
X63012Y-44160D01*
X63040Y-44104D01*
X63068Y-44076D01*
X63124Y-44048D01*
X73412Y-29948D02*
X73609Y-30539D01*
X73806Y-29948D01*
X74340Y-30482D02*
X74312Y-30510D01*
X74228Y-30539D01*
X74171Y-30539D01*
X74087Y-30510D01*
X74031Y-30454D01*
X74003Y-30398D01*
X73975Y-30285D01*
X73975Y-30201D01*
X74003Y-30089D01*
X74031Y-30032D01*
X74087Y-29976D01*
X74171Y-29948D01*
X74228Y-29948D01*
X74312Y-29976D01*
X74340Y-30004D01*
X74931Y-30482D02*
X74903Y-30510D01*
X74818Y-30539D01*
X74762Y-30539D01*
X74678Y-30510D01*
X74621Y-30454D01*
X74593Y-30398D01*
X74565Y-30285D01*
X74565Y-30201D01*
X74593Y-30089D01*
X74621Y-30032D01*
X74678Y-29976D01*
X74762Y-29948D01*
X74818Y-29948D01*
X74903Y-29976D01*
X74931Y-30004D01*
X73750Y-31076D02*
X73693Y-31048D01*
X73609Y-31048D01*
X73525Y-31076D01*
X73468Y-31132D01*
X73440Y-31189D01*
X73412Y-31301D01*
X73412Y-31385D01*
X73440Y-31498D01*
X73468Y-31554D01*
X73525Y-31610D01*
X73609Y-31639D01*
X73665Y-31639D01*
X73750Y-31610D01*
X73778Y-31582D01*
X73778Y-31385D01*
X73665Y-31385D01*
X74031Y-31639D02*
X74031Y-31048D01*
X74368Y-31639D01*
X74368Y-31048D01*
X74649Y-31639D02*
X74649Y-31048D01*
X74790Y-31048D01*
X74874Y-31076D01*
X74931Y-31132D01*
X74959Y-31189D01*
X74987Y-31301D01*
X74987Y-31385D01*
X74959Y-31498D01*
X74931Y-31554D01*
X74874Y-31610D01*
X74790Y-31639D01*
X74649Y-31639D01*
X73704Y-32578D02*
X73776Y-32602D01*
X73895Y-32602D01*
X73942Y-32578D01*
X73966Y-32554D01*
X73990Y-32507D01*
X73990Y-32459D01*
X73966Y-32411D01*
X73942Y-32388D01*
X73895Y-32364D01*
X73800Y-32340D01*
X73752Y-32316D01*
X73728Y-32292D01*
X73704Y-32245D01*
X73704Y-32197D01*
X73728Y-32150D01*
X73752Y-32126D01*
X73800Y-32102D01*
X73919Y-32102D01*
X73990Y-32126D01*
X74490Y-32554D02*
X74466Y-32578D01*
X74395Y-32602D01*
X74347Y-32602D01*
X74276Y-32578D01*
X74228Y-32530D01*
X74204Y-32483D01*
X74180Y-32388D01*
X74180Y-32316D01*
X74204Y-32221D01*
X74228Y-32173D01*
X74276Y-32126D01*
X74347Y-32102D01*
X74395Y-32102D01*
X74466Y-32126D01*
X74490Y-32150D01*
X74942Y-32602D02*
X74704Y-32602D01*
X74704Y-32102D01*
X73692Y-33678D02*
X73764Y-33702D01*
X73883Y-33702D01*
X73930Y-33678D01*
X73954Y-33654D01*
X73978Y-33607D01*
X73978Y-33559D01*
X73954Y-33511D01*
X73930Y-33488D01*
X73883Y-33464D01*
X73788Y-33440D01*
X73740Y-33416D01*
X73716Y-33392D01*
X73692Y-33345D01*
X73692Y-33297D01*
X73716Y-33250D01*
X73740Y-33226D01*
X73788Y-33202D01*
X73907Y-33202D01*
X73978Y-33226D01*
X74192Y-33702D02*
X74192Y-33202D01*
X74311Y-33202D01*
X74383Y-33226D01*
X74430Y-33273D01*
X74454Y-33321D01*
X74478Y-33416D01*
X74478Y-33488D01*
X74454Y-33583D01*
X74430Y-33630D01*
X74383Y-33678D01*
X74311Y-33702D01*
X74192Y-33702D01*
X74669Y-33559D02*
X74907Y-33559D01*
X74621Y-33702D02*
X74788Y-33202D01*
X74954Y-33702D01*
X73290Y-34459D02*
X73528Y-34459D01*
X73242Y-34602D02*
X73409Y-34102D01*
X73576Y-34602D01*
X74028Y-34602D02*
X73861Y-34364D01*
X73742Y-34602D02*
X73742Y-34102D01*
X73933Y-34102D01*
X73980Y-34126D01*
X74004Y-34150D01*
X74028Y-34197D01*
X74028Y-34269D01*
X74004Y-34316D01*
X73980Y-34340D01*
X73933Y-34364D01*
X73742Y-34364D01*
X74242Y-34340D02*
X74409Y-34340D01*
X74480Y-34602D02*
X74242Y-34602D01*
X74242Y-34102D01*
X74480Y-34102D01*
X74861Y-34340D02*
X74695Y-34340D01*
X74695Y-34602D02*
X74695Y-34102D01*
X74933Y-34102D01*
X74387Y-35539D02*
X74050Y-35539D01*
X74218Y-35539D02*
X74218Y-34948D01*
X74162Y-35032D01*
X74106Y-35089D01*
X74050Y-35117D01*
X74584Y-34948D02*
X74949Y-34948D01*
X74753Y-35173D01*
X74837Y-35173D01*
X74893Y-35201D01*
X74921Y-35229D01*
X74949Y-35285D01*
X74949Y-35426D01*
X74921Y-35482D01*
X74893Y-35510D01*
X74837Y-35539D01*
X74668Y-35539D01*
X74612Y-35510D01*
X74584Y-35482D01*
X74387Y-36539D02*
X74050Y-36539D01*
X74218Y-36539D02*
X74218Y-35948D01*
X74162Y-36032D01*
X74106Y-36089D01*
X74050Y-36117D01*
X74612Y-36004D02*
X74640Y-35976D01*
X74696Y-35948D01*
X74837Y-35948D01*
X74893Y-35976D01*
X74921Y-36004D01*
X74949Y-36060D01*
X74949Y-36117D01*
X74921Y-36201D01*
X74584Y-36539D01*
X74949Y-36539D01*
X74387Y-37539D02*
X74050Y-37539D01*
X74218Y-37539D02*
X74218Y-36948D01*
X74162Y-37032D01*
X74106Y-37089D01*
X74050Y-37117D01*
X74949Y-37539D02*
X74612Y-37539D01*
X74781Y-37539D02*
X74781Y-36948D01*
X74724Y-37032D01*
X74668Y-37089D01*
X74612Y-37117D01*
X74387Y-38539D02*
X74050Y-38539D01*
X74218Y-38539D02*
X74218Y-37948D01*
X74162Y-38032D01*
X74106Y-38089D01*
X74050Y-38117D01*
X74753Y-37948D02*
X74809Y-37948D01*
X74865Y-37976D01*
X74893Y-38004D01*
X74921Y-38060D01*
X74949Y-38173D01*
X74949Y-38314D01*
X74921Y-38426D01*
X74893Y-38482D01*
X74865Y-38510D01*
X74809Y-38539D01*
X74753Y-38539D01*
X74696Y-38510D01*
X74668Y-38482D01*
X74640Y-38426D01*
X74612Y-38314D01*
X74612Y-38173D01*
X74640Y-38060D01*
X74668Y-38004D01*
X74696Y-37976D01*
X74753Y-37948D01*
X74587Y-39539D02*
X74700Y-39539D01*
X74756Y-39510D01*
X74784Y-39482D01*
X74840Y-39398D01*
X74868Y-39285D01*
X74868Y-39060D01*
X74840Y-39004D01*
X74812Y-38976D01*
X74756Y-38948D01*
X74643Y-38948D01*
X74587Y-38976D01*
X74559Y-39004D01*
X74531Y-39060D01*
X74531Y-39201D01*
X74559Y-39257D01*
X74587Y-39285D01*
X74643Y-39314D01*
X74756Y-39314D01*
X74812Y-39285D01*
X74840Y-39257D01*
X74868Y-39201D01*
X74643Y-40201D02*
X74587Y-40173D01*
X74559Y-40145D01*
X74531Y-40089D01*
X74531Y-40060D01*
X74559Y-40004D01*
X74587Y-39976D01*
X74643Y-39948D01*
X74756Y-39948D01*
X74812Y-39976D01*
X74840Y-40004D01*
X74868Y-40060D01*
X74868Y-40089D01*
X74840Y-40145D01*
X74812Y-40173D01*
X74756Y-40201D01*
X74643Y-40201D01*
X74587Y-40229D01*
X74559Y-40257D01*
X74531Y-40314D01*
X74531Y-40426D01*
X74559Y-40482D01*
X74587Y-40510D01*
X74643Y-40539D01*
X74756Y-40539D01*
X74812Y-40510D01*
X74840Y-40482D01*
X74868Y-40426D01*
X74868Y-40314D01*
X74840Y-40257D01*
X74812Y-40229D01*
X74756Y-40201D01*
X74503Y-41948D02*
X74896Y-41948D01*
X74643Y-42539D01*
X74812Y-42948D02*
X74700Y-42948D01*
X74643Y-42976D01*
X74615Y-43004D01*
X74559Y-43089D01*
X74531Y-43201D01*
X74531Y-43426D01*
X74559Y-43482D01*
X74587Y-43510D01*
X74643Y-43539D01*
X74756Y-43539D01*
X74812Y-43510D01*
X74840Y-43482D01*
X74868Y-43426D01*
X74868Y-43285D01*
X74840Y-43229D01*
X74812Y-43201D01*
X74756Y-43173D01*
X74643Y-43173D01*
X74587Y-43201D01*
X74559Y-43229D01*
X74531Y-43285D01*
X74840Y-44048D02*
X74559Y-44048D01*
X74531Y-44329D01*
X74559Y-44301D01*
X74615Y-44273D01*
X74756Y-44273D01*
X74812Y-44301D01*
X74840Y-44329D01*
X74868Y-44385D01*
X74868Y-44526D01*
X74840Y-44582D01*
X74812Y-44610D01*
X74756Y-44639D01*
X74615Y-44639D01*
X74559Y-44610D01*
X74531Y-44582D01*
X74812Y-45245D02*
X74812Y-45639D01*
X74671Y-45020D02*
X74531Y-45442D01*
X74896Y-45442D01*
X74603Y-45948D02*
X74968Y-45948D01*
X74771Y-46173D01*
X74856Y-46173D01*
X74912Y-46201D01*
X74940Y-46229D01*
X74968Y-46285D01*
X74968Y-46426D01*
X74940Y-46482D01*
X74912Y-46510D01*
X74856Y-46539D01*
X74687Y-46539D01*
X74631Y-46510D01*
X74603Y-46482D01*
X74631Y-47004D02*
X74659Y-46976D01*
X74715Y-46948D01*
X74856Y-46948D01*
X74912Y-46976D01*
X74940Y-47004D01*
X74968Y-47060D01*
X74968Y-47117D01*
X74940Y-47201D01*
X74603Y-47539D01*
X74968Y-47539D01*
G54D12*
X72561Y-48102D02*
X72847Y-48102D01*
X72704Y-48602D02*
X72704Y-48102D01*
X72966Y-48102D02*
X73300Y-48602D01*
X73300Y-48102D02*
X72966Y-48602D01*
X73490Y-48411D02*
X73871Y-48411D01*
X74109Y-48269D02*
X74490Y-48411D01*
X74109Y-48554D01*
X74990Y-48602D02*
X74704Y-48602D01*
X74847Y-48602D02*
X74847Y-48102D01*
X74800Y-48173D01*
X74752Y-48221D01*
X74704Y-48245D01*
X72859Y-49602D02*
X72692Y-49364D01*
X72573Y-49602D02*
X72573Y-49102D01*
X72764Y-49102D01*
X72811Y-49126D01*
X72835Y-49150D01*
X72859Y-49197D01*
X72859Y-49269D01*
X72835Y-49316D01*
X72811Y-49340D01*
X72764Y-49364D01*
X72573Y-49364D01*
X73026Y-49102D02*
X73359Y-49602D01*
X73359Y-49102D02*
X73026Y-49602D01*
X73930Y-49269D02*
X73550Y-49411D01*
X73930Y-49554D01*
X74169Y-49411D02*
X74550Y-49411D01*
X74883Y-49102D02*
X74930Y-49102D01*
X74978Y-49126D01*
X75002Y-49150D01*
X75026Y-49197D01*
X75050Y-49292D01*
X75050Y-49411D01*
X75026Y-49507D01*
X75002Y-49554D01*
X74978Y-49578D01*
X74930Y-49602D01*
X74883Y-49602D01*
X74835Y-49578D01*
X74811Y-49554D01*
X74788Y-49507D01*
X74764Y-49411D01*
X74764Y-49292D01*
X74788Y-49197D01*
X74811Y-49150D01*
X74835Y-49126D01*
X74883Y-49102D01*
G54D11*
X63642Y-51728D02*
X63842Y-51728D01*
X63928Y-52042D02*
X63642Y-52042D01*
X63642Y-51442D01*
X63928Y-51442D01*
X64128Y-52042D02*
X64442Y-51642D01*
X64128Y-51642D02*
X64442Y-52042D01*
X64671Y-51642D02*
X64671Y-52242D01*
X64671Y-51671D02*
X64728Y-51642D01*
X64842Y-51642D01*
X64900Y-51671D01*
X64928Y-51700D01*
X64957Y-51757D01*
X64957Y-51928D01*
X64928Y-51985D01*
X64900Y-52014D01*
X64842Y-52042D01*
X64728Y-52042D01*
X64671Y-52014D01*
X65299Y-52042D02*
X65242Y-52014D01*
X65214Y-51957D01*
X65214Y-51442D01*
X65614Y-52042D02*
X65557Y-52014D01*
X65528Y-51985D01*
X65500Y-51928D01*
X65500Y-51757D01*
X65528Y-51700D01*
X65557Y-51671D01*
X65614Y-51642D01*
X65700Y-51642D01*
X65757Y-51671D01*
X65785Y-51700D01*
X65814Y-51757D01*
X65814Y-51928D01*
X65785Y-51985D01*
X65757Y-52014D01*
X65700Y-52042D01*
X65614Y-52042D01*
X66071Y-52042D02*
X66071Y-51642D01*
X66071Y-51757D02*
X66100Y-51700D01*
X66128Y-51671D01*
X66185Y-51642D01*
X66242Y-51642D01*
X66671Y-52014D02*
X66614Y-52042D01*
X66500Y-52042D01*
X66442Y-52014D01*
X66414Y-51957D01*
X66414Y-51728D01*
X66442Y-51671D01*
X66500Y-51642D01*
X66614Y-51642D01*
X66671Y-51671D01*
X66700Y-51728D01*
X66700Y-51785D01*
X66414Y-51842D01*
X66957Y-51728D02*
X67157Y-51728D01*
X67242Y-52042D02*
X66957Y-52042D01*
X66957Y-51442D01*
X67242Y-51442D01*
X67500Y-52042D02*
X67500Y-51642D01*
X67500Y-51700D02*
X67528Y-51671D01*
X67585Y-51642D01*
X67671Y-51642D01*
X67728Y-51671D01*
X67757Y-51728D01*
X67757Y-52042D01*
X67757Y-51728D02*
X67785Y-51671D01*
X67842Y-51642D01*
X67928Y-51642D01*
X67985Y-51671D01*
X68014Y-51728D01*
X68014Y-52042D01*
X68300Y-52042D02*
X68300Y-51442D01*
X68300Y-51671D02*
X68357Y-51642D01*
X68471Y-51642D01*
X68528Y-51671D01*
X68557Y-51700D01*
X68585Y-51757D01*
X68585Y-51928D01*
X68557Y-51985D01*
X68528Y-52014D01*
X68471Y-52042D01*
X68357Y-52042D01*
X68300Y-52014D01*
X69071Y-52014D02*
X69014Y-52042D01*
X68900Y-52042D01*
X68842Y-52014D01*
X68814Y-51957D01*
X68814Y-51728D01*
X68842Y-51671D01*
X68900Y-51642D01*
X69014Y-51642D01*
X69071Y-51671D01*
X69100Y-51728D01*
X69100Y-51785D01*
X68814Y-51842D01*
X69614Y-52042D02*
X69614Y-51442D01*
X69614Y-52014D02*
X69557Y-52042D01*
X69442Y-52042D01*
X69385Y-52014D01*
X69357Y-51985D01*
X69328Y-51928D01*
X69328Y-51757D01*
X69357Y-51700D01*
X69385Y-51671D01*
X69442Y-51642D01*
X69557Y-51642D01*
X69614Y-51671D01*
X70157Y-52042D02*
X70157Y-51442D01*
X70157Y-52014D02*
X70100Y-52042D01*
X69985Y-52042D01*
X69928Y-52014D01*
X69900Y-51985D01*
X69871Y-51928D01*
X69871Y-51757D01*
X69900Y-51700D01*
X69928Y-51671D01*
X69985Y-51642D01*
X70100Y-51642D01*
X70157Y-51671D01*
X70671Y-52014D02*
X70614Y-52042D01*
X70500Y-52042D01*
X70442Y-52014D01*
X70414Y-51957D01*
X70414Y-51728D01*
X70442Y-51671D01*
X70500Y-51642D01*
X70614Y-51642D01*
X70671Y-51671D01*
X70700Y-51728D01*
X70700Y-51785D01*
X70414Y-51842D01*
X71214Y-52042D02*
X71214Y-51442D01*
X71214Y-52014D02*
X71157Y-52042D01*
X71042Y-52042D01*
X70985Y-52014D01*
X70957Y-51985D01*
X70928Y-51928D01*
X70928Y-51757D01*
X70957Y-51700D01*
X70985Y-51671D01*
X71042Y-51642D01*
X71157Y-51642D01*
X71214Y-51671D01*
X71500Y-51985D02*
X71528Y-52014D01*
X71500Y-52042D01*
X71471Y-52014D01*
X71500Y-51985D01*
X71500Y-52042D01*
X72042Y-52014D02*
X71985Y-52042D01*
X71871Y-52042D01*
X71814Y-52014D01*
X71785Y-51985D01*
X71757Y-51928D01*
X71757Y-51757D01*
X71785Y-51700D01*
X71814Y-51671D01*
X71871Y-51642D01*
X71985Y-51642D01*
X72042Y-51671D01*
X72385Y-52042D02*
X72328Y-52014D01*
X72300Y-51985D01*
X72271Y-51928D01*
X72271Y-51757D01*
X72300Y-51700D01*
X72328Y-51671D01*
X72385Y-51642D01*
X72471Y-51642D01*
X72528Y-51671D01*
X72557Y-51700D01*
X72585Y-51757D01*
X72585Y-51928D01*
X72557Y-51985D01*
X72528Y-52014D01*
X72471Y-52042D01*
X72385Y-52042D01*
X72842Y-52042D02*
X72842Y-51642D01*
X72842Y-51700D02*
X72871Y-51671D01*
X72928Y-51642D01*
X73014Y-51642D01*
X73071Y-51671D01*
X73100Y-51728D01*
X73100Y-52042D01*
X73100Y-51728D02*
X73128Y-51671D01*
X73185Y-51642D01*
X73271Y-51642D01*
X73328Y-51671D01*
X73357Y-51728D01*
X73357Y-52042D01*
G54D12*
X71725Y-50782D02*
X71575Y-50567D01*
X71467Y-50782D02*
X71467Y-50332D01*
X71639Y-50332D01*
X71682Y-50353D01*
X71703Y-50375D01*
X71725Y-50417D01*
X71725Y-50482D01*
X71703Y-50525D01*
X71682Y-50546D01*
X71639Y-50567D01*
X71467Y-50567D01*
X71875Y-50332D02*
X72175Y-50782D01*
X72175Y-50332D02*
X71875Y-50782D01*
X68157Y-50332D02*
X68414Y-50332D01*
X68285Y-50782D02*
X68285Y-50332D01*
X68521Y-50332D02*
X68821Y-50782D01*
X68821Y-50332D02*
X68521Y-50782D01*
G54D11*
X61100Y-24270D02*
X61381Y-24270D01*
X61043Y-24439D02*
X61240Y-23848D01*
X61437Y-24439D01*
X61971Y-24439D02*
X61775Y-24157D01*
X61634Y-24439D02*
X61634Y-23848D01*
X61859Y-23848D01*
X61915Y-23876D01*
X61943Y-23904D01*
X61971Y-23960D01*
X61971Y-24045D01*
X61943Y-24101D01*
X61915Y-24129D01*
X61859Y-24157D01*
X61634Y-24157D01*
X62225Y-24439D02*
X62225Y-23848D01*
X62365Y-23848D01*
X62450Y-23876D01*
X62506Y-23932D01*
X62534Y-23989D01*
X62562Y-24101D01*
X62562Y-24185D01*
X62534Y-24298D01*
X62506Y-24354D01*
X62450Y-24410D01*
X62365Y-24439D01*
X62225Y-24439D01*
X62815Y-23848D02*
X62815Y-24326D01*
X62843Y-24382D01*
X62871Y-24410D01*
X62928Y-24439D01*
X63040Y-24439D01*
X63096Y-24410D01*
X63124Y-24382D01*
X63153Y-24326D01*
X63153Y-23848D01*
X63434Y-24439D02*
X63434Y-23848D01*
X63715Y-24439D02*
X63715Y-23848D01*
X64052Y-24439D01*
X64052Y-23848D01*
X64446Y-23848D02*
X64559Y-23848D01*
X64615Y-23876D01*
X64671Y-23932D01*
X64699Y-24045D01*
X64699Y-24242D01*
X64671Y-24354D01*
X64615Y-24410D01*
X64559Y-24439D01*
X64446Y-24439D01*
X64390Y-24410D01*
X64334Y-24354D01*
X64306Y-24242D01*
X64306Y-24045D01*
X64334Y-23932D01*
X64390Y-23876D01*
X64446Y-23848D01*
G54D13*
X60700Y-22800D02*
X60700Y-25800D01*
X60700Y-22800D02*
X63700Y-22800D01*
X76700Y-22800D02*
X73700Y-22800D01*
X76700Y-22800D02*
X76700Y-25800D01*
X60700Y-52800D02*
X63700Y-52800D01*
X60700Y-52800D02*
X60700Y-49800D01*
X76700Y-52800D02*
X76700Y-49800D01*
X76700Y-52800D02*
X73700Y-52800D01*
G54D11*
X78835Y-43439D02*
X78835Y-42848D01*
X79173Y-43439D01*
X79173Y-42848D01*
X79792Y-43382D02*
X79764Y-43410D01*
X79679Y-43439D01*
X79623Y-43439D01*
X79539Y-43410D01*
X79482Y-43354D01*
X79454Y-43298D01*
X79426Y-43185D01*
X79426Y-43101D01*
X79454Y-42989D01*
X79482Y-42932D01*
X79539Y-42876D01*
X79623Y-42848D01*
X79679Y-42848D01*
X79764Y-42876D01*
X79792Y-42904D01*
X78835Y-42439D02*
X78835Y-41848D01*
X79173Y-42439D01*
X79173Y-41848D01*
X79792Y-42382D02*
X79764Y-42410D01*
X79679Y-42439D01*
X79623Y-42439D01*
X79539Y-42410D01*
X79482Y-42354D01*
X79454Y-42298D01*
X79426Y-42185D01*
X79426Y-42101D01*
X79454Y-41989D01*
X79482Y-41932D01*
X79539Y-41876D01*
X79623Y-41848D01*
X79679Y-41848D01*
X79764Y-41876D01*
X79792Y-41904D01*
X78835Y-40439D02*
X78835Y-39848D01*
X79173Y-40439D01*
X79173Y-39848D01*
X79792Y-40382D02*
X79764Y-40410D01*
X79679Y-40439D01*
X79623Y-40439D01*
X79539Y-40410D01*
X79482Y-40354D01*
X79454Y-40298D01*
X79426Y-40185D01*
X79426Y-40101D01*
X79454Y-39989D01*
X79482Y-39932D01*
X79539Y-39876D01*
X79623Y-39848D01*
X79679Y-39848D01*
X79764Y-39876D01*
X79792Y-39904D01*
X78835Y-39439D02*
X78835Y-38848D01*
X79173Y-39439D01*
X79173Y-38848D01*
X79792Y-39382D02*
X79764Y-39410D01*
X79679Y-39439D01*
X79623Y-39439D01*
X79539Y-39410D01*
X79482Y-39354D01*
X79454Y-39298D01*
X79426Y-39185D01*
X79426Y-39101D01*
X79454Y-38989D01*
X79482Y-38932D01*
X79539Y-38876D01*
X79623Y-38848D01*
X79679Y-38848D01*
X79764Y-38876D01*
X79792Y-38904D01*
X78835Y-38539D02*
X78835Y-37948D01*
X79173Y-38539D01*
X79173Y-37948D01*
X79792Y-38482D02*
X79764Y-38510D01*
X79679Y-38539D01*
X79623Y-38539D01*
X79539Y-38510D01*
X79482Y-38454D01*
X79454Y-38398D01*
X79426Y-38285D01*
X79426Y-38201D01*
X79454Y-38089D01*
X79482Y-38032D01*
X79539Y-37976D01*
X79623Y-37948D01*
X79679Y-37948D01*
X79764Y-37976D01*
X79792Y-38004D01*
X78835Y-37439D02*
X78835Y-36848D01*
X79173Y-37439D01*
X79173Y-36848D01*
X79792Y-37382D02*
X79764Y-37410D01*
X79679Y-37439D01*
X79623Y-37439D01*
X79539Y-37410D01*
X79482Y-37354D01*
X79454Y-37298D01*
X79426Y-37185D01*
X79426Y-37101D01*
X79454Y-36989D01*
X79482Y-36932D01*
X79539Y-36876D01*
X79623Y-36848D01*
X79679Y-36848D01*
X79764Y-36876D01*
X79792Y-36904D01*
X78835Y-36439D02*
X78835Y-35848D01*
X79173Y-36439D01*
X79173Y-35848D01*
X79792Y-36382D02*
X79764Y-36410D01*
X79679Y-36439D01*
X79623Y-36439D01*
X79539Y-36410D01*
X79482Y-36354D01*
X79454Y-36298D01*
X79426Y-36185D01*
X79426Y-36101D01*
X79454Y-35989D01*
X79482Y-35932D01*
X79539Y-35876D01*
X79623Y-35848D01*
X79679Y-35848D01*
X79764Y-35876D01*
X79792Y-35904D01*
X78835Y-35439D02*
X78835Y-34848D01*
X79173Y-35439D01*
X79173Y-34848D01*
X79792Y-35382D02*
X79764Y-35410D01*
X79679Y-35439D01*
X79623Y-35439D01*
X79539Y-35410D01*
X79482Y-35354D01*
X79454Y-35298D01*
X79426Y-35185D01*
X79426Y-35101D01*
X79454Y-34989D01*
X79482Y-34932D01*
X79539Y-34876D01*
X79623Y-34848D01*
X79679Y-34848D01*
X79764Y-34876D01*
X79792Y-34904D01*
X78835Y-34439D02*
X78835Y-33848D01*
X79173Y-34439D01*
X79173Y-33848D01*
X79792Y-34382D02*
X79764Y-34410D01*
X79679Y-34439D01*
X79623Y-34439D01*
X79539Y-34410D01*
X79482Y-34354D01*
X79454Y-34298D01*
X79426Y-34185D01*
X79426Y-34101D01*
X79454Y-33989D01*
X79482Y-33932D01*
X79539Y-33876D01*
X79623Y-33848D01*
X79679Y-33848D01*
X79764Y-33876D01*
X79792Y-33904D01*
X78835Y-33439D02*
X78835Y-32848D01*
X79173Y-33439D01*
X79173Y-32848D01*
X79792Y-33382D02*
X79764Y-33410D01*
X79679Y-33439D01*
X79623Y-33439D01*
X79539Y-33410D01*
X79482Y-33354D01*
X79454Y-33298D01*
X79426Y-33185D01*
X79426Y-33101D01*
X79454Y-32989D01*
X79482Y-32932D01*
X79539Y-32876D01*
X79623Y-32848D01*
X79679Y-32848D01*
X79764Y-32876D01*
X79792Y-32904D01*
X78835Y-32439D02*
X78835Y-31848D01*
X79173Y-32439D01*
X79173Y-31848D01*
X79792Y-32382D02*
X79764Y-32410D01*
X79679Y-32439D01*
X79623Y-32439D01*
X79539Y-32410D01*
X79482Y-32354D01*
X79454Y-32298D01*
X79426Y-32185D01*
X79426Y-32101D01*
X79454Y-31989D01*
X79482Y-31932D01*
X79539Y-31876D01*
X79623Y-31848D01*
X79679Y-31848D01*
X79764Y-31876D01*
X79792Y-31904D01*
X90335Y-41439D02*
X90335Y-40848D01*
X90673Y-41439D01*
X90673Y-40848D01*
X91292Y-41382D02*
X91264Y-41410D01*
X91179Y-41439D01*
X91123Y-41439D01*
X91039Y-41410D01*
X90982Y-41354D01*
X90954Y-41298D01*
X90926Y-41185D01*
X90926Y-41101D01*
X90954Y-40989D01*
X90982Y-40932D01*
X91039Y-40876D01*
X91123Y-40848D01*
X91179Y-40848D01*
X91264Y-40876D01*
X91292Y-40904D01*
X78850Y-30948D02*
X79187Y-30948D01*
X79018Y-31539D02*
X79018Y-30948D01*
X79328Y-30948D02*
X79721Y-31539D01*
X79721Y-30948D02*
X79328Y-31539D01*
X79201Y-30439D02*
X79004Y-30157D01*
X78864Y-30439D02*
X78864Y-29848D01*
X79089Y-29848D01*
X79145Y-29876D01*
X79173Y-29904D01*
X79201Y-29960D01*
X79201Y-30045D01*
X79173Y-30101D01*
X79145Y-30129D01*
X79089Y-30157D01*
X78864Y-30157D01*
X79398Y-29848D02*
X79792Y-30439D01*
X79792Y-29848D02*
X79398Y-30439D01*
X78973Y-41402D02*
X78807Y-41164D01*
X78688Y-41402D02*
X78688Y-40902D01*
X78878Y-40902D01*
X78926Y-40926D01*
X78950Y-40950D01*
X78973Y-40997D01*
X78973Y-41069D01*
X78950Y-41116D01*
X78926Y-41140D01*
X78878Y-41164D01*
X78688Y-41164D01*
X79188Y-41140D02*
X79354Y-41140D01*
X79426Y-41402D02*
X79188Y-41402D01*
X79188Y-40902D01*
X79426Y-40902D01*
X79616Y-41378D02*
X79688Y-41402D01*
X79807Y-41402D01*
X79854Y-41378D01*
X79878Y-41354D01*
X79902Y-41307D01*
X79902Y-41259D01*
X79878Y-41211D01*
X79854Y-41188D01*
X79807Y-41164D01*
X79711Y-41140D01*
X79664Y-41116D01*
X79640Y-41092D01*
X79616Y-41045D01*
X79616Y-40997D01*
X79640Y-40950D01*
X79664Y-40926D01*
X79711Y-40902D01*
X79830Y-40902D01*
X79902Y-40926D01*
X80116Y-41140D02*
X80283Y-41140D01*
X80354Y-41402D02*
X80116Y-41402D01*
X80116Y-40902D01*
X80354Y-40902D01*
X80497Y-40902D02*
X80783Y-40902D01*
X80640Y-41402D02*
X80640Y-40902D01*
X78778Y-49270D02*
X79059Y-49270D01*
X78721Y-49439D02*
X78918Y-48848D01*
X79115Y-49439D01*
X79565Y-48848D02*
X79453Y-48848D01*
X79396Y-48876D01*
X79368Y-48904D01*
X79312Y-48989D01*
X79284Y-49101D01*
X79284Y-49326D01*
X79312Y-49382D01*
X79340Y-49410D01*
X79396Y-49439D01*
X79509Y-49439D01*
X79565Y-49410D01*
X79593Y-49382D01*
X79621Y-49326D01*
X79621Y-49185D01*
X79593Y-49129D01*
X79565Y-49101D01*
X79509Y-49073D01*
X79396Y-49073D01*
X79340Y-49101D01*
X79312Y-49129D01*
X79284Y-49185D01*
X78778Y-48270D02*
X79059Y-48270D01*
X78721Y-48439D02*
X78918Y-47848D01*
X79115Y-48439D01*
X79593Y-47848D02*
X79312Y-47848D01*
X79284Y-48129D01*
X79312Y-48101D01*
X79368Y-48073D01*
X79509Y-48073D01*
X79565Y-48101D01*
X79593Y-48129D01*
X79621Y-48185D01*
X79621Y-48326D01*
X79593Y-48382D01*
X79565Y-48410D01*
X79509Y-48439D01*
X79368Y-48439D01*
X79312Y-48410D01*
X79284Y-48382D01*
X78778Y-47370D02*
X79059Y-47370D01*
X78721Y-47539D02*
X78918Y-46948D01*
X79115Y-47539D01*
X79565Y-47145D02*
X79565Y-47539D01*
X79424Y-46920D02*
X79284Y-47342D01*
X79649Y-47342D01*
X78778Y-46270D02*
X79059Y-46270D01*
X78721Y-46439D02*
X78918Y-45848D01*
X79115Y-46439D01*
X79256Y-45848D02*
X79621Y-45848D01*
X79424Y-46073D01*
X79509Y-46073D01*
X79565Y-46101D01*
X79593Y-46129D01*
X79621Y-46185D01*
X79621Y-46326D01*
X79593Y-46382D01*
X79565Y-46410D01*
X79509Y-46439D01*
X79340Y-46439D01*
X79284Y-46410D01*
X79256Y-46382D01*
X78778Y-45370D02*
X79059Y-45370D01*
X78721Y-45539D02*
X78918Y-44948D01*
X79115Y-45539D01*
X79621Y-45539D02*
X79284Y-45539D01*
X79453Y-45539D02*
X79453Y-44948D01*
X79396Y-45032D01*
X79340Y-45089D01*
X79284Y-45117D01*
X78778Y-44370D02*
X79059Y-44370D01*
X78721Y-44539D02*
X78918Y-43948D01*
X79115Y-44539D01*
X79424Y-43948D02*
X79481Y-43948D01*
X79537Y-43976D01*
X79565Y-44004D01*
X79593Y-44060D01*
X79621Y-44173D01*
X79621Y-44314D01*
X79593Y-44426D01*
X79565Y-44482D01*
X79537Y-44510D01*
X79481Y-44539D01*
X79424Y-44539D01*
X79368Y-44510D01*
X79340Y-44482D01*
X79312Y-44426D01*
X79284Y-44314D01*
X79284Y-44173D01*
X79312Y-44060D01*
X79340Y-44004D01*
X79368Y-43976D01*
X79424Y-43948D01*
X89712Y-29848D02*
X89909Y-30439D01*
X90106Y-29848D01*
X90640Y-30382D02*
X90612Y-30410D01*
X90528Y-30439D01*
X90471Y-30439D01*
X90387Y-30410D01*
X90331Y-30354D01*
X90303Y-30298D01*
X90275Y-30185D01*
X90275Y-30101D01*
X90303Y-29989D01*
X90331Y-29932D01*
X90387Y-29876D01*
X90471Y-29848D01*
X90528Y-29848D01*
X90612Y-29876D01*
X90640Y-29904D01*
X91231Y-30382D02*
X91203Y-30410D01*
X91118Y-30439D01*
X91062Y-30439D01*
X90978Y-30410D01*
X90921Y-30354D01*
X90893Y-30298D01*
X90865Y-30185D01*
X90865Y-30101D01*
X90893Y-29989D01*
X90921Y-29932D01*
X90978Y-29876D01*
X91062Y-29848D01*
X91118Y-29848D01*
X91203Y-29876D01*
X91231Y-29904D01*
X90050Y-30976D02*
X89993Y-30948D01*
X89909Y-30948D01*
X89825Y-30976D01*
X89768Y-31032D01*
X89740Y-31089D01*
X89712Y-31201D01*
X89712Y-31285D01*
X89740Y-31398D01*
X89768Y-31454D01*
X89825Y-31510D01*
X89909Y-31539D01*
X89965Y-31539D01*
X90050Y-31510D01*
X90078Y-31482D01*
X90078Y-31285D01*
X89965Y-31285D01*
X90331Y-31539D02*
X90331Y-30948D01*
X90668Y-31539D01*
X90668Y-30948D01*
X90949Y-31539D02*
X90949Y-30948D01*
X91090Y-30948D01*
X91174Y-30976D01*
X91231Y-31032D01*
X91259Y-31089D01*
X91287Y-31201D01*
X91287Y-31285D01*
X91259Y-31398D01*
X91231Y-31454D01*
X91174Y-31510D01*
X91090Y-31539D01*
X90949Y-31539D01*
X90004Y-32478D02*
X90076Y-32502D01*
X90195Y-32502D01*
X90242Y-32478D01*
X90266Y-32454D01*
X90290Y-32407D01*
X90290Y-32359D01*
X90266Y-32311D01*
X90242Y-32288D01*
X90195Y-32264D01*
X90100Y-32240D01*
X90052Y-32216D01*
X90028Y-32192D01*
X90004Y-32145D01*
X90004Y-32097D01*
X90028Y-32050D01*
X90052Y-32026D01*
X90100Y-32002D01*
X90219Y-32002D01*
X90290Y-32026D01*
X90790Y-32454D02*
X90766Y-32478D01*
X90695Y-32502D01*
X90647Y-32502D01*
X90576Y-32478D01*
X90528Y-32430D01*
X90504Y-32383D01*
X90480Y-32288D01*
X90480Y-32216D01*
X90504Y-32121D01*
X90528Y-32073D01*
X90576Y-32026D01*
X90647Y-32002D01*
X90695Y-32002D01*
X90766Y-32026D01*
X90790Y-32050D01*
X91242Y-32502D02*
X91004Y-32502D01*
X91004Y-32002D01*
X89992Y-33578D02*
X90064Y-33602D01*
X90183Y-33602D01*
X90230Y-33578D01*
X90254Y-33554D01*
X90278Y-33507D01*
X90278Y-33459D01*
X90254Y-33411D01*
X90230Y-33388D01*
X90183Y-33364D01*
X90088Y-33340D01*
X90040Y-33316D01*
X90016Y-33292D01*
X89992Y-33245D01*
X89992Y-33197D01*
X90016Y-33150D01*
X90040Y-33126D01*
X90088Y-33102D01*
X90207Y-33102D01*
X90278Y-33126D01*
X90492Y-33602D02*
X90492Y-33102D01*
X90611Y-33102D01*
X90683Y-33126D01*
X90730Y-33173D01*
X90754Y-33221D01*
X90778Y-33316D01*
X90778Y-33388D01*
X90754Y-33483D01*
X90730Y-33530D01*
X90683Y-33578D01*
X90611Y-33602D01*
X90492Y-33602D01*
X90969Y-33459D02*
X91207Y-33459D01*
X90921Y-33602D02*
X91088Y-33102D01*
X91254Y-33602D01*
X89590Y-34359D02*
X89828Y-34359D01*
X89542Y-34502D02*
X89709Y-34002D01*
X89876Y-34502D01*
X90328Y-34502D02*
X90161Y-34264D01*
X90042Y-34502D02*
X90042Y-34002D01*
X90233Y-34002D01*
X90280Y-34026D01*
X90304Y-34050D01*
X90328Y-34097D01*
X90328Y-34169D01*
X90304Y-34216D01*
X90280Y-34240D01*
X90233Y-34264D01*
X90042Y-34264D01*
X90542Y-34240D02*
X90709Y-34240D01*
X90780Y-34502D02*
X90542Y-34502D01*
X90542Y-34002D01*
X90780Y-34002D01*
X91161Y-34240D02*
X90995Y-34240D01*
X90995Y-34502D02*
X90995Y-34002D01*
X91233Y-34002D01*
X90687Y-35439D02*
X90350Y-35439D01*
X90518Y-35439D02*
X90518Y-34848D01*
X90462Y-34932D01*
X90406Y-34989D01*
X90350Y-35017D01*
X90884Y-34848D02*
X91249Y-34848D01*
X91053Y-35073D01*
X91137Y-35073D01*
X91193Y-35101D01*
X91221Y-35129D01*
X91249Y-35185D01*
X91249Y-35326D01*
X91221Y-35382D01*
X91193Y-35410D01*
X91137Y-35439D01*
X90968Y-35439D01*
X90912Y-35410D01*
X90884Y-35382D01*
X90687Y-36439D02*
X90350Y-36439D01*
X90518Y-36439D02*
X90518Y-35848D01*
X90462Y-35932D01*
X90406Y-35989D01*
X90350Y-36017D01*
X90912Y-35904D02*
X90940Y-35876D01*
X90996Y-35848D01*
X91137Y-35848D01*
X91193Y-35876D01*
X91221Y-35904D01*
X91249Y-35960D01*
X91249Y-36017D01*
X91221Y-36101D01*
X90884Y-36439D01*
X91249Y-36439D01*
X90687Y-37439D02*
X90350Y-37439D01*
X90518Y-37439D02*
X90518Y-36848D01*
X90462Y-36932D01*
X90406Y-36989D01*
X90350Y-37017D01*
X91249Y-37439D02*
X90912Y-37439D01*
X91081Y-37439D02*
X91081Y-36848D01*
X91024Y-36932D01*
X90968Y-36989D01*
X90912Y-37017D01*
X90687Y-38439D02*
X90350Y-38439D01*
X90518Y-38439D02*
X90518Y-37848D01*
X90462Y-37932D01*
X90406Y-37989D01*
X90350Y-38017D01*
X91053Y-37848D02*
X91109Y-37848D01*
X91165Y-37876D01*
X91193Y-37904D01*
X91221Y-37960D01*
X91249Y-38073D01*
X91249Y-38214D01*
X91221Y-38326D01*
X91193Y-38382D01*
X91165Y-38410D01*
X91109Y-38439D01*
X91053Y-38439D01*
X90996Y-38410D01*
X90968Y-38382D01*
X90940Y-38326D01*
X90912Y-38214D01*
X90912Y-38073D01*
X90940Y-37960D01*
X90968Y-37904D01*
X90996Y-37876D01*
X91053Y-37848D01*
X90887Y-39439D02*
X91000Y-39439D01*
X91056Y-39410D01*
X91084Y-39382D01*
X91140Y-39298D01*
X91168Y-39185D01*
X91168Y-38960D01*
X91140Y-38904D01*
X91112Y-38876D01*
X91056Y-38848D01*
X90943Y-38848D01*
X90887Y-38876D01*
X90859Y-38904D01*
X90831Y-38960D01*
X90831Y-39101D01*
X90859Y-39157D01*
X90887Y-39185D01*
X90943Y-39214D01*
X91056Y-39214D01*
X91112Y-39185D01*
X91140Y-39157D01*
X91168Y-39101D01*
X90943Y-40101D02*
X90887Y-40073D01*
X90859Y-40045D01*
X90831Y-39989D01*
X90831Y-39960D01*
X90859Y-39904D01*
X90887Y-39876D01*
X90943Y-39848D01*
X91056Y-39848D01*
X91112Y-39876D01*
X91140Y-39904D01*
X91168Y-39960D01*
X91168Y-39989D01*
X91140Y-40045D01*
X91112Y-40073D01*
X91056Y-40101D01*
X90943Y-40101D01*
X90887Y-40129D01*
X90859Y-40157D01*
X90831Y-40214D01*
X90831Y-40326D01*
X90859Y-40382D01*
X90887Y-40410D01*
X90943Y-40439D01*
X91056Y-40439D01*
X91112Y-40410D01*
X91140Y-40382D01*
X91168Y-40326D01*
X91168Y-40214D01*
X91140Y-40157D01*
X91112Y-40129D01*
X91056Y-40101D01*
X90803Y-41848D02*
X91196Y-41848D01*
X90943Y-42439D01*
X91112Y-42848D02*
X91000Y-42848D01*
X90943Y-42876D01*
X90915Y-42904D01*
X90859Y-42989D01*
X90831Y-43101D01*
X90831Y-43326D01*
X90859Y-43382D01*
X90887Y-43410D01*
X90943Y-43439D01*
X91056Y-43439D01*
X91112Y-43410D01*
X91140Y-43382D01*
X91168Y-43326D01*
X91168Y-43185D01*
X91140Y-43129D01*
X91112Y-43101D01*
X91056Y-43073D01*
X90943Y-43073D01*
X90887Y-43101D01*
X90859Y-43129D01*
X90831Y-43185D01*
X91140Y-43948D02*
X90859Y-43948D01*
X90831Y-44229D01*
X90859Y-44201D01*
X90915Y-44173D01*
X91056Y-44173D01*
X91112Y-44201D01*
X91140Y-44229D01*
X91168Y-44285D01*
X91168Y-44426D01*
X91140Y-44482D01*
X91112Y-44510D01*
X91056Y-44539D01*
X90915Y-44539D01*
X90859Y-44510D01*
X90831Y-44482D01*
X91112Y-45145D02*
X91112Y-45539D01*
X90971Y-44920D02*
X90831Y-45342D01*
X91196Y-45342D01*
X90903Y-45848D02*
X91268Y-45848D01*
X91071Y-46073D01*
X91156Y-46073D01*
X91212Y-46101D01*
X91240Y-46129D01*
X91268Y-46185D01*
X91268Y-46326D01*
X91240Y-46382D01*
X91212Y-46410D01*
X91156Y-46439D01*
X90987Y-46439D01*
X90931Y-46410D01*
X90903Y-46382D01*
X90931Y-46904D02*
X90959Y-46876D01*
X91015Y-46848D01*
X91156Y-46848D01*
X91212Y-46876D01*
X91240Y-46904D01*
X91268Y-46960D01*
X91268Y-47017D01*
X91240Y-47101D01*
X90903Y-47439D01*
X91268Y-47439D01*
G54D12*
X88861Y-48002D02*
X89147Y-48002D01*
X89004Y-48502D02*
X89004Y-48002D01*
X89266Y-48002D02*
X89600Y-48502D01*
X89600Y-48002D02*
X89266Y-48502D01*
X89790Y-48311D02*
X90171Y-48311D01*
X90409Y-48169D02*
X90790Y-48311D01*
X90409Y-48454D01*
X91290Y-48502D02*
X91004Y-48502D01*
X91147Y-48502D02*
X91147Y-48002D01*
X91100Y-48073D01*
X91052Y-48121D01*
X91004Y-48145D01*
X89159Y-49502D02*
X88992Y-49264D01*
X88873Y-49502D02*
X88873Y-49002D01*
X89064Y-49002D01*
X89111Y-49026D01*
X89135Y-49050D01*
X89159Y-49097D01*
X89159Y-49169D01*
X89135Y-49216D01*
X89111Y-49240D01*
X89064Y-49264D01*
X88873Y-49264D01*
X89326Y-49002D02*
X89659Y-49502D01*
X89659Y-49002D02*
X89326Y-49502D01*
X90230Y-49169D02*
X89850Y-49311D01*
X90230Y-49454D01*
X90469Y-49311D02*
X90850Y-49311D01*
X91183Y-49002D02*
X91230Y-49002D01*
X91278Y-49026D01*
X91302Y-49050D01*
X91326Y-49097D01*
X91350Y-49192D01*
X91350Y-49311D01*
X91326Y-49407D01*
X91302Y-49454D01*
X91278Y-49478D01*
X91230Y-49502D01*
X91183Y-49502D01*
X91135Y-49478D01*
X91111Y-49454D01*
X91088Y-49407D01*
X91064Y-49311D01*
X91064Y-49192D01*
X91088Y-49097D01*
X91111Y-49050D01*
X91135Y-49026D01*
X91183Y-49002D01*
G54D11*
X79942Y-51628D02*
X80142Y-51628D01*
X80228Y-51942D02*
X79942Y-51942D01*
X79942Y-51342D01*
X80228Y-51342D01*
X80428Y-51942D02*
X80742Y-51542D01*
X80428Y-51542D02*
X80742Y-51942D01*
X80971Y-51542D02*
X80971Y-52142D01*
X80971Y-51571D02*
X81028Y-51542D01*
X81142Y-51542D01*
X81200Y-51571D01*
X81228Y-51600D01*
X81257Y-51657D01*
X81257Y-51828D01*
X81228Y-51885D01*
X81200Y-51914D01*
X81142Y-51942D01*
X81028Y-51942D01*
X80971Y-51914D01*
X81599Y-51942D02*
X81542Y-51914D01*
X81514Y-51857D01*
X81514Y-51342D01*
X81914Y-51942D02*
X81857Y-51914D01*
X81828Y-51885D01*
X81800Y-51828D01*
X81800Y-51657D01*
X81828Y-51600D01*
X81857Y-51571D01*
X81914Y-51542D01*
X82000Y-51542D01*
X82057Y-51571D01*
X82085Y-51600D01*
X82114Y-51657D01*
X82114Y-51828D01*
X82085Y-51885D01*
X82057Y-51914D01*
X82000Y-51942D01*
X81914Y-51942D01*
X82371Y-51942D02*
X82371Y-51542D01*
X82371Y-51657D02*
X82400Y-51600D01*
X82428Y-51571D01*
X82485Y-51542D01*
X82542Y-51542D01*
X82971Y-51914D02*
X82914Y-51942D01*
X82800Y-51942D01*
X82742Y-51914D01*
X82714Y-51857D01*
X82714Y-51628D01*
X82742Y-51571D01*
X82800Y-51542D01*
X82914Y-51542D01*
X82971Y-51571D01*
X83000Y-51628D01*
X83000Y-51685D01*
X82714Y-51742D01*
X83257Y-51628D02*
X83457Y-51628D01*
X83542Y-51942D02*
X83257Y-51942D01*
X83257Y-51342D01*
X83542Y-51342D01*
X83800Y-51942D02*
X83800Y-51542D01*
X83800Y-51600D02*
X83828Y-51571D01*
X83885Y-51542D01*
X83971Y-51542D01*
X84028Y-51571D01*
X84057Y-51628D01*
X84057Y-51942D01*
X84057Y-51628D02*
X84085Y-51571D01*
X84142Y-51542D01*
X84228Y-51542D01*
X84285Y-51571D01*
X84314Y-51628D01*
X84314Y-51942D01*
X84600Y-51942D02*
X84600Y-51342D01*
X84600Y-51571D02*
X84657Y-51542D01*
X84771Y-51542D01*
X84828Y-51571D01*
X84857Y-51600D01*
X84885Y-51657D01*
X84885Y-51828D01*
X84857Y-51885D01*
X84828Y-51914D01*
X84771Y-51942D01*
X84657Y-51942D01*
X84600Y-51914D01*
X85371Y-51914D02*
X85314Y-51942D01*
X85200Y-51942D01*
X85142Y-51914D01*
X85114Y-51857D01*
X85114Y-51628D01*
X85142Y-51571D01*
X85200Y-51542D01*
X85314Y-51542D01*
X85371Y-51571D01*
X85400Y-51628D01*
X85400Y-51685D01*
X85114Y-51742D01*
X85914Y-51942D02*
X85914Y-51342D01*
X85914Y-51914D02*
X85857Y-51942D01*
X85742Y-51942D01*
X85685Y-51914D01*
X85657Y-51885D01*
X85628Y-51828D01*
X85628Y-51657D01*
X85657Y-51600D01*
X85685Y-51571D01*
X85742Y-51542D01*
X85857Y-51542D01*
X85914Y-51571D01*
X86457Y-51942D02*
X86457Y-51342D01*
X86457Y-51914D02*
X86400Y-51942D01*
X86285Y-51942D01*
X86228Y-51914D01*
X86200Y-51885D01*
X86171Y-51828D01*
X86171Y-51657D01*
X86200Y-51600D01*
X86228Y-51571D01*
X86285Y-51542D01*
X86400Y-51542D01*
X86457Y-51571D01*
X86971Y-51914D02*
X86914Y-51942D01*
X86800Y-51942D01*
X86742Y-51914D01*
X86714Y-51857D01*
X86714Y-51628D01*
X86742Y-51571D01*
X86800Y-51542D01*
X86914Y-51542D01*
X86971Y-51571D01*
X87000Y-51628D01*
X87000Y-51685D01*
X86714Y-51742D01*
X87514Y-51942D02*
X87514Y-51342D01*
X87514Y-51914D02*
X87457Y-51942D01*
X87342Y-51942D01*
X87285Y-51914D01*
X87257Y-51885D01*
X87228Y-51828D01*
X87228Y-51657D01*
X87257Y-51600D01*
X87285Y-51571D01*
X87342Y-51542D01*
X87457Y-51542D01*
X87514Y-51571D01*
X87800Y-51885D02*
X87828Y-51914D01*
X87800Y-51942D01*
X87771Y-51914D01*
X87800Y-51885D01*
X87800Y-51942D01*
X88342Y-51914D02*
X88285Y-51942D01*
X88171Y-51942D01*
X88114Y-51914D01*
X88085Y-51885D01*
X88057Y-51828D01*
X88057Y-51657D01*
X88085Y-51600D01*
X88114Y-51571D01*
X88171Y-51542D01*
X88285Y-51542D01*
X88342Y-51571D01*
X88685Y-51942D02*
X88628Y-51914D01*
X88600Y-51885D01*
X88571Y-51828D01*
X88571Y-51657D01*
X88600Y-51600D01*
X88628Y-51571D01*
X88685Y-51542D01*
X88771Y-51542D01*
X88828Y-51571D01*
X88857Y-51600D01*
X88885Y-51657D01*
X88885Y-51828D01*
X88857Y-51885D01*
X88828Y-51914D01*
X88771Y-51942D01*
X88685Y-51942D01*
X89142Y-51942D02*
X89142Y-51542D01*
X89142Y-51600D02*
X89171Y-51571D01*
X89228Y-51542D01*
X89314Y-51542D01*
X89371Y-51571D01*
X89400Y-51628D01*
X89400Y-51942D01*
X89400Y-51628D02*
X89428Y-51571D01*
X89485Y-51542D01*
X89571Y-51542D01*
X89628Y-51571D01*
X89657Y-51628D01*
X89657Y-51942D01*
G54D12*
X88025Y-50682D02*
X87875Y-50467D01*
X87767Y-50682D02*
X87767Y-50232D01*
X87939Y-50232D01*
X87982Y-50253D01*
X88003Y-50275D01*
X88025Y-50317D01*
X88025Y-50382D01*
X88003Y-50425D01*
X87982Y-50446D01*
X87939Y-50467D01*
X87767Y-50467D01*
X88175Y-50232D02*
X88475Y-50682D01*
X88475Y-50232D02*
X88175Y-50682D01*
X84457Y-50232D02*
X84714Y-50232D01*
X84585Y-50682D02*
X84585Y-50232D01*
X84821Y-50232D02*
X85121Y-50682D01*
X85121Y-50232D02*
X84821Y-50682D01*
G54D11*
X77400Y-24170D02*
X77681Y-24170D01*
X77343Y-24339D02*
X77540Y-23748D01*
X77737Y-24339D01*
X78271Y-24339D02*
X78075Y-24057D01*
X77934Y-24339D02*
X77934Y-23748D01*
X78159Y-23748D01*
X78215Y-23776D01*
X78243Y-23804D01*
X78271Y-23860D01*
X78271Y-23945D01*
X78243Y-24001D01*
X78215Y-24029D01*
X78159Y-24057D01*
X77934Y-24057D01*
X78525Y-24339D02*
X78525Y-23748D01*
X78665Y-23748D01*
X78750Y-23776D01*
X78806Y-23832D01*
X78834Y-23889D01*
X78862Y-24001D01*
X78862Y-24085D01*
X78834Y-24198D01*
X78806Y-24254D01*
X78750Y-24310D01*
X78665Y-24339D01*
X78525Y-24339D01*
X79115Y-23748D02*
X79115Y-24226D01*
X79143Y-24282D01*
X79171Y-24310D01*
X79228Y-24339D01*
X79340Y-24339D01*
X79396Y-24310D01*
X79424Y-24282D01*
X79453Y-24226D01*
X79453Y-23748D01*
X79734Y-24339D02*
X79734Y-23748D01*
X80015Y-24339D02*
X80015Y-23748D01*
X80352Y-24339D01*
X80352Y-23748D01*
X80746Y-23748D02*
X80859Y-23748D01*
X80915Y-23776D01*
X80971Y-23832D01*
X80999Y-23945D01*
X80999Y-24142D01*
X80971Y-24254D01*
X80915Y-24310D01*
X80859Y-24339D01*
X80746Y-24339D01*
X80690Y-24310D01*
X80634Y-24254D01*
X80606Y-24142D01*
X80606Y-23945D01*
X80634Y-23832D01*
X80690Y-23776D01*
X80746Y-23748D01*
G54D13*
X77000Y-22700D02*
X77000Y-25700D01*
X77000Y-22700D02*
X80000Y-22700D01*
X93000Y-22700D02*
X90000Y-22700D01*
X93000Y-22700D02*
X93000Y-25700D01*
X77000Y-52700D02*
X80000Y-52700D01*
X77000Y-52700D02*
X77000Y-49700D01*
X93000Y-52700D02*
X93000Y-49700D01*
X93000Y-52700D02*
X90000Y-52700D01*
G54D11*
X13335Y-43739D02*
X13335Y-43148D01*
X13673Y-43739D01*
X13673Y-43148D01*
X14292Y-43682D02*
X14264Y-43710D01*
X14179Y-43739D01*
X14123Y-43739D01*
X14039Y-43710D01*
X13982Y-43654D01*
X13954Y-43598D01*
X13926Y-43485D01*
X13926Y-43401D01*
X13954Y-43289D01*
X13982Y-43232D01*
X14039Y-43176D01*
X14123Y-43148D01*
X14179Y-43148D01*
X14264Y-43176D01*
X14292Y-43204D01*
X13335Y-42739D02*
X13335Y-42148D01*
X13673Y-42739D01*
X13673Y-42148D01*
X14292Y-42682D02*
X14264Y-42710D01*
X14179Y-42739D01*
X14123Y-42739D01*
X14039Y-42710D01*
X13982Y-42654D01*
X13954Y-42598D01*
X13926Y-42485D01*
X13926Y-42401D01*
X13954Y-42289D01*
X13982Y-42232D01*
X14039Y-42176D01*
X14123Y-42148D01*
X14179Y-42148D01*
X14264Y-42176D01*
X14292Y-42204D01*
X13335Y-40739D02*
X13335Y-40148D01*
X13673Y-40739D01*
X13673Y-40148D01*
X14292Y-40682D02*
X14264Y-40710D01*
X14179Y-40739D01*
X14123Y-40739D01*
X14039Y-40710D01*
X13982Y-40654D01*
X13954Y-40598D01*
X13926Y-40485D01*
X13926Y-40401D01*
X13954Y-40289D01*
X13982Y-40232D01*
X14039Y-40176D01*
X14123Y-40148D01*
X14179Y-40148D01*
X14264Y-40176D01*
X14292Y-40204D01*
X13335Y-39739D02*
X13335Y-39148D01*
X13673Y-39739D01*
X13673Y-39148D01*
X14292Y-39682D02*
X14264Y-39710D01*
X14179Y-39739D01*
X14123Y-39739D01*
X14039Y-39710D01*
X13982Y-39654D01*
X13954Y-39598D01*
X13926Y-39485D01*
X13926Y-39401D01*
X13954Y-39289D01*
X13982Y-39232D01*
X14039Y-39176D01*
X14123Y-39148D01*
X14179Y-39148D01*
X14264Y-39176D01*
X14292Y-39204D01*
X13335Y-38839D02*
X13335Y-38248D01*
X13673Y-38839D01*
X13673Y-38248D01*
X14292Y-38782D02*
X14264Y-38810D01*
X14179Y-38839D01*
X14123Y-38839D01*
X14039Y-38810D01*
X13982Y-38754D01*
X13954Y-38698D01*
X13926Y-38585D01*
X13926Y-38501D01*
X13954Y-38389D01*
X13982Y-38332D01*
X14039Y-38276D01*
X14123Y-38248D01*
X14179Y-38248D01*
X14264Y-38276D01*
X14292Y-38304D01*
X13335Y-37739D02*
X13335Y-37148D01*
X13673Y-37739D01*
X13673Y-37148D01*
X14292Y-37682D02*
X14264Y-37710D01*
X14179Y-37739D01*
X14123Y-37739D01*
X14039Y-37710D01*
X13982Y-37654D01*
X13954Y-37598D01*
X13926Y-37485D01*
X13926Y-37401D01*
X13954Y-37289D01*
X13982Y-37232D01*
X14039Y-37176D01*
X14123Y-37148D01*
X14179Y-37148D01*
X14264Y-37176D01*
X14292Y-37204D01*
X13335Y-36739D02*
X13335Y-36148D01*
X13673Y-36739D01*
X13673Y-36148D01*
X14292Y-36682D02*
X14264Y-36710D01*
X14179Y-36739D01*
X14123Y-36739D01*
X14039Y-36710D01*
X13982Y-36654D01*
X13954Y-36598D01*
X13926Y-36485D01*
X13926Y-36401D01*
X13954Y-36289D01*
X13982Y-36232D01*
X14039Y-36176D01*
X14123Y-36148D01*
X14179Y-36148D01*
X14264Y-36176D01*
X14292Y-36204D01*
X13335Y-35739D02*
X13335Y-35148D01*
X13673Y-35739D01*
X13673Y-35148D01*
X14292Y-35682D02*
X14264Y-35710D01*
X14179Y-35739D01*
X14123Y-35739D01*
X14039Y-35710D01*
X13982Y-35654D01*
X13954Y-35598D01*
X13926Y-35485D01*
X13926Y-35401D01*
X13954Y-35289D01*
X13982Y-35232D01*
X14039Y-35176D01*
X14123Y-35148D01*
X14179Y-35148D01*
X14264Y-35176D01*
X14292Y-35204D01*
X13335Y-34739D02*
X13335Y-34148D01*
X13673Y-34739D01*
X13673Y-34148D01*
X14292Y-34682D02*
X14264Y-34710D01*
X14179Y-34739D01*
X14123Y-34739D01*
X14039Y-34710D01*
X13982Y-34654D01*
X13954Y-34598D01*
X13926Y-34485D01*
X13926Y-34401D01*
X13954Y-34289D01*
X13982Y-34232D01*
X14039Y-34176D01*
X14123Y-34148D01*
X14179Y-34148D01*
X14264Y-34176D01*
X14292Y-34204D01*
X13335Y-33739D02*
X13335Y-33148D01*
X13673Y-33739D01*
X13673Y-33148D01*
X14292Y-33682D02*
X14264Y-33710D01*
X14179Y-33739D01*
X14123Y-33739D01*
X14039Y-33710D01*
X13982Y-33654D01*
X13954Y-33598D01*
X13926Y-33485D01*
X13926Y-33401D01*
X13954Y-33289D01*
X13982Y-33232D01*
X14039Y-33176D01*
X14123Y-33148D01*
X14179Y-33148D01*
X14264Y-33176D01*
X14292Y-33204D01*
X13335Y-32739D02*
X13335Y-32148D01*
X13673Y-32739D01*
X13673Y-32148D01*
X14292Y-32682D02*
X14264Y-32710D01*
X14179Y-32739D01*
X14123Y-32739D01*
X14039Y-32710D01*
X13982Y-32654D01*
X13954Y-32598D01*
X13926Y-32485D01*
X13926Y-32401D01*
X13954Y-32289D01*
X13982Y-32232D01*
X14039Y-32176D01*
X14123Y-32148D01*
X14179Y-32148D01*
X14264Y-32176D01*
X14292Y-32204D01*
X24835Y-41739D02*
X24835Y-41148D01*
X25173Y-41739D01*
X25173Y-41148D01*
X25792Y-41682D02*
X25764Y-41710D01*
X25679Y-41739D01*
X25623Y-41739D01*
X25539Y-41710D01*
X25482Y-41654D01*
X25454Y-41598D01*
X25426Y-41485D01*
X25426Y-41401D01*
X25454Y-41289D01*
X25482Y-41232D01*
X25539Y-41176D01*
X25623Y-41148D01*
X25679Y-41148D01*
X25764Y-41176D01*
X25792Y-41204D01*
X13350Y-31248D02*
X13687Y-31248D01*
X13518Y-31839D02*
X13518Y-31248D01*
X13828Y-31248D02*
X14221Y-31839D01*
X14221Y-31248D02*
X13828Y-31839D01*
X13701Y-30739D02*
X13504Y-30457D01*
X13364Y-30739D02*
X13364Y-30148D01*
X13589Y-30148D01*
X13645Y-30176D01*
X13673Y-30204D01*
X13701Y-30260D01*
X13701Y-30345D01*
X13673Y-30401D01*
X13645Y-30429D01*
X13589Y-30457D01*
X13364Y-30457D01*
X13898Y-30148D02*
X14292Y-30739D01*
X14292Y-30148D02*
X13898Y-30739D01*
X13473Y-41702D02*
X13307Y-41464D01*
X13188Y-41702D02*
X13188Y-41202D01*
X13378Y-41202D01*
X13426Y-41226D01*
X13450Y-41250D01*
X13473Y-41297D01*
X13473Y-41369D01*
X13450Y-41416D01*
X13426Y-41440D01*
X13378Y-41464D01*
X13188Y-41464D01*
X13688Y-41440D02*
X13854Y-41440D01*
X13926Y-41702D02*
X13688Y-41702D01*
X13688Y-41202D01*
X13926Y-41202D01*
X14116Y-41678D02*
X14188Y-41702D01*
X14307Y-41702D01*
X14354Y-41678D01*
X14378Y-41654D01*
X14402Y-41607D01*
X14402Y-41559D01*
X14378Y-41511D01*
X14354Y-41488D01*
X14307Y-41464D01*
X14211Y-41440D01*
X14164Y-41416D01*
X14140Y-41392D01*
X14116Y-41345D01*
X14116Y-41297D01*
X14140Y-41250D01*
X14164Y-41226D01*
X14211Y-41202D01*
X14330Y-41202D01*
X14402Y-41226D01*
X14616Y-41440D02*
X14783Y-41440D01*
X14854Y-41702D02*
X14616Y-41702D01*
X14616Y-41202D01*
X14854Y-41202D01*
X14997Y-41202D02*
X15283Y-41202D01*
X15140Y-41702D02*
X15140Y-41202D01*
X13278Y-49570D02*
X13559Y-49570D01*
X13221Y-49739D02*
X13418Y-49148D01*
X13615Y-49739D01*
X14065Y-49148D02*
X13953Y-49148D01*
X13896Y-49176D01*
X13868Y-49204D01*
X13812Y-49289D01*
X13784Y-49401D01*
X13784Y-49626D01*
X13812Y-49682D01*
X13840Y-49710D01*
X13896Y-49739D01*
X14009Y-49739D01*
X14065Y-49710D01*
X14093Y-49682D01*
X14121Y-49626D01*
X14121Y-49485D01*
X14093Y-49429D01*
X14065Y-49401D01*
X14009Y-49373D01*
X13896Y-49373D01*
X13840Y-49401D01*
X13812Y-49429D01*
X13784Y-49485D01*
X13278Y-48570D02*
X13559Y-48570D01*
X13221Y-48739D02*
X13418Y-48148D01*
X13615Y-48739D01*
X14093Y-48148D02*
X13812Y-48148D01*
X13784Y-48429D01*
X13812Y-48401D01*
X13868Y-48373D01*
X14009Y-48373D01*
X14065Y-48401D01*
X14093Y-48429D01*
X14121Y-48485D01*
X14121Y-48626D01*
X14093Y-48682D01*
X14065Y-48710D01*
X14009Y-48739D01*
X13868Y-48739D01*
X13812Y-48710D01*
X13784Y-48682D01*
X13278Y-47670D02*
X13559Y-47670D01*
X13221Y-47839D02*
X13418Y-47248D01*
X13615Y-47839D01*
X14065Y-47445D02*
X14065Y-47839D01*
X13924Y-47220D02*
X13784Y-47642D01*
X14149Y-47642D01*
X13278Y-46570D02*
X13559Y-46570D01*
X13221Y-46739D02*
X13418Y-46148D01*
X13615Y-46739D01*
X13756Y-46148D02*
X14121Y-46148D01*
X13924Y-46373D01*
X14009Y-46373D01*
X14065Y-46401D01*
X14093Y-46429D01*
X14121Y-46485D01*
X14121Y-46626D01*
X14093Y-46682D01*
X14065Y-46710D01*
X14009Y-46739D01*
X13840Y-46739D01*
X13784Y-46710D01*
X13756Y-46682D01*
X13278Y-45670D02*
X13559Y-45670D01*
X13221Y-45839D02*
X13418Y-45248D01*
X13615Y-45839D01*
X14121Y-45839D02*
X13784Y-45839D01*
X13953Y-45839D02*
X13953Y-45248D01*
X13896Y-45332D01*
X13840Y-45389D01*
X13784Y-45417D01*
X13278Y-44670D02*
X13559Y-44670D01*
X13221Y-44839D02*
X13418Y-44248D01*
X13615Y-44839D01*
X13924Y-44248D02*
X13981Y-44248D01*
X14037Y-44276D01*
X14065Y-44304D01*
X14093Y-44360D01*
X14121Y-44473D01*
X14121Y-44614D01*
X14093Y-44726D01*
X14065Y-44782D01*
X14037Y-44810D01*
X13981Y-44839D01*
X13924Y-44839D01*
X13868Y-44810D01*
X13840Y-44782D01*
X13812Y-44726D01*
X13784Y-44614D01*
X13784Y-44473D01*
X13812Y-44360D01*
X13840Y-44304D01*
X13868Y-44276D01*
X13924Y-44248D01*
X24212Y-30148D02*
X24409Y-30739D01*
X24606Y-30148D01*
X25140Y-30682D02*
X25112Y-30710D01*
X25028Y-30739D01*
X24971Y-30739D01*
X24887Y-30710D01*
X24831Y-30654D01*
X24803Y-30598D01*
X24775Y-30485D01*
X24775Y-30401D01*
X24803Y-30289D01*
X24831Y-30232D01*
X24887Y-30176D01*
X24971Y-30148D01*
X25028Y-30148D01*
X25112Y-30176D01*
X25140Y-30204D01*
X25731Y-30682D02*
X25703Y-30710D01*
X25618Y-30739D01*
X25562Y-30739D01*
X25478Y-30710D01*
X25421Y-30654D01*
X25393Y-30598D01*
X25365Y-30485D01*
X25365Y-30401D01*
X25393Y-30289D01*
X25421Y-30232D01*
X25478Y-30176D01*
X25562Y-30148D01*
X25618Y-30148D01*
X25703Y-30176D01*
X25731Y-30204D01*
X24550Y-31276D02*
X24493Y-31248D01*
X24409Y-31248D01*
X24325Y-31276D01*
X24268Y-31332D01*
X24240Y-31389D01*
X24212Y-31501D01*
X24212Y-31585D01*
X24240Y-31698D01*
X24268Y-31754D01*
X24325Y-31810D01*
X24409Y-31839D01*
X24465Y-31839D01*
X24550Y-31810D01*
X24578Y-31782D01*
X24578Y-31585D01*
X24465Y-31585D01*
X24831Y-31839D02*
X24831Y-31248D01*
X25168Y-31839D01*
X25168Y-31248D01*
X25449Y-31839D02*
X25449Y-31248D01*
X25590Y-31248D01*
X25674Y-31276D01*
X25731Y-31332D01*
X25759Y-31389D01*
X25787Y-31501D01*
X25787Y-31585D01*
X25759Y-31698D01*
X25731Y-31754D01*
X25674Y-31810D01*
X25590Y-31839D01*
X25449Y-31839D01*
X24504Y-32778D02*
X24576Y-32802D01*
X24695Y-32802D01*
X24742Y-32778D01*
X24766Y-32754D01*
X24790Y-32707D01*
X24790Y-32659D01*
X24766Y-32611D01*
X24742Y-32588D01*
X24695Y-32564D01*
X24600Y-32540D01*
X24552Y-32516D01*
X24528Y-32492D01*
X24504Y-32445D01*
X24504Y-32397D01*
X24528Y-32350D01*
X24552Y-32326D01*
X24600Y-32302D01*
X24719Y-32302D01*
X24790Y-32326D01*
X25290Y-32754D02*
X25266Y-32778D01*
X25195Y-32802D01*
X25147Y-32802D01*
X25076Y-32778D01*
X25028Y-32730D01*
X25004Y-32683D01*
X24980Y-32588D01*
X24980Y-32516D01*
X25004Y-32421D01*
X25028Y-32373D01*
X25076Y-32326D01*
X25147Y-32302D01*
X25195Y-32302D01*
X25266Y-32326D01*
X25290Y-32350D01*
X25742Y-32802D02*
X25504Y-32802D01*
X25504Y-32302D01*
X24492Y-33878D02*
X24564Y-33902D01*
X24683Y-33902D01*
X24730Y-33878D01*
X24754Y-33854D01*
X24778Y-33807D01*
X24778Y-33759D01*
X24754Y-33711D01*
X24730Y-33688D01*
X24683Y-33664D01*
X24588Y-33640D01*
X24540Y-33616D01*
X24516Y-33592D01*
X24492Y-33545D01*
X24492Y-33497D01*
X24516Y-33450D01*
X24540Y-33426D01*
X24588Y-33402D01*
X24707Y-33402D01*
X24778Y-33426D01*
X24992Y-33902D02*
X24992Y-33402D01*
X25111Y-33402D01*
X25183Y-33426D01*
X25230Y-33473D01*
X25254Y-33521D01*
X25278Y-33616D01*
X25278Y-33688D01*
X25254Y-33783D01*
X25230Y-33830D01*
X25183Y-33878D01*
X25111Y-33902D01*
X24992Y-33902D01*
X25469Y-33759D02*
X25707Y-33759D01*
X25421Y-33902D02*
X25588Y-33402D01*
X25754Y-33902D01*
X24090Y-34659D02*
X24328Y-34659D01*
X24042Y-34802D02*
X24209Y-34302D01*
X24376Y-34802D01*
X24828Y-34802D02*
X24661Y-34564D01*
X24542Y-34802D02*
X24542Y-34302D01*
X24733Y-34302D01*
X24780Y-34326D01*
X24804Y-34350D01*
X24828Y-34397D01*
X24828Y-34469D01*
X24804Y-34516D01*
X24780Y-34540D01*
X24733Y-34564D01*
X24542Y-34564D01*
X25042Y-34540D02*
X25209Y-34540D01*
X25280Y-34802D02*
X25042Y-34802D01*
X25042Y-34302D01*
X25280Y-34302D01*
X25661Y-34540D02*
X25495Y-34540D01*
X25495Y-34802D02*
X25495Y-34302D01*
X25733Y-34302D01*
X25187Y-35739D02*
X24850Y-35739D01*
X25018Y-35739D02*
X25018Y-35148D01*
X24962Y-35232D01*
X24906Y-35289D01*
X24850Y-35317D01*
X25384Y-35148D02*
X25749Y-35148D01*
X25553Y-35373D01*
X25637Y-35373D01*
X25693Y-35401D01*
X25721Y-35429D01*
X25749Y-35485D01*
X25749Y-35626D01*
X25721Y-35682D01*
X25693Y-35710D01*
X25637Y-35739D01*
X25468Y-35739D01*
X25412Y-35710D01*
X25384Y-35682D01*
X25187Y-36739D02*
X24850Y-36739D01*
X25018Y-36739D02*
X25018Y-36148D01*
X24962Y-36232D01*
X24906Y-36289D01*
X24850Y-36317D01*
X25412Y-36204D02*
X25440Y-36176D01*
X25496Y-36148D01*
X25637Y-36148D01*
X25693Y-36176D01*
X25721Y-36204D01*
X25749Y-36260D01*
X25749Y-36317D01*
X25721Y-36401D01*
X25384Y-36739D01*
X25749Y-36739D01*
X25187Y-37739D02*
X24850Y-37739D01*
X25018Y-37739D02*
X25018Y-37148D01*
X24962Y-37232D01*
X24906Y-37289D01*
X24850Y-37317D01*
X25749Y-37739D02*
X25412Y-37739D01*
X25581Y-37739D02*
X25581Y-37148D01*
X25524Y-37232D01*
X25468Y-37289D01*
X25412Y-37317D01*
X25187Y-38739D02*
X24850Y-38739D01*
X25018Y-38739D02*
X25018Y-38148D01*
X24962Y-38232D01*
X24906Y-38289D01*
X24850Y-38317D01*
X25553Y-38148D02*
X25609Y-38148D01*
X25665Y-38176D01*
X25693Y-38204D01*
X25721Y-38260D01*
X25749Y-38373D01*
X25749Y-38514D01*
X25721Y-38626D01*
X25693Y-38682D01*
X25665Y-38710D01*
X25609Y-38739D01*
X25553Y-38739D01*
X25496Y-38710D01*
X25468Y-38682D01*
X25440Y-38626D01*
X25412Y-38514D01*
X25412Y-38373D01*
X25440Y-38260D01*
X25468Y-38204D01*
X25496Y-38176D01*
X25553Y-38148D01*
X25387Y-39739D02*
X25500Y-39739D01*
X25556Y-39710D01*
X25584Y-39682D01*
X25640Y-39598D01*
X25668Y-39485D01*
X25668Y-39260D01*
X25640Y-39204D01*
X25612Y-39176D01*
X25556Y-39148D01*
X25443Y-39148D01*
X25387Y-39176D01*
X25359Y-39204D01*
X25331Y-39260D01*
X25331Y-39401D01*
X25359Y-39457D01*
X25387Y-39485D01*
X25443Y-39514D01*
X25556Y-39514D01*
X25612Y-39485D01*
X25640Y-39457D01*
X25668Y-39401D01*
X25443Y-40401D02*
X25387Y-40373D01*
X25359Y-40345D01*
X25331Y-40289D01*
X25331Y-40260D01*
X25359Y-40204D01*
X25387Y-40176D01*
X25443Y-40148D01*
X25556Y-40148D01*
X25612Y-40176D01*
X25640Y-40204D01*
X25668Y-40260D01*
X25668Y-40289D01*
X25640Y-40345D01*
X25612Y-40373D01*
X25556Y-40401D01*
X25443Y-40401D01*
X25387Y-40429D01*
X25359Y-40457D01*
X25331Y-40514D01*
X25331Y-40626D01*
X25359Y-40682D01*
X25387Y-40710D01*
X25443Y-40739D01*
X25556Y-40739D01*
X25612Y-40710D01*
X25640Y-40682D01*
X25668Y-40626D01*
X25668Y-40514D01*
X25640Y-40457D01*
X25612Y-40429D01*
X25556Y-40401D01*
X25303Y-42148D02*
X25696Y-42148D01*
X25443Y-42739D01*
X25612Y-43148D02*
X25500Y-43148D01*
X25443Y-43176D01*
X25415Y-43204D01*
X25359Y-43289D01*
X25331Y-43401D01*
X25331Y-43626D01*
X25359Y-43682D01*
X25387Y-43710D01*
X25443Y-43739D01*
X25556Y-43739D01*
X25612Y-43710D01*
X25640Y-43682D01*
X25668Y-43626D01*
X25668Y-43485D01*
X25640Y-43429D01*
X25612Y-43401D01*
X25556Y-43373D01*
X25443Y-43373D01*
X25387Y-43401D01*
X25359Y-43429D01*
X25331Y-43485D01*
X25640Y-44248D02*
X25359Y-44248D01*
X25331Y-44529D01*
X25359Y-44501D01*
X25415Y-44473D01*
X25556Y-44473D01*
X25612Y-44501D01*
X25640Y-44529D01*
X25668Y-44585D01*
X25668Y-44726D01*
X25640Y-44782D01*
X25612Y-44810D01*
X25556Y-44839D01*
X25415Y-44839D01*
X25359Y-44810D01*
X25331Y-44782D01*
X25612Y-45445D02*
X25612Y-45839D01*
X25471Y-45220D02*
X25331Y-45642D01*
X25696Y-45642D01*
X25403Y-46148D02*
X25768Y-46148D01*
X25571Y-46373D01*
X25656Y-46373D01*
X25712Y-46401D01*
X25740Y-46429D01*
X25768Y-46485D01*
X25768Y-46626D01*
X25740Y-46682D01*
X25712Y-46710D01*
X25656Y-46739D01*
X25487Y-46739D01*
X25431Y-46710D01*
X25403Y-46682D01*
X25431Y-47204D02*
X25459Y-47176D01*
X25515Y-47148D01*
X25656Y-47148D01*
X25712Y-47176D01*
X25740Y-47204D01*
X25768Y-47260D01*
X25768Y-47317D01*
X25740Y-47401D01*
X25403Y-47739D01*
X25768Y-47739D01*
G54D12*
X23361Y-48302D02*
X23647Y-48302D01*
X23504Y-48802D02*
X23504Y-48302D01*
X23766Y-48302D02*
X24100Y-48802D01*
X24100Y-48302D02*
X23766Y-48802D01*
X24290Y-48611D02*
X24671Y-48611D01*
X24909Y-48469D02*
X25290Y-48611D01*
X24909Y-48754D01*
X25790Y-48802D02*
X25504Y-48802D01*
X25647Y-48802D02*
X25647Y-48302D01*
X25600Y-48373D01*
X25552Y-48421D01*
X25504Y-48445D01*
X23659Y-49802D02*
X23492Y-49564D01*
X23373Y-49802D02*
X23373Y-49302D01*
X23564Y-49302D01*
X23611Y-49326D01*
X23635Y-49350D01*
X23659Y-49397D01*
X23659Y-49469D01*
X23635Y-49516D01*
X23611Y-49540D01*
X23564Y-49564D01*
X23373Y-49564D01*
X23826Y-49302D02*
X24159Y-49802D01*
X24159Y-49302D02*
X23826Y-49802D01*
X24730Y-49469D02*
X24350Y-49611D01*
X24730Y-49754D01*
X24969Y-49611D02*
X25350Y-49611D01*
X25683Y-49302D02*
X25730Y-49302D01*
X25778Y-49326D01*
X25802Y-49350D01*
X25826Y-49397D01*
X25850Y-49492D01*
X25850Y-49611D01*
X25826Y-49707D01*
X25802Y-49754D01*
X25778Y-49778D01*
X25730Y-49802D01*
X25683Y-49802D01*
X25635Y-49778D01*
X25611Y-49754D01*
X25588Y-49707D01*
X25564Y-49611D01*
X25564Y-49492D01*
X25588Y-49397D01*
X25611Y-49350D01*
X25635Y-49326D01*
X25683Y-49302D01*
G54D11*
X14442Y-51928D02*
X14642Y-51928D01*
X14728Y-52242D02*
X14442Y-52242D01*
X14442Y-51642D01*
X14728Y-51642D01*
X14928Y-52242D02*
X15242Y-51842D01*
X14928Y-51842D02*
X15242Y-52242D01*
X15471Y-51842D02*
X15471Y-52442D01*
X15471Y-51871D02*
X15528Y-51842D01*
X15642Y-51842D01*
X15700Y-51871D01*
X15728Y-51900D01*
X15757Y-51957D01*
X15757Y-52128D01*
X15728Y-52185D01*
X15700Y-52214D01*
X15642Y-52242D01*
X15528Y-52242D01*
X15471Y-52214D01*
X16099Y-52242D02*
X16042Y-52214D01*
X16014Y-52157D01*
X16014Y-51642D01*
X16414Y-52242D02*
X16357Y-52214D01*
X16328Y-52185D01*
X16300Y-52128D01*
X16300Y-51957D01*
X16328Y-51900D01*
X16357Y-51871D01*
X16414Y-51842D01*
X16500Y-51842D01*
X16557Y-51871D01*
X16585Y-51900D01*
X16614Y-51957D01*
X16614Y-52128D01*
X16585Y-52185D01*
X16557Y-52214D01*
X16500Y-52242D01*
X16414Y-52242D01*
X16871Y-52242D02*
X16871Y-51842D01*
X16871Y-51957D02*
X16900Y-51900D01*
X16928Y-51871D01*
X16985Y-51842D01*
X17042Y-51842D01*
X17471Y-52214D02*
X17414Y-52242D01*
X17300Y-52242D01*
X17242Y-52214D01*
X17214Y-52157D01*
X17214Y-51928D01*
X17242Y-51871D01*
X17300Y-51842D01*
X17414Y-51842D01*
X17471Y-51871D01*
X17500Y-51928D01*
X17500Y-51985D01*
X17214Y-52042D01*
X17757Y-51928D02*
X17957Y-51928D01*
X18042Y-52242D02*
X17757Y-52242D01*
X17757Y-51642D01*
X18042Y-51642D01*
X18300Y-52242D02*
X18300Y-51842D01*
X18300Y-51900D02*
X18328Y-51871D01*
X18385Y-51842D01*
X18471Y-51842D01*
X18528Y-51871D01*
X18557Y-51928D01*
X18557Y-52242D01*
X18557Y-51928D02*
X18585Y-51871D01*
X18642Y-51842D01*
X18728Y-51842D01*
X18785Y-51871D01*
X18814Y-51928D01*
X18814Y-52242D01*
X19100Y-52242D02*
X19100Y-51642D01*
X19100Y-51871D02*
X19157Y-51842D01*
X19271Y-51842D01*
X19328Y-51871D01*
X19357Y-51900D01*
X19385Y-51957D01*
X19385Y-52128D01*
X19357Y-52185D01*
X19328Y-52214D01*
X19271Y-52242D01*
X19157Y-52242D01*
X19100Y-52214D01*
X19871Y-52214D02*
X19814Y-52242D01*
X19700Y-52242D01*
X19642Y-52214D01*
X19614Y-52157D01*
X19614Y-51928D01*
X19642Y-51871D01*
X19700Y-51842D01*
X19814Y-51842D01*
X19871Y-51871D01*
X19900Y-51928D01*
X19900Y-51985D01*
X19614Y-52042D01*
X20414Y-52242D02*
X20414Y-51642D01*
X20414Y-52214D02*
X20357Y-52242D01*
X20242Y-52242D01*
X20185Y-52214D01*
X20157Y-52185D01*
X20128Y-52128D01*
X20128Y-51957D01*
X20157Y-51900D01*
X20185Y-51871D01*
X20242Y-51842D01*
X20357Y-51842D01*
X20414Y-51871D01*
X20957Y-52242D02*
X20957Y-51642D01*
X20957Y-52214D02*
X20900Y-52242D01*
X20785Y-52242D01*
X20728Y-52214D01*
X20700Y-52185D01*
X20671Y-52128D01*
X20671Y-51957D01*
X20700Y-51900D01*
X20728Y-51871D01*
X20785Y-51842D01*
X20900Y-51842D01*
X20957Y-51871D01*
X21471Y-52214D02*
X21414Y-52242D01*
X21300Y-52242D01*
X21242Y-52214D01*
X21214Y-52157D01*
X21214Y-51928D01*
X21242Y-51871D01*
X21300Y-51842D01*
X21414Y-51842D01*
X21471Y-51871D01*
X21500Y-51928D01*
X21500Y-51985D01*
X21214Y-52042D01*
X22014Y-52242D02*
X22014Y-51642D01*
X22014Y-52214D02*
X21957Y-52242D01*
X21842Y-52242D01*
X21785Y-52214D01*
X21757Y-52185D01*
X21728Y-52128D01*
X21728Y-51957D01*
X21757Y-51900D01*
X21785Y-51871D01*
X21842Y-51842D01*
X21957Y-51842D01*
X22014Y-51871D01*
X22300Y-52185D02*
X22328Y-52214D01*
X22300Y-52242D01*
X22271Y-52214D01*
X22300Y-52185D01*
X22300Y-52242D01*
X22842Y-52214D02*
X22785Y-52242D01*
X22671Y-52242D01*
X22614Y-52214D01*
X22585Y-52185D01*
X22557Y-52128D01*
X22557Y-51957D01*
X22585Y-51900D01*
X22614Y-51871D01*
X22671Y-51842D01*
X22785Y-51842D01*
X22842Y-51871D01*
X23185Y-52242D02*
X23128Y-52214D01*
X23100Y-52185D01*
X23071Y-52128D01*
X23071Y-51957D01*
X23100Y-51900D01*
X23128Y-51871D01*
X23185Y-51842D01*
X23271Y-51842D01*
X23328Y-51871D01*
X23357Y-51900D01*
X23385Y-51957D01*
X23385Y-52128D01*
X23357Y-52185D01*
X23328Y-52214D01*
X23271Y-52242D01*
X23185Y-52242D01*
X23642Y-52242D02*
X23642Y-51842D01*
X23642Y-51900D02*
X23671Y-51871D01*
X23728Y-51842D01*
X23814Y-51842D01*
X23871Y-51871D01*
X23900Y-51928D01*
X23900Y-52242D01*
X23900Y-51928D02*
X23928Y-51871D01*
X23985Y-51842D01*
X24071Y-51842D01*
X24128Y-51871D01*
X24157Y-51928D01*
X24157Y-52242D01*
G54D12*
X22525Y-50982D02*
X22375Y-50767D01*
X22267Y-50982D02*
X22267Y-50532D01*
X22439Y-50532D01*
X22482Y-50553D01*
X22503Y-50575D01*
X22525Y-50617D01*
X22525Y-50682D01*
X22503Y-50725D01*
X22482Y-50746D01*
X22439Y-50767D01*
X22267Y-50767D01*
X22675Y-50532D02*
X22975Y-50982D01*
X22975Y-50532D02*
X22675Y-50982D01*
X18957Y-50532D02*
X19214Y-50532D01*
X19085Y-50982D02*
X19085Y-50532D01*
X19321Y-50532D02*
X19621Y-50982D01*
X19621Y-50532D02*
X19321Y-50982D01*
G54D11*
X11900Y-24470D02*
X12181Y-24470D01*
X11843Y-24639D02*
X12040Y-24048D01*
X12237Y-24639D01*
X12771Y-24639D02*
X12575Y-24357D01*
X12434Y-24639D02*
X12434Y-24048D01*
X12659Y-24048D01*
X12715Y-24076D01*
X12743Y-24104D01*
X12771Y-24160D01*
X12771Y-24245D01*
X12743Y-24301D01*
X12715Y-24329D01*
X12659Y-24357D01*
X12434Y-24357D01*
X13025Y-24639D02*
X13025Y-24048D01*
X13165Y-24048D01*
X13250Y-24076D01*
X13306Y-24132D01*
X13334Y-24189D01*
X13362Y-24301D01*
X13362Y-24385D01*
X13334Y-24498D01*
X13306Y-24554D01*
X13250Y-24610D01*
X13165Y-24639D01*
X13025Y-24639D01*
X13615Y-24048D02*
X13615Y-24526D01*
X13643Y-24582D01*
X13671Y-24610D01*
X13728Y-24639D01*
X13840Y-24639D01*
X13896Y-24610D01*
X13924Y-24582D01*
X13953Y-24526D01*
X13953Y-24048D01*
X14234Y-24639D02*
X14234Y-24048D01*
X14515Y-24639D02*
X14515Y-24048D01*
X14852Y-24639D01*
X14852Y-24048D01*
X15246Y-24048D02*
X15359Y-24048D01*
X15415Y-24076D01*
X15471Y-24132D01*
X15499Y-24245D01*
X15499Y-24442D01*
X15471Y-24554D01*
X15415Y-24610D01*
X15359Y-24639D01*
X15246Y-24639D01*
X15190Y-24610D01*
X15134Y-24554D01*
X15106Y-24442D01*
X15106Y-24245D01*
X15134Y-24132D01*
X15190Y-24076D01*
X15246Y-24048D01*
G54D13*
X11500Y-23000D02*
X11500Y-26000D01*
X11500Y-23000D02*
X14500Y-23000D01*
X27500Y-23000D02*
X24500Y-23000D01*
X27500Y-23000D02*
X27500Y-26000D01*
X11500Y-53000D02*
X14500Y-53000D01*
X11500Y-53000D02*
X11500Y-50000D01*
X27500Y-53000D02*
X27500Y-50000D01*
X27500Y-53000D02*
X24500Y-53000D01*
G54D14*
X28400Y-29900D02*
X29400Y-29900D01*
X29400Y-29900D02*
X29400Y-39900D01*
X29400Y-39900D02*
X28400Y-39900D01*
X28400Y-39900D02*
X28400Y-29900D01*
X28400Y-30900D02*
X29400Y-30900D01*
X28400Y-39900D02*
X29400Y-39900D01*
X29400Y-39900D02*
X29400Y-49900D01*
X29400Y-49900D02*
X28400Y-49900D01*
X28400Y-49900D02*
X28400Y-39900D01*
X28400Y-40900D02*
X29400Y-40900D01*
X42400Y-39900D02*
X43400Y-39900D01*
X43400Y-39900D02*
X43400Y-49900D01*
X43400Y-49900D02*
X42400Y-49900D01*
X42400Y-49900D02*
X42400Y-39900D01*
X42400Y-40900D02*
X43400Y-40900D01*
X42400Y-29900D02*
X43400Y-29900D01*
X43400Y-29900D02*
X43400Y-39900D01*
X43400Y-39900D02*
X42400Y-39900D01*
X42400Y-39900D02*
X42400Y-29900D01*
X42400Y-30900D02*
X43400Y-30900D01*
G54D15*
X31200Y-26500D02*
G75*
G03X31200Y-26500I-1000J0D01*
G74*
G01*
X28700Y-25000D02*
X31700Y-25000D01*
X31700Y-25000D02*
X31700Y-28000D01*
X31700Y-28000D02*
X28700Y-28000D01*
X28700Y-25000D02*
X28700Y-28000D01*
X42200Y-29450D02*
X42200Y-28550D01*
X42200Y-28550D02*
X41550Y-28550D01*
X40850Y-29450D02*
X40200Y-29450D01*
X40200Y-29450D02*
X40200Y-28550D01*
X40200Y-28550D02*
X40850Y-28550D01*
X41550Y-29450D02*
X42200Y-29450D01*
X42150Y-25200D02*
X41250Y-25200D01*
X41250Y-25200D02*
X41250Y-25850D01*
X42150Y-26550D02*
X42150Y-27200D01*
X42150Y-27200D02*
X41250Y-27200D01*
X41250Y-27200D02*
X41250Y-26550D01*
X42150Y-25850D02*
X42150Y-25200D01*
X32100Y-29450D02*
X32100Y-28550D01*
X32100Y-28550D02*
X31450Y-28550D01*
X30750Y-29450D02*
X30100Y-29450D01*
X30100Y-29450D02*
X30100Y-28550D01*
X30100Y-28550D02*
X30750Y-28550D01*
X31450Y-29450D02*
X32100Y-29450D01*
X38300Y-35850D02*
X38300Y-36750D01*
X38300Y-36750D02*
X38950Y-36750D01*
X39650Y-35850D02*
X40300Y-35850D01*
X40300Y-35850D02*
X40300Y-36750D01*
X40300Y-36750D02*
X39650Y-36750D01*
X38950Y-35850D02*
X38300Y-35850D01*
X38300Y-42650D02*
X38300Y-43550D01*
X38300Y-43550D02*
X38950Y-43550D01*
X39650Y-42650D02*
X40300Y-42650D01*
X40300Y-42650D02*
X40300Y-43550D01*
X40300Y-43550D02*
X39650Y-43550D01*
X38950Y-42650D02*
X38300Y-42650D01*
G54D16*
X38500Y-38250D02*
X38500Y-40750D01*
X40500Y-38250D02*
X40500Y-40750D01*
X39500Y-41750D02*
G75*
G03X40500Y-40750I0J1000D01*
G74*
G01*
X38500Y-40750D02*
G75*
G03X39500Y-41750I1000J0D01*
G74*
G01*
X40500Y-38250D02*
G75*
G03X39500Y-37250I-1000J0D01*
G74*
G01*
X39500Y-37250D02*
G75*
G03X38500Y-38250I0J-1000D01*
G74*
G01*
G54D17*
X34500Y-49000D02*
X34500Y-34000D01*
X34500Y-34000D02*
X36500Y-34000D01*
X36500Y-34000D02*
X36500Y-49000D01*
X36500Y-49000D02*
X34500Y-49000D01*
X35000Y-49000D02*
X35000Y-48500D01*
X35000Y-48500D02*
X36000Y-48500D01*
X36000Y-48500D02*
X36000Y-49000D01*
G54D15*
X41600Y-51150D02*
X41600Y-50250D01*
X41600Y-50250D02*
X40950Y-50250D01*
X40250Y-51150D02*
X39600Y-51150D01*
X39600Y-51150D02*
X39600Y-50250D01*
X39600Y-50250D02*
X40250Y-50250D01*
X40950Y-51150D02*
X41600Y-51150D01*
X36300Y-50250D02*
X36300Y-51150D01*
X36300Y-51150D02*
X36950Y-51150D01*
X37650Y-50250D02*
X38300Y-50250D01*
X38300Y-50250D02*
X38300Y-51150D01*
X38300Y-51150D02*
X37650Y-51150D01*
X36950Y-50250D02*
X36300Y-50250D01*
X38650Y-48600D02*
X39550Y-48600D01*
X39550Y-48600D02*
X39550Y-47950D01*
X38650Y-47250D02*
X38650Y-46600D01*
X38650Y-46600D02*
X39550Y-46600D01*
X39550Y-46600D02*
X39550Y-47250D01*
X38650Y-47950D02*
X38650Y-48600D01*
G54D12*
X32650Y-24600D02*
X32400Y-24350D01*
X32650Y-27600D02*
X32400Y-27850D01*
X40150Y-27600D02*
X40400Y-27850D01*
X40150Y-24600D02*
X40400Y-24350D01*
X37150Y-27850D02*
X37150Y-27600D01*
X37150Y-27600D02*
X40150Y-27600D01*
X40150Y-27600D02*
X40150Y-24600D01*
X40150Y-24600D02*
X32650Y-24600D01*
X32650Y-24600D02*
X32650Y-27600D01*
X32650Y-27600D02*
X35650Y-27600D01*
X35650Y-27600D02*
X35650Y-27850D01*
X32400Y-27850D02*
X40400Y-27850D01*
X40400Y-24350D02*
X32400Y-24350D01*
X32400Y-24350D02*
X32400Y-27850D01*
X40400Y-24350D02*
X40400Y-27850D01*
G54D18*
X33448Y-26875D02*
X33723Y-27296D01*
X33723Y-27296D02*
X33999Y-26875D01*
X33999Y-26875D02*
X33448Y-26875D01*
G54D14*
X44800Y-29800D02*
X45800Y-29800D01*
X45800Y-29800D02*
X45800Y-39800D01*
X45800Y-39800D02*
X44800Y-39800D01*
X44800Y-39800D02*
X44800Y-29800D01*
X44800Y-30800D02*
X45800Y-30800D01*
X44800Y-39800D02*
X45800Y-39800D01*
X45800Y-39800D02*
X45800Y-49800D01*
X45800Y-49800D02*
X44800Y-49800D01*
X44800Y-49800D02*
X44800Y-39800D01*
X44800Y-40800D02*
X45800Y-40800D01*
X58800Y-39800D02*
X59800Y-39800D01*
X59800Y-39800D02*
X59800Y-49800D01*
X59800Y-49800D02*
X58800Y-49800D01*
X58800Y-49800D02*
X58800Y-39800D01*
X58800Y-40800D02*
X59800Y-40800D01*
X58800Y-29800D02*
X59800Y-29800D01*
X59800Y-29800D02*
X59800Y-39800D01*
X59800Y-39800D02*
X58800Y-39800D01*
X58800Y-39800D02*
X58800Y-29800D01*
X58800Y-30800D02*
X59800Y-30800D01*
G54D15*
X47600Y-26400D02*
G75*
G03X47600Y-26400I-1000J0D01*
G74*
G01*
X45100Y-24900D02*
X48100Y-24900D01*
X48100Y-24900D02*
X48100Y-27900D01*
X48100Y-27900D02*
X45100Y-27900D01*
X45100Y-24900D02*
X45100Y-27900D01*
X58600Y-29350D02*
X58600Y-28450D01*
X58600Y-28450D02*
X57950Y-28450D01*
X57250Y-29350D02*
X56600Y-29350D01*
X56600Y-29350D02*
X56600Y-28450D01*
X56600Y-28450D02*
X57250Y-28450D01*
X57950Y-29350D02*
X58600Y-29350D01*
X58550Y-25100D02*
X57650Y-25100D01*
X57650Y-25100D02*
X57650Y-25750D01*
X58550Y-26450D02*
X58550Y-27100D01*
X58550Y-27100D02*
X57650Y-27100D01*
X57650Y-27100D02*
X57650Y-26450D01*
X58550Y-25750D02*
X58550Y-25100D01*
X48500Y-29350D02*
X48500Y-28450D01*
X48500Y-28450D02*
X47850Y-28450D01*
X47150Y-29350D02*
X46500Y-29350D01*
X46500Y-29350D02*
X46500Y-28450D01*
X46500Y-28450D02*
X47150Y-28450D01*
X47850Y-29350D02*
X48500Y-29350D01*
X54700Y-35750D02*
X54700Y-36650D01*
X54700Y-36650D02*
X55350Y-36650D01*
X56050Y-35750D02*
X56700Y-35750D01*
X56700Y-35750D02*
X56700Y-36650D01*
X56700Y-36650D02*
X56050Y-36650D01*
X55350Y-35750D02*
X54700Y-35750D01*
X54700Y-42550D02*
X54700Y-43450D01*
X54700Y-43450D02*
X55350Y-43450D01*
X56050Y-42550D02*
X56700Y-42550D01*
X56700Y-42550D02*
X56700Y-43450D01*
X56700Y-43450D02*
X56050Y-43450D01*
X55350Y-42550D02*
X54700Y-42550D01*
G54D16*
X54900Y-38150D02*
X54900Y-40650D01*
X56900Y-38150D02*
X56900Y-40650D01*
X55900Y-41650D02*
G75*
G03X56900Y-40650I0J1000D01*
G74*
G01*
X54900Y-40650D02*
G75*
G03X55900Y-41650I1000J0D01*
G74*
G01*
X56900Y-38150D02*
G75*
G03X55900Y-37150I-1000J0D01*
G74*
G01*
X55900Y-37150D02*
G75*
G03X54900Y-38150I0J-1000D01*
G74*
G01*
G54D17*
X50900Y-48900D02*
X50900Y-33900D01*
X50900Y-33900D02*
X52900Y-33900D01*
X52900Y-33900D02*
X52900Y-48900D01*
X52900Y-48900D02*
X50900Y-48900D01*
X51400Y-48900D02*
X51400Y-48400D01*
X51400Y-48400D02*
X52400Y-48400D01*
X52400Y-48400D02*
X52400Y-48900D01*
G54D15*
X58000Y-51050D02*
X58000Y-50150D01*
X58000Y-50150D02*
X57350Y-50150D01*
X56650Y-51050D02*
X56000Y-51050D01*
X56000Y-51050D02*
X56000Y-50150D01*
X56000Y-50150D02*
X56650Y-50150D01*
X57350Y-51050D02*
X58000Y-51050D01*
X52700Y-50150D02*
X52700Y-51050D01*
X52700Y-51050D02*
X53350Y-51050D01*
X54050Y-50150D02*
X54700Y-50150D01*
X54700Y-50150D02*
X54700Y-51050D01*
X54700Y-51050D02*
X54050Y-51050D01*
X53350Y-50150D02*
X52700Y-50150D01*
X55050Y-48500D02*
X55950Y-48500D01*
X55950Y-48500D02*
X55950Y-47850D01*
X55050Y-47150D02*
X55050Y-46500D01*
X55050Y-46500D02*
X55950Y-46500D01*
X55950Y-46500D02*
X55950Y-47150D01*
X55050Y-47850D02*
X55050Y-48500D01*
G54D12*
X49050Y-24500D02*
X48800Y-24250D01*
X49050Y-27500D02*
X48800Y-27750D01*
X56550Y-27500D02*
X56800Y-27750D01*
X56550Y-24500D02*
X56800Y-24250D01*
X53550Y-27750D02*
X53550Y-27500D01*
X53550Y-27500D02*
X56550Y-27500D01*
X56550Y-27500D02*
X56550Y-24500D01*
X56550Y-24500D02*
X49050Y-24500D01*
X49050Y-24500D02*
X49050Y-27500D01*
X49050Y-27500D02*
X52050Y-27500D01*
X52050Y-27500D02*
X52050Y-27750D01*
X48800Y-27750D02*
X56800Y-27750D01*
X56800Y-24250D02*
X48800Y-24250D01*
X48800Y-24250D02*
X48800Y-27750D01*
X56800Y-24250D02*
X56800Y-27750D01*
G54D18*
X49848Y-26775D02*
X50123Y-27196D01*
X50123Y-27196D02*
X50399Y-26775D01*
X50399Y-26775D02*
X49848Y-26775D01*
G54D14*
X61200Y-29800D02*
X62200Y-29800D01*
X62200Y-29800D02*
X62200Y-39800D01*
X62200Y-39800D02*
X61200Y-39800D01*
X61200Y-39800D02*
X61200Y-29800D01*
X61200Y-30800D02*
X62200Y-30800D01*
X61200Y-39800D02*
X62200Y-39800D01*
X62200Y-39800D02*
X62200Y-49800D01*
X62200Y-49800D02*
X61200Y-49800D01*
X61200Y-49800D02*
X61200Y-39800D01*
X61200Y-40800D02*
X62200Y-40800D01*
X75200Y-39800D02*
X76200Y-39800D01*
X76200Y-39800D02*
X76200Y-49800D01*
X76200Y-49800D02*
X75200Y-49800D01*
X75200Y-49800D02*
X75200Y-39800D01*
X75200Y-40800D02*
X76200Y-40800D01*
X75200Y-29800D02*
X76200Y-29800D01*
X76200Y-29800D02*
X76200Y-39800D01*
X76200Y-39800D02*
X75200Y-39800D01*
X75200Y-39800D02*
X75200Y-29800D01*
X75200Y-30800D02*
X76200Y-30800D01*
G54D15*
X64000Y-26400D02*
G75*
G03X64000Y-26400I-1000J0D01*
G74*
G01*
X61500Y-24900D02*
X64500Y-24900D01*
X64500Y-24900D02*
X64500Y-27900D01*
X64500Y-27900D02*
X61500Y-27900D01*
X61500Y-24900D02*
X61500Y-27900D01*
X75000Y-29350D02*
X75000Y-28450D01*
X75000Y-28450D02*
X74350Y-28450D01*
X73650Y-29350D02*
X73000Y-29350D01*
X73000Y-29350D02*
X73000Y-28450D01*
X73000Y-28450D02*
X73650Y-28450D01*
X74350Y-29350D02*
X75000Y-29350D01*
X74950Y-25100D02*
X74050Y-25100D01*
X74050Y-25100D02*
X74050Y-25750D01*
X74950Y-26450D02*
X74950Y-27100D01*
X74950Y-27100D02*
X74050Y-27100D01*
X74050Y-27100D02*
X74050Y-26450D01*
X74950Y-25750D02*
X74950Y-25100D01*
X64900Y-29350D02*
X64900Y-28450D01*
X64900Y-28450D02*
X64250Y-28450D01*
X63550Y-29350D02*
X62900Y-29350D01*
X62900Y-29350D02*
X62900Y-28450D01*
X62900Y-28450D02*
X63550Y-28450D01*
X64250Y-29350D02*
X64900Y-29350D01*
X71100Y-35750D02*
X71100Y-36650D01*
X71100Y-36650D02*
X71750Y-36650D01*
X72450Y-35750D02*
X73100Y-35750D01*
X73100Y-35750D02*
X73100Y-36650D01*
X73100Y-36650D02*
X72450Y-36650D01*
X71750Y-35750D02*
X71100Y-35750D01*
X71100Y-42550D02*
X71100Y-43450D01*
X71100Y-43450D02*
X71750Y-43450D01*
X72450Y-42550D02*
X73100Y-42550D01*
X73100Y-42550D02*
X73100Y-43450D01*
X73100Y-43450D02*
X72450Y-43450D01*
X71750Y-42550D02*
X71100Y-42550D01*
G54D16*
X71300Y-38150D02*
X71300Y-40650D01*
X73300Y-38150D02*
X73300Y-40650D01*
X72300Y-41650D02*
G75*
G03X73300Y-40650I0J1000D01*
G74*
G01*
X71300Y-40650D02*
G75*
G03X72300Y-41650I1000J0D01*
G74*
G01*
X73300Y-38150D02*
G75*
G03X72300Y-37150I-1000J0D01*
G74*
G01*
X72300Y-37150D02*
G75*
G03X71300Y-38150I0J-1000D01*
G74*
G01*
G54D17*
X67300Y-48900D02*
X67300Y-33900D01*
X67300Y-33900D02*
X69300Y-33900D01*
X69300Y-33900D02*
X69300Y-48900D01*
X69300Y-48900D02*
X67300Y-48900D01*
X67800Y-48900D02*
X67800Y-48400D01*
X67800Y-48400D02*
X68800Y-48400D01*
X68800Y-48400D02*
X68800Y-48900D01*
G54D15*
X74400Y-51050D02*
X74400Y-50150D01*
X74400Y-50150D02*
X73750Y-50150D01*
X73050Y-51050D02*
X72400Y-51050D01*
X72400Y-51050D02*
X72400Y-50150D01*
X72400Y-50150D02*
X73050Y-50150D01*
X73750Y-51050D02*
X74400Y-51050D01*
X69100Y-50150D02*
X69100Y-51050D01*
X69100Y-51050D02*
X69750Y-51050D01*
X70450Y-50150D02*
X71100Y-50150D01*
X71100Y-50150D02*
X71100Y-51050D01*
X71100Y-51050D02*
X70450Y-51050D01*
X69750Y-50150D02*
X69100Y-50150D01*
X71450Y-48500D02*
X72350Y-48500D01*
X72350Y-48500D02*
X72350Y-47850D01*
X71450Y-47150D02*
X71450Y-46500D01*
X71450Y-46500D02*
X72350Y-46500D01*
X72350Y-46500D02*
X72350Y-47150D01*
X71450Y-47850D02*
X71450Y-48500D01*
G54D12*
X65450Y-24500D02*
X65200Y-24250D01*
X65450Y-27500D02*
X65200Y-27750D01*
X72950Y-27500D02*
X73200Y-27750D01*
X72950Y-24500D02*
X73200Y-24250D01*
X69950Y-27750D02*
X69950Y-27500D01*
X69950Y-27500D02*
X72950Y-27500D01*
X72950Y-27500D02*
X72950Y-24500D01*
X72950Y-24500D02*
X65450Y-24500D01*
X65450Y-24500D02*
X65450Y-27500D01*
X65450Y-27500D02*
X68450Y-27500D01*
X68450Y-27500D02*
X68450Y-27750D01*
X65200Y-27750D02*
X73200Y-27750D01*
X73200Y-24250D02*
X65200Y-24250D01*
X65200Y-24250D02*
X65200Y-27750D01*
X73200Y-24250D02*
X73200Y-27750D01*
G54D18*
X66248Y-26775D02*
X66523Y-27196D01*
X66523Y-27196D02*
X66799Y-26775D01*
X66799Y-26775D02*
X66248Y-26775D01*
G54D14*
X77500Y-29700D02*
X78500Y-29700D01*
X78500Y-29700D02*
X78500Y-39700D01*
X78500Y-39700D02*
X77500Y-39700D01*
X77500Y-39700D02*
X77500Y-29700D01*
X77500Y-30700D02*
X78500Y-30700D01*
X77500Y-39700D02*
X78500Y-39700D01*
X78500Y-39700D02*
X78500Y-49700D01*
X78500Y-49700D02*
X77500Y-49700D01*
X77500Y-49700D02*
X77500Y-39700D01*
X77500Y-40700D02*
X78500Y-40700D01*
X91500Y-39700D02*
X92500Y-39700D01*
X92500Y-39700D02*
X92500Y-49700D01*
X92500Y-49700D02*
X91500Y-49700D01*
X91500Y-49700D02*
X91500Y-39700D01*
X91500Y-40700D02*
X92500Y-40700D01*
X91500Y-29700D02*
X92500Y-29700D01*
X92500Y-29700D02*
X92500Y-39700D01*
X92500Y-39700D02*
X91500Y-39700D01*
X91500Y-39700D02*
X91500Y-29700D01*
X91500Y-30700D02*
X92500Y-30700D01*
G54D15*
X80300Y-26300D02*
G75*
G03X80300Y-26300I-1000J0D01*
G74*
G01*
X77800Y-24800D02*
X80800Y-24800D01*
X80800Y-24800D02*
X80800Y-27800D01*
X80800Y-27800D02*
X77800Y-27800D01*
X77800Y-24800D02*
X77800Y-27800D01*
X91300Y-29250D02*
X91300Y-28350D01*
X91300Y-28350D02*
X90650Y-28350D01*
X89950Y-29250D02*
X89300Y-29250D01*
X89300Y-29250D02*
X89300Y-28350D01*
X89300Y-28350D02*
X89950Y-28350D01*
X90650Y-29250D02*
X91300Y-29250D01*
X91250Y-25000D02*
X90350Y-25000D01*
X90350Y-25000D02*
X90350Y-25650D01*
X91250Y-26350D02*
X91250Y-27000D01*
X91250Y-27000D02*
X90350Y-27000D01*
X90350Y-27000D02*
X90350Y-26350D01*
X91250Y-25650D02*
X91250Y-25000D01*
X81200Y-29250D02*
X81200Y-28350D01*
X81200Y-28350D02*
X80550Y-28350D01*
X79850Y-29250D02*
X79200Y-29250D01*
X79200Y-29250D02*
X79200Y-28350D01*
X79200Y-28350D02*
X79850Y-28350D01*
X80550Y-29250D02*
X81200Y-29250D01*
X87400Y-35650D02*
X87400Y-36550D01*
X87400Y-36550D02*
X88050Y-36550D01*
X88750Y-35650D02*
X89400Y-35650D01*
X89400Y-35650D02*
X89400Y-36550D01*
X89400Y-36550D02*
X88750Y-36550D01*
X88050Y-35650D02*
X87400Y-35650D01*
X87400Y-42450D02*
X87400Y-43350D01*
X87400Y-43350D02*
X88050Y-43350D01*
X88750Y-42450D02*
X89400Y-42450D01*
X89400Y-42450D02*
X89400Y-43350D01*
X89400Y-43350D02*
X88750Y-43350D01*
X88050Y-42450D02*
X87400Y-42450D01*
G54D16*
X87600Y-38050D02*
X87600Y-40550D01*
X89600Y-38050D02*
X89600Y-40550D01*
X88600Y-41550D02*
G75*
G03X89600Y-40550I0J1000D01*
G74*
G01*
X87600Y-40550D02*
G75*
G03X88600Y-41550I1000J0D01*
G74*
G01*
X89600Y-38050D02*
G75*
G03X88600Y-37050I-1000J0D01*
G74*
G01*
X88600Y-37050D02*
G75*
G03X87600Y-38050I0J-1000D01*
G74*
G01*
G54D17*
X83600Y-48800D02*
X83600Y-33800D01*
X83600Y-33800D02*
X85600Y-33800D01*
X85600Y-33800D02*
X85600Y-48800D01*
X85600Y-48800D02*
X83600Y-48800D01*
X84100Y-48800D02*
X84100Y-48300D01*
X84100Y-48300D02*
X85100Y-48300D01*
X85100Y-48300D02*
X85100Y-48800D01*
G54D15*
X90700Y-50950D02*
X90700Y-50050D01*
X90700Y-50050D02*
X90050Y-50050D01*
X89350Y-50950D02*
X88700Y-50950D01*
X88700Y-50950D02*
X88700Y-50050D01*
X88700Y-50050D02*
X89350Y-50050D01*
X90050Y-50950D02*
X90700Y-50950D01*
X85400Y-50050D02*
X85400Y-50950D01*
X85400Y-50950D02*
X86050Y-50950D01*
X86750Y-50050D02*
X87400Y-50050D01*
X87400Y-50050D02*
X87400Y-50950D01*
X87400Y-50950D02*
X86750Y-50950D01*
X86050Y-50050D02*
X85400Y-50050D01*
X87750Y-48400D02*
X88650Y-48400D01*
X88650Y-48400D02*
X88650Y-47750D01*
X87750Y-47050D02*
X87750Y-46400D01*
X87750Y-46400D02*
X88650Y-46400D01*
X88650Y-46400D02*
X88650Y-47050D01*
X87750Y-47750D02*
X87750Y-48400D01*
G54D12*
X81750Y-24400D02*
X81500Y-24150D01*
X81750Y-27400D02*
X81500Y-27650D01*
X89250Y-27400D02*
X89500Y-27650D01*
X89250Y-24400D02*
X89500Y-24150D01*
X86250Y-27650D02*
X86250Y-27400D01*
X86250Y-27400D02*
X89250Y-27400D01*
X89250Y-27400D02*
X89250Y-24400D01*
X89250Y-24400D02*
X81750Y-24400D01*
X81750Y-24400D02*
X81750Y-27400D01*
X81750Y-27400D02*
X84750Y-27400D01*
X84750Y-27400D02*
X84750Y-27650D01*
X81500Y-27650D02*
X89500Y-27650D01*
X89500Y-24150D02*
X81500Y-24150D01*
X81500Y-24150D02*
X81500Y-27650D01*
X89500Y-24150D02*
X89500Y-27650D01*
G54D18*
X82548Y-26675D02*
X82823Y-27096D01*
X82823Y-27096D02*
X83099Y-26675D01*
X83099Y-26675D02*
X82548Y-26675D01*
G54D14*
X12000Y-30000D02*
X13000Y-30000D01*
X13000Y-30000D02*
X13000Y-40000D01*
X13000Y-40000D02*
X12000Y-40000D01*
X12000Y-40000D02*
X12000Y-30000D01*
X12000Y-31000D02*
X13000Y-31000D01*
X12000Y-40000D02*
X13000Y-40000D01*
X13000Y-40000D02*
X13000Y-50000D01*
X13000Y-50000D02*
X12000Y-50000D01*
X12000Y-50000D02*
X12000Y-40000D01*
X12000Y-41000D02*
X13000Y-41000D01*
X26000Y-40000D02*
X27000Y-40000D01*
X27000Y-40000D02*
X27000Y-50000D01*
X27000Y-50000D02*
X26000Y-50000D01*
X26000Y-50000D02*
X26000Y-40000D01*
X26000Y-41000D02*
X27000Y-41000D01*
X26000Y-30000D02*
X27000Y-30000D01*
X27000Y-30000D02*
X27000Y-40000D01*
X27000Y-40000D02*
X26000Y-40000D01*
X26000Y-40000D02*
X26000Y-30000D01*
X26000Y-31000D02*
X27000Y-31000D01*
G54D15*
X14800Y-26600D02*
G75*
G03X14800Y-26600I-1000J0D01*
G74*
G01*
X12300Y-25100D02*
X15300Y-25100D01*
X15300Y-25100D02*
X15300Y-28100D01*
X15300Y-28100D02*
X12300Y-28100D01*
X12300Y-25100D02*
X12300Y-28100D01*
X25800Y-29550D02*
X25800Y-28650D01*
X25800Y-28650D02*
X25150Y-28650D01*
X24450Y-29550D02*
X23800Y-29550D01*
X23800Y-29550D02*
X23800Y-28650D01*
X23800Y-28650D02*
X24450Y-28650D01*
X25150Y-29550D02*
X25800Y-29550D01*
X25750Y-25300D02*
X24850Y-25300D01*
X24850Y-25300D02*
X24850Y-25950D01*
X25750Y-26650D02*
X25750Y-27300D01*
X25750Y-27300D02*
X24850Y-27300D01*
X24850Y-27300D02*
X24850Y-26650D01*
X25750Y-25950D02*
X25750Y-25300D01*
X15700Y-29550D02*
X15700Y-28650D01*
X15700Y-28650D02*
X15050Y-28650D01*
X14350Y-29550D02*
X13700Y-29550D01*
X13700Y-29550D02*
X13700Y-28650D01*
X13700Y-28650D02*
X14350Y-28650D01*
X15050Y-29550D02*
X15700Y-29550D01*
X21900Y-35950D02*
X21900Y-36850D01*
X21900Y-36850D02*
X22550Y-36850D01*
X23250Y-35950D02*
X23900Y-35950D01*
X23900Y-35950D02*
X23900Y-36850D01*
X23900Y-36850D02*
X23250Y-36850D01*
X22550Y-35950D02*
X21900Y-35950D01*
X21900Y-42750D02*
X21900Y-43650D01*
X21900Y-43650D02*
X22550Y-43650D01*
X23250Y-42750D02*
X23900Y-42750D01*
X23900Y-42750D02*
X23900Y-43650D01*
X23900Y-43650D02*
X23250Y-43650D01*
X22550Y-42750D02*
X21900Y-42750D01*
G54D16*
X22100Y-38350D02*
X22100Y-40850D01*
X24100Y-38350D02*
X24100Y-40850D01*
X23100Y-41850D02*
G75*
G03X24100Y-40850I0J1000D01*
G74*
G01*
X22100Y-40850D02*
G75*
G03X23100Y-41850I1000J0D01*
G74*
G01*
X24100Y-38350D02*
G75*
G03X23100Y-37350I-1000J0D01*
G74*
G01*
X23100Y-37350D02*
G75*
G03X22100Y-38350I0J-1000D01*
G74*
G01*
G54D17*
X18100Y-49100D02*
X18100Y-34100D01*
X18100Y-34100D02*
X20100Y-34100D01*
X20100Y-34100D02*
X20100Y-49100D01*
X20100Y-49100D02*
X18100Y-49100D01*
X18600Y-49100D02*
X18600Y-48600D01*
X18600Y-48600D02*
X19600Y-48600D01*
X19600Y-48600D02*
X19600Y-49100D01*
G54D15*
X25200Y-51250D02*
X25200Y-50350D01*
X25200Y-50350D02*
X24550Y-50350D01*
X23850Y-51250D02*
X23200Y-51250D01*
X23200Y-51250D02*
X23200Y-50350D01*
X23200Y-50350D02*
X23850Y-50350D01*
X24550Y-51250D02*
X25200Y-51250D01*
X19900Y-50350D02*
X19900Y-51250D01*
X19900Y-51250D02*
X20550Y-51250D01*
X21250Y-50350D02*
X21900Y-50350D01*
X21900Y-50350D02*
X21900Y-51250D01*
X21900Y-51250D02*
X21250Y-51250D01*
X20550Y-50350D02*
X19900Y-50350D01*
X22250Y-48700D02*
X23150Y-48700D01*
X23150Y-48700D02*
X23150Y-48050D01*
X22250Y-47350D02*
X22250Y-46700D01*
X22250Y-46700D02*
X23150Y-46700D01*
X23150Y-46700D02*
X23150Y-47350D01*
X22250Y-48050D02*
X22250Y-48700D01*
G54D12*
X16250Y-24700D02*
X16000Y-24450D01*
X16250Y-27700D02*
X16000Y-27950D01*
X23750Y-27700D02*
X24000Y-27950D01*
X23750Y-24700D02*
X24000Y-24450D01*
X20750Y-27950D02*
X20750Y-27700D01*
X20750Y-27700D02*
X23750Y-27700D01*
X23750Y-27700D02*
X23750Y-24700D01*
X23750Y-24700D02*
X16250Y-24700D01*
X16250Y-24700D02*
X16250Y-27700D01*
X16250Y-27700D02*
X19250Y-27700D01*
X19250Y-27700D02*
X19250Y-27950D01*
X16000Y-27950D02*
X24000Y-27950D01*
X24000Y-24450D02*
X16000Y-24450D01*
X16000Y-24450D02*
X16000Y-27950D01*
X24000Y-24450D02*
X24000Y-27950D01*
G54D18*
X17048Y-26975D02*
X17323Y-27396D01*
X17323Y-27396D02*
X17599Y-26975D01*
X17599Y-26975D02*
X17048Y-26975D01*
G54D19*
X29666Y-26792D02*
X29723Y-26811D01*
X29819Y-26811D01*
X29857Y-26792D01*
X29876Y-26773D01*
X29895Y-26735D01*
X29895Y-26697D01*
X29876Y-26659D01*
X29857Y-26640D01*
X29819Y-26621D01*
X29742Y-26602D01*
X29704Y-26583D01*
X29685Y-26564D01*
X29666Y-26526D01*
X29666Y-26488D01*
X29685Y-26450D01*
X29704Y-26430D01*
X29742Y-26411D01*
X29838Y-26411D01*
X29895Y-26430D01*
X30028Y-26411D02*
X30123Y-26811D01*
X30200Y-26526D01*
X30276Y-26811D01*
X30371Y-26411D01*
X30733Y-26811D02*
X30504Y-26811D01*
X30619Y-26811D02*
X30619Y-26411D01*
X30580Y-26469D01*
X30542Y-26507D01*
X30504Y-26526D01*
G54D15*
X41150Y-29121D02*
X41050Y-28978D01*
X40978Y-29121D02*
X40978Y-28821D01*
X41092Y-28821D01*
X41121Y-28835D01*
X41135Y-28850D01*
X41150Y-28878D01*
X41150Y-28921D01*
X41135Y-28950D01*
X41121Y-28964D01*
X41092Y-28978D01*
X40978Y-28978D01*
X41435Y-29121D02*
X41264Y-29121D01*
X41350Y-29121D02*
X41350Y-28821D01*
X41321Y-28864D01*
X41292Y-28892D01*
X41264Y-28907D01*
X41821Y-26421D02*
X41521Y-26421D01*
X41521Y-26350D01*
X41535Y-26307D01*
X41564Y-26278D01*
X41592Y-26264D01*
X41650Y-26250D01*
X41692Y-26250D01*
X41750Y-26264D01*
X41778Y-26278D01*
X41807Y-26307D01*
X41821Y-26350D01*
X41821Y-26421D01*
X41821Y-25964D02*
X41821Y-26135D01*
X41821Y-26050D02*
X41521Y-26050D01*
X41564Y-26078D01*
X41592Y-26107D01*
X41607Y-26135D01*
X31050Y-29121D02*
X30950Y-28978D01*
X30878Y-29121D02*
X30878Y-28821D01*
X30992Y-28821D01*
X31021Y-28835D01*
X31035Y-28850D01*
X31050Y-28878D01*
X31050Y-28921D01*
X31035Y-28950D01*
X31021Y-28964D01*
X30992Y-28978D01*
X30878Y-28978D01*
X31164Y-28850D02*
X31178Y-28835D01*
X31207Y-28821D01*
X31278Y-28821D01*
X31307Y-28835D01*
X31321Y-28850D01*
X31335Y-28878D01*
X31335Y-28907D01*
X31321Y-28950D01*
X31150Y-29121D01*
X31335Y-29121D01*
X39250Y-36392D02*
X39235Y-36407D01*
X39192Y-36421D01*
X39164Y-36421D01*
X39121Y-36407D01*
X39092Y-36378D01*
X39078Y-36350D01*
X39064Y-36292D01*
X39064Y-36250D01*
X39078Y-36192D01*
X39092Y-36164D01*
X39121Y-36135D01*
X39164Y-36121D01*
X39192Y-36121D01*
X39235Y-36135D01*
X39250Y-36150D01*
X39364Y-36150D02*
X39378Y-36135D01*
X39407Y-36121D01*
X39478Y-36121D01*
X39507Y-36135D01*
X39521Y-36150D01*
X39535Y-36178D01*
X39535Y-36207D01*
X39521Y-36250D01*
X39350Y-36421D01*
X39535Y-36421D01*
X39250Y-43192D02*
X39235Y-43207D01*
X39192Y-43221D01*
X39164Y-43221D01*
X39121Y-43207D01*
X39092Y-43178D01*
X39078Y-43150D01*
X39064Y-43092D01*
X39064Y-43050D01*
X39078Y-42992D01*
X39092Y-42964D01*
X39121Y-42935D01*
X39164Y-42921D01*
X39192Y-42921D01*
X39235Y-42935D01*
X39250Y-42950D01*
X39535Y-43221D02*
X39364Y-43221D01*
X39450Y-43221D02*
X39450Y-42921D01*
X39421Y-42964D01*
X39392Y-42992D01*
X39364Y-43007D01*
X40378Y-50821D02*
X40378Y-50521D01*
X40450Y-50521D01*
X40492Y-50535D01*
X40521Y-50564D01*
X40535Y-50592D01*
X40550Y-50650D01*
X40550Y-50692D01*
X40535Y-50750D01*
X40521Y-50778D01*
X40492Y-50807D01*
X40450Y-50821D01*
X40378Y-50821D01*
X40664Y-50550D02*
X40678Y-50535D01*
X40707Y-50521D01*
X40778Y-50521D01*
X40807Y-50535D01*
X40821Y-50550D01*
X40835Y-50578D01*
X40835Y-50607D01*
X40821Y-50650D01*
X40650Y-50821D01*
X40835Y-50821D01*
X37078Y-50821D02*
X37078Y-50521D01*
X37150Y-50521D01*
X37192Y-50535D01*
X37221Y-50564D01*
X37235Y-50592D01*
X37250Y-50650D01*
X37250Y-50692D01*
X37235Y-50750D01*
X37221Y-50778D01*
X37192Y-50807D01*
X37150Y-50821D01*
X37078Y-50821D01*
X37350Y-50521D02*
X37535Y-50521D01*
X37435Y-50635D01*
X37478Y-50635D01*
X37507Y-50650D01*
X37521Y-50664D01*
X37535Y-50692D01*
X37535Y-50764D01*
X37521Y-50792D01*
X37507Y-50807D01*
X37478Y-50821D01*
X37392Y-50821D01*
X37364Y-50807D01*
X37350Y-50792D01*
X39221Y-47650D02*
X39078Y-47750D01*
X39221Y-47821D02*
X38921Y-47821D01*
X38921Y-47707D01*
X38935Y-47678D01*
X38950Y-47664D01*
X38978Y-47650D01*
X39021Y-47650D01*
X39050Y-47664D01*
X39064Y-47678D01*
X39078Y-47707D01*
X39078Y-47821D01*
X38921Y-47550D02*
X38921Y-47364D01*
X39035Y-47464D01*
X39035Y-47421D01*
X39050Y-47392D01*
X39064Y-47378D01*
X39092Y-47364D01*
X39164Y-47364D01*
X39192Y-47378D01*
X39207Y-47392D01*
X39221Y-47421D01*
X39221Y-47507D01*
X39207Y-47535D01*
X39192Y-47550D01*
G54D20*
X32383Y-24383D02*
X32383Y-23683D01*
X32650Y-23683D01*
X32716Y-23716D01*
X32750Y-23750D01*
X32783Y-23816D01*
X32783Y-23916D01*
X32750Y-23983D01*
X32716Y-24016D01*
X32650Y-24050D01*
X32383Y-24050D01*
X33450Y-24383D02*
X33050Y-24383D01*
X33250Y-24383D02*
X33250Y-23683D01*
X33183Y-23783D01*
X33116Y-23850D01*
X33050Y-23883D01*
X34750Y-28816D02*
X34716Y-28850D01*
X34616Y-28883D01*
X34550Y-28883D01*
X34450Y-28850D01*
X34383Y-28783D01*
X34350Y-28716D01*
X34316Y-28583D01*
X34316Y-28483D01*
X34350Y-28350D01*
X34383Y-28283D01*
X34450Y-28216D01*
X34550Y-28183D01*
X34616Y-28183D01*
X34716Y-28216D01*
X34750Y-28250D01*
X35183Y-28183D02*
X35316Y-28183D01*
X35383Y-28216D01*
X35450Y-28283D01*
X35483Y-28416D01*
X35483Y-28650D01*
X35450Y-28783D01*
X35383Y-28850D01*
X35316Y-28883D01*
X35183Y-28883D01*
X35116Y-28850D01*
X35050Y-28783D01*
X35016Y-28650D01*
X35016Y-28416D01*
X35050Y-28283D01*
X35116Y-28216D01*
X35183Y-28183D01*
X35783Y-28883D02*
X35783Y-28183D01*
X36183Y-28883D01*
X36183Y-28183D01*
X36516Y-28883D02*
X36516Y-28183D01*
X36916Y-28883D01*
X36916Y-28183D01*
X37083Y-28950D02*
X37616Y-28950D01*
X38116Y-28183D02*
X37783Y-28183D01*
X37750Y-28516D01*
X37783Y-28483D01*
X37850Y-28450D01*
X38016Y-28450D01*
X38083Y-28483D01*
X38116Y-28516D01*
X38150Y-28583D01*
X38150Y-28750D01*
X38116Y-28816D01*
X38083Y-28850D01*
X38016Y-28883D01*
X37850Y-28883D01*
X37783Y-28850D01*
X37750Y-28816D01*
X38383Y-28183D02*
X38850Y-28883D01*
X38850Y-28183D02*
X38383Y-28883D01*
X39083Y-28250D02*
X39116Y-28216D01*
X39183Y-28183D01*
X39350Y-28183D01*
X39416Y-28216D01*
X39450Y-28250D01*
X39483Y-28316D01*
X39483Y-28383D01*
X39450Y-28483D01*
X39050Y-28883D01*
X39483Y-28883D01*
G54D19*
X46066Y-26692D02*
X46123Y-26711D01*
X46219Y-26711D01*
X46257Y-26692D01*
X46276Y-26673D01*
X46295Y-26635D01*
X46295Y-26597D01*
X46276Y-26559D01*
X46257Y-26540D01*
X46219Y-26521D01*
X46142Y-26502D01*
X46104Y-26483D01*
X46085Y-26464D01*
X46066Y-26426D01*
X46066Y-26388D01*
X46085Y-26350D01*
X46104Y-26330D01*
X46142Y-26311D01*
X46238Y-26311D01*
X46295Y-26330D01*
X46428Y-26311D02*
X46523Y-26711D01*
X46600Y-26426D01*
X46676Y-26711D01*
X46771Y-26311D01*
X47133Y-26711D02*
X46904Y-26711D01*
X47019Y-26711D02*
X47019Y-26311D01*
X46980Y-26369D01*
X46942Y-26407D01*
X46904Y-26426D01*
G54D15*
X57550Y-29021D02*
X57450Y-28878D01*
X57378Y-29021D02*
X57378Y-28721D01*
X57492Y-28721D01*
X57521Y-28735D01*
X57535Y-28750D01*
X57550Y-28778D01*
X57550Y-28821D01*
X57535Y-28850D01*
X57521Y-28864D01*
X57492Y-28878D01*
X57378Y-28878D01*
X57835Y-29021D02*
X57664Y-29021D01*
X57750Y-29021D02*
X57750Y-28721D01*
X57721Y-28764D01*
X57692Y-28792D01*
X57664Y-28807D01*
X58221Y-26321D02*
X57921Y-26321D01*
X57921Y-26250D01*
X57935Y-26207D01*
X57964Y-26178D01*
X57992Y-26164D01*
X58050Y-26150D01*
X58092Y-26150D01*
X58150Y-26164D01*
X58178Y-26178D01*
X58207Y-26207D01*
X58221Y-26250D01*
X58221Y-26321D01*
X58221Y-25864D02*
X58221Y-26035D01*
X58221Y-25950D02*
X57921Y-25950D01*
X57964Y-25978D01*
X57992Y-26007D01*
X58007Y-26035D01*
X47450Y-29021D02*
X47350Y-28878D01*
X47278Y-29021D02*
X47278Y-28721D01*
X47392Y-28721D01*
X47421Y-28735D01*
X47435Y-28750D01*
X47450Y-28778D01*
X47450Y-28821D01*
X47435Y-28850D01*
X47421Y-28864D01*
X47392Y-28878D01*
X47278Y-28878D01*
X47564Y-28750D02*
X47578Y-28735D01*
X47607Y-28721D01*
X47678Y-28721D01*
X47707Y-28735D01*
X47721Y-28750D01*
X47735Y-28778D01*
X47735Y-28807D01*
X47721Y-28850D01*
X47550Y-29021D01*
X47735Y-29021D01*
X55650Y-36292D02*
X55635Y-36307D01*
X55592Y-36321D01*
X55564Y-36321D01*
X55521Y-36307D01*
X55492Y-36278D01*
X55478Y-36250D01*
X55464Y-36192D01*
X55464Y-36150D01*
X55478Y-36092D01*
X55492Y-36064D01*
X55521Y-36035D01*
X55564Y-36021D01*
X55592Y-36021D01*
X55635Y-36035D01*
X55650Y-36050D01*
X55764Y-36050D02*
X55778Y-36035D01*
X55807Y-36021D01*
X55878Y-36021D01*
X55907Y-36035D01*
X55921Y-36050D01*
X55935Y-36078D01*
X55935Y-36107D01*
X55921Y-36150D01*
X55750Y-36321D01*
X55935Y-36321D01*
X55650Y-43092D02*
X55635Y-43107D01*
X55592Y-43121D01*
X55564Y-43121D01*
X55521Y-43107D01*
X55492Y-43078D01*
X55478Y-43050D01*
X55464Y-42992D01*
X55464Y-42950D01*
X55478Y-42892D01*
X55492Y-42864D01*
X55521Y-42835D01*
X55564Y-42821D01*
X55592Y-42821D01*
X55635Y-42835D01*
X55650Y-42850D01*
X55935Y-43121D02*
X55764Y-43121D01*
X55850Y-43121D02*
X55850Y-42821D01*
X55821Y-42864D01*
X55792Y-42892D01*
X55764Y-42907D01*
X56778Y-50721D02*
X56778Y-50421D01*
X56850Y-50421D01*
X56892Y-50435D01*
X56921Y-50464D01*
X56935Y-50492D01*
X56950Y-50550D01*
X56950Y-50592D01*
X56935Y-50650D01*
X56921Y-50678D01*
X56892Y-50707D01*
X56850Y-50721D01*
X56778Y-50721D01*
X57064Y-50450D02*
X57078Y-50435D01*
X57107Y-50421D01*
X57178Y-50421D01*
X57207Y-50435D01*
X57221Y-50450D01*
X57235Y-50478D01*
X57235Y-50507D01*
X57221Y-50550D01*
X57050Y-50721D01*
X57235Y-50721D01*
X53478Y-50721D02*
X53478Y-50421D01*
X53550Y-50421D01*
X53592Y-50435D01*
X53621Y-50464D01*
X53635Y-50492D01*
X53650Y-50550D01*
X53650Y-50592D01*
X53635Y-50650D01*
X53621Y-50678D01*
X53592Y-50707D01*
X53550Y-50721D01*
X53478Y-50721D01*
X53750Y-50421D02*
X53935Y-50421D01*
X53835Y-50535D01*
X53878Y-50535D01*
X53907Y-50550D01*
X53921Y-50564D01*
X53935Y-50592D01*
X53935Y-50664D01*
X53921Y-50692D01*
X53907Y-50707D01*
X53878Y-50721D01*
X53792Y-50721D01*
X53764Y-50707D01*
X53750Y-50692D01*
X55621Y-47550D02*
X55478Y-47650D01*
X55621Y-47721D02*
X55321Y-47721D01*
X55321Y-47607D01*
X55335Y-47578D01*
X55350Y-47564D01*
X55378Y-47550D01*
X55421Y-47550D01*
X55450Y-47564D01*
X55464Y-47578D01*
X55478Y-47607D01*
X55478Y-47721D01*
X55321Y-47450D02*
X55321Y-47264D01*
X55435Y-47364D01*
X55435Y-47321D01*
X55450Y-47292D01*
X55464Y-47278D01*
X55492Y-47264D01*
X55564Y-47264D01*
X55592Y-47278D01*
X55607Y-47292D01*
X55621Y-47321D01*
X55621Y-47407D01*
X55607Y-47435D01*
X55592Y-47450D01*
G54D20*
X48783Y-24283D02*
X48783Y-23583D01*
X49050Y-23583D01*
X49116Y-23616D01*
X49150Y-23650D01*
X49183Y-23716D01*
X49183Y-23816D01*
X49150Y-23883D01*
X49116Y-23916D01*
X49050Y-23950D01*
X48783Y-23950D01*
X49850Y-24283D02*
X49450Y-24283D01*
X49650Y-24283D02*
X49650Y-23583D01*
X49583Y-23683D01*
X49516Y-23750D01*
X49450Y-23783D01*
X51150Y-28716D02*
X51116Y-28750D01*
X51016Y-28783D01*
X50950Y-28783D01*
X50850Y-28750D01*
X50783Y-28683D01*
X50750Y-28616D01*
X50716Y-28483D01*
X50716Y-28383D01*
X50750Y-28250D01*
X50783Y-28183D01*
X50850Y-28116D01*
X50950Y-28083D01*
X51016Y-28083D01*
X51116Y-28116D01*
X51150Y-28150D01*
X51583Y-28083D02*
X51716Y-28083D01*
X51783Y-28116D01*
X51850Y-28183D01*
X51883Y-28316D01*
X51883Y-28550D01*
X51850Y-28683D01*
X51783Y-28750D01*
X51716Y-28783D01*
X51583Y-28783D01*
X51516Y-28750D01*
X51450Y-28683D01*
X51416Y-28550D01*
X51416Y-28316D01*
X51450Y-28183D01*
X51516Y-28116D01*
X51583Y-28083D01*
X52183Y-28783D02*
X52183Y-28083D01*
X52583Y-28783D01*
X52583Y-28083D01*
X52916Y-28783D02*
X52916Y-28083D01*
X53316Y-28783D01*
X53316Y-28083D01*
X53483Y-28850D02*
X54016Y-28850D01*
X54516Y-28083D02*
X54183Y-28083D01*
X54150Y-28416D01*
X54183Y-28383D01*
X54250Y-28350D01*
X54416Y-28350D01*
X54483Y-28383D01*
X54516Y-28416D01*
X54550Y-28483D01*
X54550Y-28650D01*
X54516Y-28716D01*
X54483Y-28750D01*
X54416Y-28783D01*
X54250Y-28783D01*
X54183Y-28750D01*
X54150Y-28716D01*
X54783Y-28083D02*
X55250Y-28783D01*
X55250Y-28083D02*
X54783Y-28783D01*
X55483Y-28150D02*
X55516Y-28116D01*
X55583Y-28083D01*
X55750Y-28083D01*
X55816Y-28116D01*
X55850Y-28150D01*
X55883Y-28216D01*
X55883Y-28283D01*
X55850Y-28383D01*
X55450Y-28783D01*
X55883Y-28783D01*
G54D19*
X62466Y-26692D02*
X62523Y-26711D01*
X62619Y-26711D01*
X62657Y-26692D01*
X62676Y-26673D01*
X62695Y-26635D01*
X62695Y-26597D01*
X62676Y-26559D01*
X62657Y-26540D01*
X62619Y-26521D01*
X62542Y-26502D01*
X62504Y-26483D01*
X62485Y-26464D01*
X62466Y-26426D01*
X62466Y-26388D01*
X62485Y-26350D01*
X62504Y-26330D01*
X62542Y-26311D01*
X62638Y-26311D01*
X62695Y-26330D01*
X62828Y-26311D02*
X62923Y-26711D01*
X63000Y-26426D01*
X63076Y-26711D01*
X63171Y-26311D01*
X63533Y-26711D02*
X63304Y-26711D01*
X63419Y-26711D02*
X63419Y-26311D01*
X63380Y-26369D01*
X63342Y-26407D01*
X63304Y-26426D01*
G54D15*
X73950Y-29021D02*
X73850Y-28878D01*
X73778Y-29021D02*
X73778Y-28721D01*
X73892Y-28721D01*
X73921Y-28735D01*
X73935Y-28750D01*
X73950Y-28778D01*
X73950Y-28821D01*
X73935Y-28850D01*
X73921Y-28864D01*
X73892Y-28878D01*
X73778Y-28878D01*
X74235Y-29021D02*
X74064Y-29021D01*
X74150Y-29021D02*
X74150Y-28721D01*
X74121Y-28764D01*
X74092Y-28792D01*
X74064Y-28807D01*
X74621Y-26321D02*
X74321Y-26321D01*
X74321Y-26250D01*
X74335Y-26207D01*
X74364Y-26178D01*
X74392Y-26164D01*
X74450Y-26150D01*
X74492Y-26150D01*
X74550Y-26164D01*
X74578Y-26178D01*
X74607Y-26207D01*
X74621Y-26250D01*
X74621Y-26321D01*
X74621Y-25864D02*
X74621Y-26035D01*
X74621Y-25950D02*
X74321Y-25950D01*
X74364Y-25978D01*
X74392Y-26007D01*
X74407Y-26035D01*
X63850Y-29021D02*
X63750Y-28878D01*
X63678Y-29021D02*
X63678Y-28721D01*
X63792Y-28721D01*
X63821Y-28735D01*
X63835Y-28750D01*
X63850Y-28778D01*
X63850Y-28821D01*
X63835Y-28850D01*
X63821Y-28864D01*
X63792Y-28878D01*
X63678Y-28878D01*
X63964Y-28750D02*
X63978Y-28735D01*
X64007Y-28721D01*
X64078Y-28721D01*
X64107Y-28735D01*
X64121Y-28750D01*
X64135Y-28778D01*
X64135Y-28807D01*
X64121Y-28850D01*
X63950Y-29021D01*
X64135Y-29021D01*
X72050Y-36292D02*
X72035Y-36307D01*
X71992Y-36321D01*
X71964Y-36321D01*
X71921Y-36307D01*
X71892Y-36278D01*
X71878Y-36250D01*
X71864Y-36192D01*
X71864Y-36150D01*
X71878Y-36092D01*
X71892Y-36064D01*
X71921Y-36035D01*
X71964Y-36021D01*
X71992Y-36021D01*
X72035Y-36035D01*
X72050Y-36050D01*
X72164Y-36050D02*
X72178Y-36035D01*
X72207Y-36021D01*
X72278Y-36021D01*
X72307Y-36035D01*
X72321Y-36050D01*
X72335Y-36078D01*
X72335Y-36107D01*
X72321Y-36150D01*
X72150Y-36321D01*
X72335Y-36321D01*
X72050Y-43092D02*
X72035Y-43107D01*
X71992Y-43121D01*
X71964Y-43121D01*
X71921Y-43107D01*
X71892Y-43078D01*
X71878Y-43050D01*
X71864Y-42992D01*
X71864Y-42950D01*
X71878Y-42892D01*
X71892Y-42864D01*
X71921Y-42835D01*
X71964Y-42821D01*
X71992Y-42821D01*
X72035Y-42835D01*
X72050Y-42850D01*
X72335Y-43121D02*
X72164Y-43121D01*
X72250Y-43121D02*
X72250Y-42821D01*
X72221Y-42864D01*
X72192Y-42892D01*
X72164Y-42907D01*
X73178Y-50721D02*
X73178Y-50421D01*
X73250Y-50421D01*
X73292Y-50435D01*
X73321Y-50464D01*
X73335Y-50492D01*
X73350Y-50550D01*
X73350Y-50592D01*
X73335Y-50650D01*
X73321Y-50678D01*
X73292Y-50707D01*
X73250Y-50721D01*
X73178Y-50721D01*
X73464Y-50450D02*
X73478Y-50435D01*
X73507Y-50421D01*
X73578Y-50421D01*
X73607Y-50435D01*
X73621Y-50450D01*
X73635Y-50478D01*
X73635Y-50507D01*
X73621Y-50550D01*
X73450Y-50721D01*
X73635Y-50721D01*
X69878Y-50721D02*
X69878Y-50421D01*
X69950Y-50421D01*
X69992Y-50435D01*
X70021Y-50464D01*
X70035Y-50492D01*
X70050Y-50550D01*
X70050Y-50592D01*
X70035Y-50650D01*
X70021Y-50678D01*
X69992Y-50707D01*
X69950Y-50721D01*
X69878Y-50721D01*
X70150Y-50421D02*
X70335Y-50421D01*
X70235Y-50535D01*
X70278Y-50535D01*
X70307Y-50550D01*
X70321Y-50564D01*
X70335Y-50592D01*
X70335Y-50664D01*
X70321Y-50692D01*
X70307Y-50707D01*
X70278Y-50721D01*
X70192Y-50721D01*
X70164Y-50707D01*
X70150Y-50692D01*
X72021Y-47550D02*
X71878Y-47650D01*
X72021Y-47721D02*
X71721Y-47721D01*
X71721Y-47607D01*
X71735Y-47578D01*
X71750Y-47564D01*
X71778Y-47550D01*
X71821Y-47550D01*
X71850Y-47564D01*
X71864Y-47578D01*
X71878Y-47607D01*
X71878Y-47721D01*
X71721Y-47450D02*
X71721Y-47264D01*
X71835Y-47364D01*
X71835Y-47321D01*
X71850Y-47292D01*
X71864Y-47278D01*
X71892Y-47264D01*
X71964Y-47264D01*
X71992Y-47278D01*
X72007Y-47292D01*
X72021Y-47321D01*
X72021Y-47407D01*
X72007Y-47435D01*
X71992Y-47450D01*
G54D20*
X65183Y-24283D02*
X65183Y-23583D01*
X65450Y-23583D01*
X65516Y-23616D01*
X65550Y-23650D01*
X65583Y-23716D01*
X65583Y-23816D01*
X65550Y-23883D01*
X65516Y-23916D01*
X65450Y-23950D01*
X65183Y-23950D01*
X66250Y-24283D02*
X65850Y-24283D01*
X66050Y-24283D02*
X66050Y-23583D01*
X65983Y-23683D01*
X65916Y-23750D01*
X65850Y-23783D01*
X67550Y-28716D02*
X67516Y-28750D01*
X67416Y-28783D01*
X67350Y-28783D01*
X67250Y-28750D01*
X67183Y-28683D01*
X67150Y-28616D01*
X67116Y-28483D01*
X67116Y-28383D01*
X67150Y-28250D01*
X67183Y-28183D01*
X67250Y-28116D01*
X67350Y-28083D01*
X67416Y-28083D01*
X67516Y-28116D01*
X67550Y-28150D01*
X67983Y-28083D02*
X68116Y-28083D01*
X68183Y-28116D01*
X68250Y-28183D01*
X68283Y-28316D01*
X68283Y-28550D01*
X68250Y-28683D01*
X68183Y-28750D01*
X68116Y-28783D01*
X67983Y-28783D01*
X67916Y-28750D01*
X67850Y-28683D01*
X67816Y-28550D01*
X67816Y-28316D01*
X67850Y-28183D01*
X67916Y-28116D01*
X67983Y-28083D01*
X68583Y-28783D02*
X68583Y-28083D01*
X68983Y-28783D01*
X68983Y-28083D01*
X69316Y-28783D02*
X69316Y-28083D01*
X69716Y-28783D01*
X69716Y-28083D01*
X69883Y-28850D02*
X70416Y-28850D01*
X70916Y-28083D02*
X70583Y-28083D01*
X70550Y-28416D01*
X70583Y-28383D01*
X70650Y-28350D01*
X70816Y-28350D01*
X70883Y-28383D01*
X70916Y-28416D01*
X70950Y-28483D01*
X70950Y-28650D01*
X70916Y-28716D01*
X70883Y-28750D01*
X70816Y-28783D01*
X70650Y-28783D01*
X70583Y-28750D01*
X70550Y-28716D01*
X71183Y-28083D02*
X71650Y-28783D01*
X71650Y-28083D02*
X71183Y-28783D01*
X71883Y-28150D02*
X71916Y-28116D01*
X71983Y-28083D01*
X72150Y-28083D01*
X72216Y-28116D01*
X72250Y-28150D01*
X72283Y-28216D01*
X72283Y-28283D01*
X72250Y-28383D01*
X71850Y-28783D01*
X72283Y-28783D01*
G54D19*
X78766Y-26592D02*
X78823Y-26611D01*
X78919Y-26611D01*
X78957Y-26592D01*
X78976Y-26573D01*
X78995Y-26535D01*
X78995Y-26497D01*
X78976Y-26459D01*
X78957Y-26440D01*
X78919Y-26421D01*
X78842Y-26402D01*
X78804Y-26383D01*
X78785Y-26364D01*
X78766Y-26326D01*
X78766Y-26288D01*
X78785Y-26250D01*
X78804Y-26230D01*
X78842Y-26211D01*
X78938Y-26211D01*
X78995Y-26230D01*
X79128Y-26211D02*
X79223Y-26611D01*
X79300Y-26326D01*
X79376Y-26611D01*
X79471Y-26211D01*
X79833Y-26611D02*
X79604Y-26611D01*
X79719Y-26611D02*
X79719Y-26211D01*
X79680Y-26269D01*
X79642Y-26307D01*
X79604Y-26326D01*
G54D15*
X90250Y-28921D02*
X90150Y-28778D01*
X90078Y-28921D02*
X90078Y-28621D01*
X90192Y-28621D01*
X90221Y-28635D01*
X90235Y-28650D01*
X90250Y-28678D01*
X90250Y-28721D01*
X90235Y-28750D01*
X90221Y-28764D01*
X90192Y-28778D01*
X90078Y-28778D01*
X90535Y-28921D02*
X90364Y-28921D01*
X90450Y-28921D02*
X90450Y-28621D01*
X90421Y-28664D01*
X90392Y-28692D01*
X90364Y-28707D01*
X90921Y-26221D02*
X90621Y-26221D01*
X90621Y-26150D01*
X90635Y-26107D01*
X90664Y-26078D01*
X90692Y-26064D01*
X90750Y-26050D01*
X90792Y-26050D01*
X90850Y-26064D01*
X90878Y-26078D01*
X90907Y-26107D01*
X90921Y-26150D01*
X90921Y-26221D01*
X90921Y-25764D02*
X90921Y-25935D01*
X90921Y-25850D02*
X90621Y-25850D01*
X90664Y-25878D01*
X90692Y-25907D01*
X90707Y-25935D01*
X80150Y-28921D02*
X80050Y-28778D01*
X79978Y-28921D02*
X79978Y-28621D01*
X80092Y-28621D01*
X80121Y-28635D01*
X80135Y-28650D01*
X80150Y-28678D01*
X80150Y-28721D01*
X80135Y-28750D01*
X80121Y-28764D01*
X80092Y-28778D01*
X79978Y-28778D01*
X80264Y-28650D02*
X80278Y-28635D01*
X80307Y-28621D01*
X80378Y-28621D01*
X80407Y-28635D01*
X80421Y-28650D01*
X80435Y-28678D01*
X80435Y-28707D01*
X80421Y-28750D01*
X80250Y-28921D01*
X80435Y-28921D01*
X88350Y-36192D02*
X88335Y-36207D01*
X88292Y-36221D01*
X88264Y-36221D01*
X88221Y-36207D01*
X88192Y-36178D01*
X88178Y-36150D01*
X88164Y-36092D01*
X88164Y-36050D01*
X88178Y-35992D01*
X88192Y-35964D01*
X88221Y-35935D01*
X88264Y-35921D01*
X88292Y-35921D01*
X88335Y-35935D01*
X88350Y-35950D01*
X88464Y-35950D02*
X88478Y-35935D01*
X88507Y-35921D01*
X88578Y-35921D01*
X88607Y-35935D01*
X88621Y-35950D01*
X88635Y-35978D01*
X88635Y-36007D01*
X88621Y-36050D01*
X88450Y-36221D01*
X88635Y-36221D01*
X88350Y-42992D02*
X88335Y-43007D01*
X88292Y-43021D01*
X88264Y-43021D01*
X88221Y-43007D01*
X88192Y-42978D01*
X88178Y-42950D01*
X88164Y-42892D01*
X88164Y-42850D01*
X88178Y-42792D01*
X88192Y-42764D01*
X88221Y-42735D01*
X88264Y-42721D01*
X88292Y-42721D01*
X88335Y-42735D01*
X88350Y-42750D01*
X88635Y-43021D02*
X88464Y-43021D01*
X88550Y-43021D02*
X88550Y-42721D01*
X88521Y-42764D01*
X88492Y-42792D01*
X88464Y-42807D01*
X89478Y-50621D02*
X89478Y-50321D01*
X89550Y-50321D01*
X89592Y-50335D01*
X89621Y-50364D01*
X89635Y-50392D01*
X89650Y-50450D01*
X89650Y-50492D01*
X89635Y-50550D01*
X89621Y-50578D01*
X89592Y-50607D01*
X89550Y-50621D01*
X89478Y-50621D01*
X89764Y-50350D02*
X89778Y-50335D01*
X89807Y-50321D01*
X89878Y-50321D01*
X89907Y-50335D01*
X89921Y-50350D01*
X89935Y-50378D01*
X89935Y-50407D01*
X89921Y-50450D01*
X89750Y-50621D01*
X89935Y-50621D01*
X86178Y-50621D02*
X86178Y-50321D01*
X86250Y-50321D01*
X86292Y-50335D01*
X86321Y-50364D01*
X86335Y-50392D01*
X86350Y-50450D01*
X86350Y-50492D01*
X86335Y-50550D01*
X86321Y-50578D01*
X86292Y-50607D01*
X86250Y-50621D01*
X86178Y-50621D01*
X86450Y-50321D02*
X86635Y-50321D01*
X86535Y-50435D01*
X86578Y-50435D01*
X86607Y-50450D01*
X86621Y-50464D01*
X86635Y-50492D01*
X86635Y-50564D01*
X86621Y-50592D01*
X86607Y-50607D01*
X86578Y-50621D01*
X86492Y-50621D01*
X86464Y-50607D01*
X86450Y-50592D01*
X88321Y-47450D02*
X88178Y-47550D01*
X88321Y-47621D02*
X88021Y-47621D01*
X88021Y-47507D01*
X88035Y-47478D01*
X88050Y-47464D01*
X88078Y-47450D01*
X88121Y-47450D01*
X88150Y-47464D01*
X88164Y-47478D01*
X88178Y-47507D01*
X88178Y-47621D01*
X88021Y-47350D02*
X88021Y-47164D01*
X88135Y-47264D01*
X88135Y-47221D01*
X88150Y-47192D01*
X88164Y-47178D01*
X88192Y-47164D01*
X88264Y-47164D01*
X88292Y-47178D01*
X88307Y-47192D01*
X88321Y-47221D01*
X88321Y-47307D01*
X88307Y-47335D01*
X88292Y-47350D01*
G54D20*
X81483Y-24183D02*
X81483Y-23483D01*
X81750Y-23483D01*
X81816Y-23516D01*
X81850Y-23550D01*
X81883Y-23616D01*
X81883Y-23716D01*
X81850Y-23783D01*
X81816Y-23816D01*
X81750Y-23850D01*
X81483Y-23850D01*
X82550Y-24183D02*
X82150Y-24183D01*
X82350Y-24183D02*
X82350Y-23483D01*
X82283Y-23583D01*
X82216Y-23650D01*
X82150Y-23683D01*
X83850Y-28616D02*
X83816Y-28650D01*
X83716Y-28683D01*
X83650Y-28683D01*
X83550Y-28650D01*
X83483Y-28583D01*
X83450Y-28516D01*
X83416Y-28383D01*
X83416Y-28283D01*
X83450Y-28150D01*
X83483Y-28083D01*
X83550Y-28016D01*
X83650Y-27983D01*
X83716Y-27983D01*
X83816Y-28016D01*
X83850Y-28050D01*
X84283Y-27983D02*
X84416Y-27983D01*
X84483Y-28016D01*
X84550Y-28083D01*
X84583Y-28216D01*
X84583Y-28450D01*
X84550Y-28583D01*
X84483Y-28650D01*
X84416Y-28683D01*
X84283Y-28683D01*
X84216Y-28650D01*
X84150Y-28583D01*
X84116Y-28450D01*
X84116Y-28216D01*
X84150Y-28083D01*
X84216Y-28016D01*
X84283Y-27983D01*
X84883Y-28683D02*
X84883Y-27983D01*
X85283Y-28683D01*
X85283Y-27983D01*
X85616Y-28683D02*
X85616Y-27983D01*
X86016Y-28683D01*
X86016Y-27983D01*
X86183Y-28750D02*
X86716Y-28750D01*
X87216Y-27983D02*
X86883Y-27983D01*
X86850Y-28316D01*
X86883Y-28283D01*
X86950Y-28250D01*
X87116Y-28250D01*
X87183Y-28283D01*
X87216Y-28316D01*
X87250Y-28383D01*
X87250Y-28550D01*
X87216Y-28616D01*
X87183Y-28650D01*
X87116Y-28683D01*
X86950Y-28683D01*
X86883Y-28650D01*
X86850Y-28616D01*
X87483Y-27983D02*
X87950Y-28683D01*
X87950Y-27983D02*
X87483Y-28683D01*
X88183Y-28050D02*
X88216Y-28016D01*
X88283Y-27983D01*
X88450Y-27983D01*
X88516Y-28016D01*
X88550Y-28050D01*
X88583Y-28116D01*
X88583Y-28183D01*
X88550Y-28283D01*
X88150Y-28683D01*
X88583Y-28683D01*
G54D19*
X13266Y-26892D02*
X13323Y-26911D01*
X13419Y-26911D01*
X13457Y-26892D01*
X13476Y-26873D01*
X13495Y-26835D01*
X13495Y-26797D01*
X13476Y-26759D01*
X13457Y-26740D01*
X13419Y-26721D01*
X13342Y-26702D01*
X13304Y-26683D01*
X13285Y-26664D01*
X13266Y-26626D01*
X13266Y-26588D01*
X13285Y-26550D01*
X13304Y-26530D01*
X13342Y-26511D01*
X13438Y-26511D01*
X13495Y-26530D01*
X13628Y-26511D02*
X13723Y-26911D01*
X13800Y-26626D01*
X13876Y-26911D01*
X13971Y-26511D01*
X14333Y-26911D02*
X14104Y-26911D01*
X14219Y-26911D02*
X14219Y-26511D01*
X14180Y-26569D01*
X14142Y-26607D01*
X14104Y-26626D01*
G54D15*
X24750Y-29221D02*
X24650Y-29078D01*
X24578Y-29221D02*
X24578Y-28921D01*
X24692Y-28921D01*
X24721Y-28935D01*
X24735Y-28950D01*
X24750Y-28978D01*
X24750Y-29021D01*
X24735Y-29050D01*
X24721Y-29064D01*
X24692Y-29078D01*
X24578Y-29078D01*
X25035Y-29221D02*
X24864Y-29221D01*
X24950Y-29221D02*
X24950Y-28921D01*
X24921Y-28964D01*
X24892Y-28992D01*
X24864Y-29007D01*
X25421Y-26521D02*
X25121Y-26521D01*
X25121Y-26450D01*
X25135Y-26407D01*
X25164Y-26378D01*
X25192Y-26364D01*
X25250Y-26350D01*
X25292Y-26350D01*
X25350Y-26364D01*
X25378Y-26378D01*
X25407Y-26407D01*
X25421Y-26450D01*
X25421Y-26521D01*
X25421Y-26064D02*
X25421Y-26235D01*
X25421Y-26150D02*
X25121Y-26150D01*
X25164Y-26178D01*
X25192Y-26207D01*
X25207Y-26235D01*
X14650Y-29221D02*
X14550Y-29078D01*
X14478Y-29221D02*
X14478Y-28921D01*
X14592Y-28921D01*
X14621Y-28935D01*
X14635Y-28950D01*
X14650Y-28978D01*
X14650Y-29021D01*
X14635Y-29050D01*
X14621Y-29064D01*
X14592Y-29078D01*
X14478Y-29078D01*
X14764Y-28950D02*
X14778Y-28935D01*
X14807Y-28921D01*
X14878Y-28921D01*
X14907Y-28935D01*
X14921Y-28950D01*
X14935Y-28978D01*
X14935Y-29007D01*
X14921Y-29050D01*
X14750Y-29221D01*
X14935Y-29221D01*
X22850Y-36492D02*
X22835Y-36507D01*
X22792Y-36521D01*
X22764Y-36521D01*
X22721Y-36507D01*
X22692Y-36478D01*
X22678Y-36450D01*
X22664Y-36392D01*
X22664Y-36350D01*
X22678Y-36292D01*
X22692Y-36264D01*
X22721Y-36235D01*
X22764Y-36221D01*
X22792Y-36221D01*
X22835Y-36235D01*
X22850Y-36250D01*
X22964Y-36250D02*
X22978Y-36235D01*
X23007Y-36221D01*
X23078Y-36221D01*
X23107Y-36235D01*
X23121Y-36250D01*
X23135Y-36278D01*
X23135Y-36307D01*
X23121Y-36350D01*
X22950Y-36521D01*
X23135Y-36521D01*
X22850Y-43292D02*
X22835Y-43307D01*
X22792Y-43321D01*
X22764Y-43321D01*
X22721Y-43307D01*
X22692Y-43278D01*
X22678Y-43250D01*
X22664Y-43192D01*
X22664Y-43150D01*
X22678Y-43092D01*
X22692Y-43064D01*
X22721Y-43035D01*
X22764Y-43021D01*
X22792Y-43021D01*
X22835Y-43035D01*
X22850Y-43050D01*
X23135Y-43321D02*
X22964Y-43321D01*
X23050Y-43321D02*
X23050Y-43021D01*
X23021Y-43064D01*
X22992Y-43092D01*
X22964Y-43107D01*
X23978Y-50921D02*
X23978Y-50621D01*
X24050Y-50621D01*
X24092Y-50635D01*
X24121Y-50664D01*
X24135Y-50692D01*
X24150Y-50750D01*
X24150Y-50792D01*
X24135Y-50850D01*
X24121Y-50878D01*
X24092Y-50907D01*
X24050Y-50921D01*
X23978Y-50921D01*
X24264Y-50650D02*
X24278Y-50635D01*
X24307Y-50621D01*
X24378Y-50621D01*
X24407Y-50635D01*
X24421Y-50650D01*
X24435Y-50678D01*
X24435Y-50707D01*
X24421Y-50750D01*
X24250Y-50921D01*
X24435Y-50921D01*
X20678Y-50921D02*
X20678Y-50621D01*
X20750Y-50621D01*
X20792Y-50635D01*
X20821Y-50664D01*
X20835Y-50692D01*
X20850Y-50750D01*
X20850Y-50792D01*
X20835Y-50850D01*
X20821Y-50878D01*
X20792Y-50907D01*
X20750Y-50921D01*
X20678Y-50921D01*
X20950Y-50621D02*
X21135Y-50621D01*
X21035Y-50735D01*
X21078Y-50735D01*
X21107Y-50750D01*
X21121Y-50764D01*
X21135Y-50792D01*
X21135Y-50864D01*
X21121Y-50892D01*
X21107Y-50907D01*
X21078Y-50921D01*
X20992Y-50921D01*
X20964Y-50907D01*
X20950Y-50892D01*
X22821Y-47750D02*
X22678Y-47850D01*
X22821Y-47921D02*
X22521Y-47921D01*
X22521Y-47807D01*
X22535Y-47778D01*
X22550Y-47764D01*
X22578Y-47750D01*
X22621Y-47750D01*
X22650Y-47764D01*
X22664Y-47778D01*
X22678Y-47807D01*
X22678Y-47921D01*
X22521Y-47650D02*
X22521Y-47464D01*
X22635Y-47564D01*
X22635Y-47521D01*
X22650Y-47492D01*
X22664Y-47478D01*
X22692Y-47464D01*
X22764Y-47464D01*
X22792Y-47478D01*
X22807Y-47492D01*
X22821Y-47521D01*
X22821Y-47607D01*
X22807Y-47635D01*
X22792Y-47650D01*
G54D20*
X15983Y-24483D02*
X15983Y-23783D01*
X16250Y-23783D01*
X16316Y-23816D01*
X16350Y-23850D01*
X16383Y-23916D01*
X16383Y-24016D01*
X16350Y-24083D01*
X16316Y-24116D01*
X16250Y-24150D01*
X15983Y-24150D01*
X17050Y-24483D02*
X16650Y-24483D01*
X16850Y-24483D02*
X16850Y-23783D01*
X16783Y-23883D01*
X16716Y-23950D01*
X16650Y-23983D01*
X18350Y-28916D02*
X18316Y-28950D01*
X18216Y-28983D01*
X18150Y-28983D01*
X18050Y-28950D01*
X17983Y-28883D01*
X17950Y-28816D01*
X17916Y-28683D01*
X17916Y-28583D01*
X17950Y-28450D01*
X17983Y-28383D01*
X18050Y-28316D01*
X18150Y-28283D01*
X18216Y-28283D01*
X18316Y-28316D01*
X18350Y-28350D01*
X18783Y-28283D02*
X18916Y-28283D01*
X18983Y-28316D01*
X19050Y-28383D01*
X19083Y-28516D01*
X19083Y-28750D01*
X19050Y-28883D01*
X18983Y-28950D01*
X18916Y-28983D01*
X18783Y-28983D01*
X18716Y-28950D01*
X18650Y-28883D01*
X18616Y-28750D01*
X18616Y-28516D01*
X18650Y-28383D01*
X18716Y-28316D01*
X18783Y-28283D01*
X19383Y-28983D02*
X19383Y-28283D01*
X19783Y-28983D01*
X19783Y-28283D01*
X20116Y-28983D02*
X20116Y-28283D01*
X20516Y-28983D01*
X20516Y-28283D01*
X20683Y-29050D02*
X21216Y-29050D01*
X21716Y-28283D02*
X21383Y-28283D01*
X21350Y-28616D01*
X21383Y-28583D01*
X21450Y-28550D01*
X21616Y-28550D01*
X21683Y-28583D01*
X21716Y-28616D01*
X21750Y-28683D01*
X21750Y-28850D01*
X21716Y-28916D01*
X21683Y-28950D01*
X21616Y-28983D01*
X21450Y-28983D01*
X21383Y-28950D01*
X21350Y-28916D01*
X21983Y-28283D02*
X22450Y-28983D01*
X22450Y-28283D02*
X21983Y-28983D01*
X22683Y-28350D02*
X22716Y-28316D01*
X22783Y-28283D01*
X22950Y-28283D01*
X23016Y-28316D01*
X23050Y-28350D01*
X23083Y-28416D01*
X23083Y-28483D01*
X23050Y-28583D01*
X22650Y-28983D01*
X23083Y-28983D01*
M02*
